/* XPM */
static const char *axial_xpm[] = {
"48 48 153 2",
"  	c #000000",
". 	c #010101",
"+ 	c #0B0B0B",
"@ 	c #1B1B1B",
"# 	c #292929",
"$ 	c #353535",
"% 	c #383838",
"& 	c #343434",
"* 	c #181818",
"= 	c #0A0A0A",
"- 	c #020202",
"; 	c #040404",
"> 	c #464646",
", 	c #7A7A7A",
"' 	c #868686",
") 	c #757575",
"! 	c #626262",
"~ 	c #4D4D4D",
"{ 	c #5E5E5E",
"] 	c #7E7E7E",
"^ 	c #717171",
"/ 	c #646464",
"( 	c #3D3D3D",
"_ 	c #141414",
": 	c #161616",
"< 	c #555555",
"[ 	c #8E8E8E",
"} 	c #676767",
"| 	c #3F3F3F",
"1 	c #222222",
"2 	c #1C1C1C",
"3 	c #1E1E1E",
"4 	c #282828",
"5 	c #1D1D1D",
"6 	c #202020",
"7 	c #252525",
"8 	c #494949",
"9 	c #818181",
"0 	c #767676",
"a 	c #5C5C5C",
"b 	c #212121",
"c 	c #171717",
"d 	c #2A2A2A",
"e 	c #363636",
"f 	c #373737",
"g 	c #323232",
"h 	c #2B2B2B",
"i 	c #242424",
"j 	c #414141",
"k 	c #7D7D7D",
"l 	c #5A5A5A",
"m 	c #050505",
"n 	c #393939",
"o 	c #777777",
"p 	c #3E3E3E",
"q 	c #262626",
"r 	c #4B4B4B",
"s 	c #575757",
"t 	c #737373",
"u 	c #636363",
"v 	c #5D5D5D",
"w 	c #3C3C3C",
"x 	c #6F6F6F",
"y 	c #333333",
"z 	c #8C8C8C",
"A 	c #404040",
"B 	c #6B6B6B",
"C 	c #909090",
"D 	c #858585",
"E 	c #686868",
"F 	c #545454",
"G 	c #6D6D6D",
"H 	c #7C7C7C",
"I 	c #434343",
"J 	c #2C2C2C",
"K 	c #5F5F5F",
"L 	c #6C6C6C",
"M 	c #121212",
"N 	c #606060",
"O 	c #727272",
"P 	c #959595",
"Q 	c #969696",
"R 	c #939393",
"S 	c #7B7B7B",
"T 	c #949494",
"U 	c #878787",
"V 	c #595959",
"W 	c #616161",
"X 	c #1F1F1F",
"Y 	c #585858",
"Z 	c #0D0D0D",
"` 	c #656565",
" .	c #666666",
"..	c #8D8D8D",
"+.	c #6E6E6E",
"@.	c #898989",
"#.	c #6A6A6A",
"$.	c #8B8B8B",
"%.	c #2F2F2F",
"&.	c #888888",
"*.	c #838383",
"=.	c #484848",
"-.	c #797979",
";.	c #7F7F7F",
">.	c #848484",
",.	c #525252",
"'.	c #424242",
").	c #4F4F4F",
"!.	c #4E4E4E",
"~.	c #828282",
"{.	c #707070",
"].	c #131313",
"^.	c #747474",
"/.	c #505050",
"(.	c #8A8A8A",
"_.	c #8F8F8F",
":.	c #919191",
"<.	c #3A3A3A",
"[.	c #060606",
"}.	c #1A1A1A",
"|.	c #4C4C4C",
"1.	c #515151",
"2.	c #0C0C0C",
"3.	c #5B5B5B",
"4.	c #929292",
"5.	c #535353",
"6.	c #454545",
"7.	c #313131",
"8.	c #787878",
"9.	c #474747",
"0.	c #303030",
"a.	c #2E2E2E",
"b.	c #696969",
"c.	c #565656",
"d.	c #808080",
"e.	c #191919",
"f.	c #4A4A4A",
"g.	c #2D2D2D",
"h.	c #232323",
"i.	c #444444",
"j.	c #151515",
"k.	c #0E0E0E",
"l.	c #090909",
"m.	c #272727",
"n.	c #3B3B3B",
"o.	c #030303",
"p.	c #9F9F9F",
"q.	c #101010",
"r.	c #9C9C9C",
"s.	c #989898",
"t.	c #111111",
"u.	c #080808",
"v.	c #070707",
"                                                                                                ",
"                                                                                                ",
"                                                                                                ",
"                                                                                                ",
"                                      . + @ # $ % & # * = - . .                                 ",
"                                  ; @ > , ' ) ! ~ { ] ^ / ( _ - . .                             ",
"                              . : < [ } | 1 2 3 4 5 6 7 8 9 , & + .                             ",
"                            ; 4 0 a b c d 4 e ( f g h & i # j k l _ .                           ",
"                          m n o p 4 q r s % t u j v { ) w 4 @ 1 t x * .                         ",
"                        - y z 7 7 A y B C 9 D E F G H , I s J c b K L M                         ",
"                        3 k i 1 N L ~ O P Q R 0 s S T U / V u W q X / Y +                       ",
"                      Z ` 8 M ` O  .u ..Q P S +.a x @.P 9 #.^ $.E 1 %.&.> ;                     ",
"                    - j t q e *.R @.t [ Q z  .} =.x $.Q R -.z ;.>.~ 3 ,.;.b .                   ",
"                    * o '.@ r o ..P P Q Q D 0 O ).s O P Q Q ' ) *.{ 7 q } ` +                   ",
"                  - !.L : (  .#.x ~.Q Q Q Q @.u K {.{.P Q Q ..P ' N '.* I H g                   ",
"                  ].^./.M u (.' >._.Q Q Q Q :.} < D R Q Q Q Q R O +.] <.1 L ` [.                ",
"                  f 0 e f ] C Q Q Q Q Q P :.:.B !.U Q Q Q Q Q Q Q Q 9 ).5 W k }.                ",
"                ; { +.# |.E +._.Q P T Q _.8 ' P T T k T Q Q Q Q Q U o G i 1.k d                 ",
"                2.t } i 3.S T Q Q 4.R Q ' r <.O *.5.6.*.Q Q Q Q Q &.^.1.7.A , $                 ",
"                ].8.K _ 9.^ -.z Q Q Q Q >.E 0.f A a.K 0 P Q Q Q $.! b.S ( 7.0 <.                ",
"                : o s @ K c.-.@.P P Q Q *.B 7.0.$ a.W 0 P Q Q Q 4.D R d.=.7 x I                 ",
"                e., f.$ U t k Q 4.P Q Q D } y % ( g.V ;.P Q R z ' [ P ..u b #.f.-               ",
"                h.k i./.:.$.&.@.*.d.Q T _. .1.a Y & < $.Q Q d.} 0 ..P @.k X E c.;               ",
"                a.d.<.N [ _.[ S b.O Q T _.H K  .` =.#.C Q Q 0 W H k :.B  .}.b.W [.              ",
"                $ k f 9. .+.C , H L T R >.O l < < 5.K >.Q ..x ) ^.D D 9 ^.c E W =               ",
"              . w k f A k &...*.x v $.C ,.| < 8 =.1.> /.T z l c.) k ) ^. .j./ N Z               ",
"              - i.d.f %.E < { o ;.! 4.E a.> z T P _.F 0.} Q @.8.O / { G } j. .N k.              ",
"              - | D % | ^ {.O { ] T _.f $ &.Q &.] P 4.> 7...Q U ' z U *.^ : B 3.2.              ",
"              . 7.z A 7.b.t z R Q Q >.a.L P ;.9.,.d.P &.f H Q Q P C , ;.#.i {.,.l.              ",
"                @ $.!.7.] H -.T Q Q ~.> R P o ~ j ] :.Q d.d.Q P o 9 U O p & ] =.m               ",
"                l.#.) 3 E t @.*.~.Q :.@.R _., a r d.G ^.C Q R D O ` d.H * |.(.0.-               ",
"                . w ..h.g ^.B x U Q Q Q *.E k / /. .< 0 4.Q R ^.^.{.0 V c B 0 j.                ",
"                  j.] !.* a t (.[ Q Q Q P 9 / W Y Y s ~.P Q Q R ] ^ 3.m.%.C n.-                 ",
"                  o.I p.e.| 9 0 S Q Q Q 4.' B #.~ 8.;.k Q P Q Q @.-.3.q.K L k.                  ",
"                  . 5 r.|._ j / ' U Q Q R C >.+.` *...P Q -.D P U N : 7 U g .                   ",
"                  . [./.s.e.e.a ;.G P Q Q P ..#.5.D R Q P 8.;.4.+.h.t.x 3.2.                    ",
"                    . e.d.^.j.$ u d.C T ~.T [ 9 } $.Q Q 8.8.@.S f k.> H 5 .                     ",
"                    . - # $.! : i {.9 ;.N 4._.L > ' &.P k {.` 7 k.w &.g -                       ",
"                      . ; J D E c : | |.H ~.$.S |.!.k ] S n Z ].6.-.% m                         ",
"                      . . - 3 E ^.m.u.* p < v 8 4 g p ( }.Z i / G J ; .                         ",
"                              2.n.L 5.i j.k.].c }.: : e.7./.W > j..                             ",
"                                . _ y c.< ~ =.~ !.V l !.8 a.c ;                                 ",
"                                    . v.q.c * * : j.t.+ m .                                     ",
"                                                                                                ",
"                                                                                                ",
"                                                                                                ",
"                                                                                                ",
"                                                                                                "};
