/* XPM */
static const char *coronal_xpm[] = {
"48 48 162 2",
"  	c #000000",
". 	c #010101",
"+ 	c #020202",
"@ 	c #060606",
"# 	c #0B0B0B",
"$ 	c #101010",
"% 	c #161616",
"& 	c #1B1B1B",
"* 	c #1F1F1F",
"= 	c #242424",
"- 	c #282828",
"; 	c #2B2B2B",
"> 	c #2E2E2E",
", 	c #323232",
"' 	c #343434",
") 	c #353535",
"! 	c #333333",
"~ 	c #313131",
"{ 	c #2F2F2F",
"] 	c #2D2D2D",
"^ 	c #292929",
"/ 	c #222222",
"( 	c #0E0E0E",
"_ 	c #202020",
": 	c #212121",
"< 	c #1C1C1C",
"[ 	c #0C0C0C",
"} 	c #070707",
"| 	c #090909",
"1 	c #0D0D0D",
"2 	c #0F0F0F",
"3 	c #111111",
"4 	c #141414",
"5 	c #191919",
"6 	c #1D1D1D",
"7 	c #050505",
"8 	c #040404",
"9 	c #3E3E3E",
"0 	c #5B5B5B",
"a 	c #787878",
"b 	c #747474",
"c 	c #838383",
"d 	c #848484",
"e 	c #797979",
"f 	c #5E5E5E",
"g 	c #444444",
"h 	c #181818",
"i 	c #434343",
"j 	c #696969",
"k 	c #A1A1A1",
"l 	c #A4A4A4",
"m 	c #6D6D6D",
"n 	c #383838",
"o 	c #3D3D3D",
"p 	c #606060",
"q 	c #858585",
"r 	c #9F9F9F",
"s 	c #8E8E8E",
"t 	c #3F3F3F",
"u 	c #080808",
"v 	c #373737",
"w 	c #595959",
"x 	c #989898",
"y 	c #4E4E4E",
"z 	c #3B3B3B",
"A 	c #4F4F4F",
"B 	c #575757",
"C 	c #4C4C4C",
"D 	c #414141",
"E 	c #303030",
"F 	c #515151",
"G 	c #777777",
"H 	c #616161",
"I 	c #464646",
"J 	c #7B7B7B",
"K 	c #B0B0B0",
"L 	c #585858",
"M 	c #3A3A3A",
"N 	c #404040",
"O 	c #5F5F5F",
"P 	c #545454",
"Q 	c #5A5A5A",
"R 	c #505050",
"S 	c #3C3C3C",
"T 	c #919191",
"U 	c #909090",
"V 	c #4B4B4B",
"W 	c #8D8D8D",
"X 	c #888888",
"Y 	c #808080",
"Z 	c #767676",
"` 	c #565656",
" .	c #5D5D5D",
"..	c #707070",
"+.	c #8F8F8F",
"@.	c #959595",
"#.	c #7D7D7D",
"$.	c #7C7C7C",
"%.	c #737373",
"&.	c #363636",
"*.	c #4D4D4D",
"=.	c #939393",
"-.	c #676767",
";.	c #8C8C8C",
">.	c #898989",
",.	c #262626",
"'.	c #252525",
").	c #272727",
"!.	c #626262",
"~.	c #6C6C6C",
"{.	c #484848",
"].	c #6B6B6B",
"^.	c #929292",
"/.	c #878787",
"(.	c #666666",
"_.	c #868686",
":.	c #636363",
"<.	c #2A2A2A",
"[.	c #525252",
"}.	c #646464",
"|.	c #535353",
"1.	c #828282",
"2.	c #949494",
"3.	c #969696",
"4.	c #686868",
"5.	c #6E6E6E",
"6.	c #727272",
"7.	c #7F7F7F",
"8.	c #8A8A8A",
"9.	c #424242",
"0.	c #4A4A4A",
"a.	c #8B8B8B",
"b.	c #757575",
"c.	c #1A1A1A",
"d.	c #1E1E1E",
"e.	c #474747",
"f.	c #7A7A7A",
"g.	c #454545",
"h.	c #818181",
"i.	c #7E7E7E",
"j.	c #656565",
"k.	c #171717",
"l.	c #555555",
"m.	c #030303",
"n.	c #6A6A6A",
"o.	c #6F6F6F",
"p.	c #0A0A0A",
"q.	c #717171",
"r.	c #5C5C5C",
"s.	c #121212",
"t.	c #151515",
"u.	c #2C2C2C",
"v.	c #BDBDBD",
"w.	c #131313",
"x.	c #A5A5A5",
"y.	c #979797",
"z.	c #393939",
"A.	c #494949",
"B.	c #BBBBBB",
"C.	c #A0A0A0",
"D.	c #B5B5B5",
"E.	c #9C9C9C",
"                                                                                                ",
"                                                                                                ",
"                                                                                                ",
"                                                                                                ",
"                                                                                                ",
"                                                                                                ",
"                                                                                                ",
"                .       .       . + @ # $ % & * = - ; > , ' ' ) ) ! ~ { > ] ^ / @               ",
"                                      + ( & _ : _ < % [ } | # 1 2 3 4 % 5 6 * * 7               ",
"                                  8 * 9 0 a b c d e f g , h 8             . . .                 ",
"                              + & i j k l m n o 9 p q r s f t _ 7       . . .                   ",
"                            u v w k x y ! z A B C D E E F G x H 9 h .   . . .                   ",
"                          $ I J K L ; M N M O I P Q e R D ] S T U A - +                         ",
"                        1 V W X ; { R Y Z ` T  ...+.@.#.$.%.&.* *.@.Q ; .                       ",
"                .     # D q  ._ S y W @.q j =.-.Z ;.=.>.Y =.-.D ,.'.U B ).                      ",
"                    7 M a !.= R ;.~.X @.c q c {.].;.^.=./.c (._.:.<.).X [.<                     ",
"                    / G }._ |.Q =.s 1.@.2.3.s 4.5.T 3.3./.6.7.8. .9.<.z W [.(                   ",
"                  u C W ,.0.W ].c @.@.3.3.@.>.b ` }.a.3.@.T +.b.|.p w c.P G S .                 ",
"                  c.a.B d.e.7./.L d 3.3.3.f.Q -.F :.c 3.3.3._.Z 7.]./.g.d.Y -.1                 ",
"                . &.a.; ) C j q W a 2.3.3.h.c 5.].Y q 3.3.3.i.b.e 6.c G 3 O W d.                ",
"                7 w a : p O 5.b +.3.3.3.3.@.^.m O W 3.3.3.3.^.b $.s _.%.,.D s {                 ",
"                [ Z  .{ b m -.b.=.3.3.3.J Z d 4.:.h.Y i.3.3.3.@.@.U e j.! - X t .               ",
"                k.7.0.g.q d 8.=.3.3.3.@.P { *.e i.B ~ L 3.3.3.3.3.8.a #.j.5 a l.m.              ",
"                <.c S  .$.G U @.8.1.3.@.e 9.z P [.&.M e 3.3.Y _.s U U ~.-.k.n.H @               ",
"                n J ) A 7.1.#.b.}.b @.+.W i.o.e.g ~.1.=.@.@.m j ....8.b i 3 !.H p.              ",
"                o b ; E o.o.w  .w a =.+.s 1.%.H 0 %.q ^.=.@.6.:.b (.F w -./ Q 0 (               ",
"                0.b.,.C c d X X f -.;.2.+.q b n.(.b /.T =.T G !./.f.i.;.7.; w p 2               ",
"              . ` ..{ m q.].d e r.q W @.+.X a Q P G X T @.T 8.H ..@.7.5.4.d.Q Q (               ",
"              + r.q.! $.d 5.5.s X U T 2.^._.8.#.5.X /.T @.=.=.>.;.d Y J ]._ B j (               ",
"              8 }.b.! 4.q _.h.^.@.h.Z O q q 8.a._.s Y U f b Y U T 4.!.B j e.Q m (               ",
"              @ m %.D n.8.^.3.3.>.(.5.n.*._.h.f.q.1._.O p ~.o.e 3.=.T W d 0.p ..(               ",
"              } 6.b *.|.$.b /.@.7.1.#.q ~...8.d i.q $.N 1.Y J q h.U m $.Z {.f e $               ",
"              @ Z ;.B v p ..b.U o.q 5.f.P 1.8.X q 1.7.v !.7.5.i.~.;.$.q.y e.r.h.3               ",
"              7 f.h.j g.s.0 #.(.0 b ..i 0.h.;._.q 1.c o , *.!.f.n.(.~.j ' L 4.q t.              ",
"              8 q.G o.B @ 1 6 p.2 z ! ] u.(.W X _.c 0 ' ).5 - B 9 5 ( u * r.}.G (               ",
"              m.4.l X P 5 [ 5 t.# ( < z <.&.n.J G }.E u.).: | 3 $ 8 m.m.<.-.e ~.7               ",
"              3 a.v.x O i ' t E | D ~ ).] ] u.~ ! ] ] ] ! ^ * 7 [ / w.* F #.x.1.#               ",
"              ; 3.y.j P 9 > ; z.^ {.E 9 &.N <.- u.,.z > z.; N h ,.~ , v N A.e 2.).              ",
"              ) 8.a.(. .i ] 9 F >.Q g.i 9.z *., ^ ] M n I t [.N r.z M e.Q {.P d )               ",
"              o X s #.j.|.S Q d B.o.8.:.H O [.I n e.l.w  .*.[.Q C.*.S *.[.j.m >.o               ",
"              R q $.6.0 R g y 7.D.C !.P l.l. .A R :.R F F R 9.4.E.A l.e.C w H f.V               ",
"                                                                                                ",
"                                                                                                ",
"                                                                                                ",
"                                                                                                ",
"                                                                                                ",
"                                                                                                ",
"                                                                                                "};
