/* Created with The GIMP */
#define grid_width 50
#define grid_height 50
static char grid_bits[] = {
   0x00, 0x00, 0x00, 0x00, 0x00, 0x00, 0x00, 0x00, 0x00, 0x00, 0x00, 0x00,
   0x00, 0x00, 0x00, 0x06, 0x18, 0x60, 0x80, 0x01, 0x00, 0x00, 0x06, 0x18,
   0x60, 0x80, 0x01, 0x00, 0x00, 0x06, 0x18, 0x60, 0x80, 0x01, 0x00, 0x00,
   0x06, 0x18, 0x60, 0x80, 0x01, 0x00, 0x00, 0x06, 0x18, 0x60, 0x80, 0x01,
   0x00, 0x00, 0x06, 0x18, 0x60, 0x80, 0x01, 0x00, 0x00, 0x06, 0x18, 0x60,
   0x80, 0x01, 0x00, 0xfc, 0xff, 0xff, 0xff, 0xff, 0xff, 0x00, 0xfc, 0xff,
   0xff, 0xff, 0xff, 0xff, 0x00, 0x00, 0x06, 0x18, 0x60, 0x80, 0x01, 0x00,
   0x00, 0x06, 0x18, 0x60, 0x80, 0x01, 0x00, 0x00, 0x06, 0x18, 0x60, 0x80,
   0x01, 0x00, 0x00, 0x06, 0x18, 0x60, 0x80, 0x01, 0x00, 0x00, 0x06, 0x18,
   0x60, 0x80, 0x01, 0x00, 0x00, 0x06, 0x18, 0x60, 0x80, 0x01, 0x00, 0x00,
   0x06, 0x18, 0x60, 0x80, 0x01, 0x00, 0x00, 0x06, 0x18, 0x60, 0x80, 0x01,
   0x00, 0xfc, 0xff, 0xff, 0xff, 0xff, 0xff, 0x00, 0xfc, 0xff, 0xff, 0xff,
   0xff, 0xff, 0x00, 0x00, 0x06, 0x18, 0x60, 0x80, 0x01, 0x00, 0x00, 0x06,
   0x18, 0x60, 0x80, 0x01, 0x00, 0x00, 0x06, 0x18, 0x60, 0x80, 0x01, 0x00,
   0x00, 0x06, 0x18, 0x60, 0x80, 0x01, 0x00, 0x00, 0x06, 0x18, 0x60, 0x80,
   0x01, 0x00, 0x00, 0x06, 0x18, 0x60, 0x80, 0x01, 0x00, 0x00, 0x06, 0x18,
   0x60, 0x80, 0x01, 0x00, 0x00, 0x06, 0x18, 0x60, 0x80, 0x01, 0x00, 0xfc,
   0xff, 0xff, 0xff, 0xff, 0xff, 0x00, 0xfc, 0xff, 0xff, 0xff, 0xff, 0xff,
   0x00, 0x00, 0x06, 0x18, 0x60, 0x80, 0x01, 0x00, 0x00, 0x06, 0x18, 0x60,
   0x80, 0x01, 0x00, 0x00, 0x06, 0x18, 0x60, 0x80, 0x01, 0x00, 0x00, 0x06,
   0x18, 0x60, 0x80, 0x01, 0x00, 0x00, 0x06, 0x18, 0x60, 0x80, 0x01, 0x00,
   0x00, 0x06, 0x18, 0x60, 0x80, 0x01, 0x00, 0x00, 0x06, 0x18, 0x60, 0x80,
   0x01, 0x00, 0x00, 0x06, 0x18, 0x60, 0x80, 0x01, 0x00, 0xfc, 0xff, 0xff,
   0xff, 0xff, 0xff, 0x00, 0xfc, 0xff, 0xff, 0xff, 0xff, 0xff, 0x00, 0x00,
   0x06, 0x18, 0x60, 0x80, 0x01, 0x00, 0x00, 0x06, 0x18, 0x60, 0x80, 0x01,
   0x00, 0x00, 0x06, 0x18, 0x60, 0x80, 0x01, 0x00, 0x00, 0x06, 0x18, 0x60,
   0x80, 0x01, 0x00, 0x00, 0x06, 0x18, 0x60, 0x80, 0x01, 0x00, 0x00, 0x06,
   0x18, 0x60, 0x80, 0x01, 0x00, 0x00, 0x06, 0x18, 0x60, 0x80, 0x01, 0x00,
   0x00, 0x00, 0x00, 0x00, 0x00, 0x00, 0x00, 0x00, 0x00, 0x00, 0x00, 0x00,
   0x00, 0x00 };
