/* XPM */
static const char *player_play_xpm[] = {
"22 22 181 2",
"  	c None",
". 	c #06379C",
"+ 	c #083098",
"@ 	c #284FA7",
"# 	c #A7BBDE",
"$ 	c #3F61B0",
"% 	c #002491",
"& 	c #244BA7",
"* 	c #E2ECF8",
"= 	c #F6FDFF",
"- 	c #90ABD8",
"; 	c #2046A5",
"> 	c #002391",
", 	c #1E48A6",
"' 	c #CAE1F6",
") 	c #E3F5FF",
"! 	c #E7F9FF",
"~ 	c #D3E7F6",
"{ 	c #7093CE",
"] 	c #0F3B9E",
"^ 	c #002691",
"/ 	c #1A46A6",
"( 	c #BCDAF6",
"_ 	c #B9DFFF",
": 	c #A5D1FF",
"< 	c #BBDFFF",
"[ 	c #D2EFFF",
"} 	c #B3D2F1",
"| 	c #4F78C2",
"1 	c #052F98",
"2 	c #002791",
"3 	c #1845A6",
"4 	c #AAD0F6",
"5 	c #A0D2FF",
"6 	c #8EC6FF",
"7 	c #8FC6FF",
"8 	c #A3D4FF",
"9 	c #BAE3FF",
"0 	c #90B9EA",
"a 	c #3765B9",
"b 	c #002B95",
"c 	c #1544A6",
"d 	c #98C8F6",
"e 	c #86C6FF",
"f 	c #77BBFF",
"g 	c #7ABCFF",
"h 	c #76BBFF",
"i 	c #78BBFF",
"j 	c #8FCBFF",
"k 	c #A1D5FF",
"l 	c #73A5E3",
"m 	c #2255B0",
"n 	c #002994",
"o 	c #1242A6",
"p 	c #85BFF6",
"q 	c #6EBAFF",
"r 	c #60B0FF",
"s 	c #62B1FF",
"t 	c #62B0FF",
"u 	c #60AFFF",
"v 	c #7AC1FF",
"w 	c #87C6FD",
"x 	c #548DD9",
"y 	c #1244A7",
"z 	c #002A91",
"A 	c #0F42A6",
"B 	c #70B4F6",
"C 	c #54ACFF",
"D 	c #48A4FF",
"E 	c #4AA5FF",
"F 	c #45A1FF",
"G 	c #49A5FF",
"H 	c #63B7FF",
"I 	c #6BB4FA",
"J 	c #3978CF",
"K 	c #07399F",
"L 	c #002A92",
"M 	c #0D40A6",
"N 	c #5DAAF6",
"O 	c #3DA1FF",
"P 	c #3499FF",
"Q 	c #369AFF",
"R 	c #359AFF",
"S 	c #3299FF",
"T 	c #399EFF",
"U 	c #51AFFF",
"V 	c #4EA1F3",
"W 	c #2163C3",
"X 	c #023299",
"Y 	c #002A90",
"Z 	c #0D41A6",
"` 	c #57A6F6",
" .	c #3298FF",
"..	c #3399FF",
"+.	c #2E96FF",
"@.	c #389EFF",
"#.	c #47A9FF",
"$.	c #3591F0",
"%.	c #1459BF",
"&.	c #013298",
"*.	c #53A4F6",
"=.	c #3398FF",
"-.	c #329AFF",
";.	c #35A0FF",
">.	c #3195F5",
",.	c #1860C5",
"'.	c #0E41A6",
").	c #4FA3F6",
"!.	c #379DFF",
"~.	c #3498FF",
"{.	c #359BFF",
"].	c #37A1FF",
"^.	c #3197F8",
"/.	c #1B68CC",
"(.	c #05389F",
"_.	c #53A6F6",
":.	c #40A4FF",
"<.	c #3C9EFF",
"[.	c #3D9FFF",
"}.	c #3D9EFF",
"|.	c #42A7FF",
"1.	c #3DA1FC",
"2.	c #2576D7",
"3.	c #073FA5",
"4.	c #002C92",
"5.	c #1142A6",
"6.	c #5DADF6",
"7.	c #4FAEFF",
"8.	c #4BA8FF",
"9.	c #4CA9FF",
"0.	c #4DAAFF",
"a.	c #51B1FF",
"b.	c #51B2FF",
"c.	c #3588E0",
"d.	c #104AAD",
"e.	c #1244A6",
"f.	c #66B4F6",
"g.	c #5EB8FF",
"h.	c #59B2FF",
"i.	c #5AB3FF",
"j.	c #5FBAFF",
"k.	c #61BEFF",
"l.	c #489BEA",
"m.	c #1B59B8",
"n.	c #012F96",
"o.	c #6EBAF6",
"p.	c #6DC2FF",
"q.	c #68BDFF",
"r.	c #6CC1FF",
"s.	c #73C9FF",
"t.	c #5AABF0",
"u.	c #2767C0",
"v.	c #1345A6",
"w.	c #73C0F6",
"x.	c #7CCBFF",
"y.	c #76C4FF",
"z.	c #7BC9FF",
"A.	c #82D3FF",
"B.	c #71BFF8",
"C.	c #3A7ACA",
"D.	c #08379D",
"E.	c #002890",
"F.	c #1547A6",
"G.	c #7DC7F6",
"H.	c #8CD7FF",
"I.	c #8FDBFF",
"J.	c #85D1FB",
"K.	c #5091D8",
"L.	c #1042A4",
"M.	c #1848A7",
"N.	c #96DCF8",
"O.	c #A0E8FF",
"P.	c #65A7DF",
"Q.	c #1B4EAB",
"R.	c #002793",
"S.	c #1C4CA8",
"T.	c #78B7E5",
"U.	c #3468B9",
"V.	c #05379C",
"W.	c #07349A",
"X.	c #002892",
"  . +                                       ",
"  @ # $ %                                   ",
"  & * = - ; >                               ",
"  , ' ) ! ~ { ] ^                           ",
"  / ( _ : < [ } | 1 2                       ",
"  3 4 5 6 7 7 8 9 0 a b                     ",
"  c d e f g g h i j k l m n                 ",
"  o p q r s s s t u s v w x y z             ",
"  A B C D E E E E E E F G H I J K L         ",
"  M N O P Q Q Q Q Q Q Q R S T U V W X Y     ",
"  Z ` T  .P P P P P P P .... .+.@.#.$.%.&.  ",
"  Z *.@.=.P P P P P P P ........-.;.>.,.&.  ",
"  '.).!.=.P P P P P P P ~.=.{.].^./.(.Y     ",
"  A _.:.<.[.[.[.[.[.[.}.[.|.1.2.3.4.        ",
"  5.6.7.8.9.9.9.9.9.0.a.b.c.d.4.            ",
"  e.f.g.h.i.i.i.i.j.k.l.m.n.                ",
"  e.o.p.q.q.q.r.s.t.u.X L                   ",
"  v.w.x.y.z.A.B.C.D.E.                      ",
"  F.G.H.I.J.K.L.2                           ",
"  M.N.O.P.Q.R.                              ",
"  S.T.U.n                                   ",
"  V.W.X.                                    "};
