/* XPM */
static const char *undo_xpm[] = {
"48 48 272 2",
"  	c None",
". 	c #3A3333",
"+ 	c #3D2F2F",
"@ 	c #5D0909",
"# 	c #6F0606",
"$ 	c #452626",
"% 	c #6C0A0A",
"& 	c #C54E4E",
"* 	c #B23636",
"= 	c #501919",
"- 	c #790E0E",
"; 	c #E2B4B4",
"> 	c #FFB6B6",
", 	c #5B0C0C",
"' 	c #953535",
") 	c #F5DDDD",
"! 	c #FFFFFF",
"~ 	c #422828",
"{ 	c #600606",
"] 	c #BC6B6B",
"^ 	c #FFF2F2",
"/ 	c #FFFBFB",
"( 	c #FFB4B4",
"_ 	c #4D1C1C",
": 	c #6F0707",
"< 	c #E2A7A7",
"[ 	c #FFF3F3",
"} 	c #FFB0B0",
"| 	c #580F0F",
"1 	c #8C2626",
"2 	c #F5C8C8",
"3 	c #FFECEC",
"4 	c #FFEBEB",
"5 	c #FFEAEA",
"6 	c #FFACAC",
"7 	c #302A2A",
"8 	c #B25959",
"9 	c #FFDEDE",
"0 	c #FFE5E5",
"a 	c #FFE4E4",
"b 	c #FFE3E3",
"c 	c #FFE2E2",
"d 	c #FFA8A8",
"e 	c #521616",
"f 	c #4A1F1F",
"g 	c #6C0B0B",
"h 	c #D89090",
"i 	c #FFDDDD",
"j 	c #FFDCDC",
"k 	c #FFDBDB",
"l 	c #FFDADA",
"m 	c #FFD9D9",
"n 	c #FFD8D8",
"o 	c #E2AFAF",
"p 	c #C58585",
"q 	c #9F4848",
"r 	c #6F0D0D",
"s 	c #472323",
"t 	c #551313",
"u 	c #821E1E",
"v 	c #EBB3B3",
"w 	c #FFD7D7",
"x 	c #FFD6D6",
"y 	c #FFD5D5",
"z 	c #FFD4D4",
"A 	c #FFD3D3",
"B 	c #FFD2D2",
"C 	c #FFD1D1",
"D 	c #FFD0D0",
"E 	c #FFCFCF",
"F 	c #FFCECE",
"G 	c #FFCDCD",
"H 	c #CF8484",
"I 	c #8C2B2B",
"J 	c #3F2C2C",
"K 	c #A84A4A",
"L 	c #FFC9C9",
"M 	c #FFCCCC",
"N 	c #FFCBCB",
"O 	c #FFCACA",
"P 	c #FFC8C8",
"Q 	c #FFC7C7",
"R 	c #FFC6C6",
"S 	c #FFC5C5",
"T 	c #FFC4C4",
"U 	c #FFC3C3",
"V 	c #FFC2C2",
"W 	c #8C2222",
"X 	c #6C0C0C",
"Y 	c #CF7D7D",
"Z 	c #FFC1C1",
"` 	c #FFC0C0",
" .	c #FFBFBF",
"..	c #FFBEBE",
"+.	c #FFBDBD",
"@.	c #FFBCBC",
"#.	c #FFBABA",
"$.	c #FFB8B8",
"%.	c #FFB7B7",
"&.	c #CF6969",
"*.	c #6F0505",
"=.	c #E29C9C",
"-.	c #FFBBBB",
";.	c #FFB9B9",
">.	c #FFB5B5",
",.	c #FFB3B3",
"'.	c #FFB2B2",
").	c #FFAFAF",
"!.	c #FFAEAE",
"~.	c #FFADAD",
"{.	c #FFABAB",
"].	c #F59494",
"^.	c #8C1919",
"/.	c #3C2F2F",
"(.	c #9F3D3D",
"_.	c #F5B1B1",
":.	c #FFB1B1",
"<.	c #FFAAAA",
"[.	c #FFA9A9",
"}.	c #FFA6A6",
"|.	c #FFA5A5",
"1.	c #FFA3A3",
"2.	c #FFA2A2",
"3.	c #FFA1A1",
"4.	c #FF9A9A",
"5.	c #9F2B2B",
"6.	c #BC6F6F",
"7.	c #FFA4A4",
"8.	c #FFA0A0",
"9.	c #FF9E9E",
"0.	c #FF9D9D",
"a.	c #FF9B9B",
"b.	c #FF9898",
"c.	c #FF9797",
"d.	c #FF9696",
"e.	c #FF8F8F",
"f.	c #C53C3C",
"g.	c #6F0C0C",
"h.	c #D89999",
"i.	c #FFA7A7",
"j.	c #FF9F9F",
"k.	c #FF9C9C",
"l.	c #FF9595",
"m.	c #FF9393",
"n.	c #FF9292",
"o.	c #FF9090",
"p.	c #FF8E8E",
"q.	c #FF8D8D",
"r.	c #FF8B8B",
"s.	c #FF8989",
"t.	c #FF8484",
"u.	c #A82B2B",
"v.	c #373131",
"w.	c #412828",
"x.	c #BC7272",
"y.	c #FF8C8C",
"z.	c #FF9999",
"A.	c #FF9191",
"B.	c #FF8A8A",
"C.	c #FF8888",
"D.	c #FF8686",
"E.	c #FF8585",
"F.	c #FF8383",
"G.	c #FF8181",
"H.	c #FF7F7F",
"I.	c #FF7D7D",
"J.	c #FF7272",
"K.	c #9F1A1A",
"L.	c #352F2F",
"M.	c #3B2D2D",
"N.	c #953F3F",
"O.	c #F5BFBF",
"P.	c #FF8787",
"Q.	c #FF9494",
"R.	c #FF7B7B",
"S.	c #FF7575",
"T.	c #FF6E6E",
"U.	c #FF6363",
"V.	c #FF5959",
"W.	c #FF4E4E",
"X.	c #F54242",
"Y.	c #820C0C",
"Z.	c #791919",
"`.	c #E2A5A5",
" +	c #FF8282",
".+	c #FF8080",
"++	c #FF7878",
"@+	c #FF7676",
"#+	c #FF7373",
"$+	c #FF7070",
"%+	c #FF6C6C",
"&+	c #FF6969",
"*+	c #FF6767",
"=+	c #FF6464",
"-+	c #FF6262",
";+	c #FF5555",
">+	c #FF5353",
",+	c #FF5050",
"'+	c #FF4B4B",
")+	c #FF4949",
"!+	c #FF4747",
"~+	c #E23737",
"{+	c #630303",
"]+	c #3B2E2E",
"^+	c #C57F7F",
"/+	c #FF7171",
"(+	c #FF5F5F",
"_+	c #FF5D5D",
":+	c #FF5A5A",
"<+	c #FF5858",
"[+	c #FF4444",
"}+	c #B22121",
"|+	c #332D2D",
"1+	c #9F4C4C",
"2+	c #FF6161",
"3+	c #F53D3D",
"4+	c #790808",
"5+	c #383131",
"6+	c #822626",
"7+	c #D87575",
"8+	c #B26666",
"9+	c #FF4141",
"0+	c #C52727",
"a+	c #312B2B",
"b+	c #6C0F0F",
"c+	c #FF3F3F",
"d+	c #790707",
"e+	c #3F2B2B",
"f+	c #A85959",
"g+	c #2E2828",
"h+	c #352E2E",
"i+	c #C52626",
"j+	c #2F2929",
"k+	c #373030",
"l+	c #EBB2B2",
"m+	c #392B2B",
"n+	c #FF5151",
"o+	c #F53939",
"p+	c #6F0303",
"q+	c #362F2F",
"r+	c #CF8C8C",
"s+	c #FF7474",
"t+	c #3E2A2A",
"u+	c #FF3D3D",
"v+	c #9F1616",
"w+	c #B24848",
"x+	c #FF4C4C",
"y+	c #CF2828",
"z+	c #322C2C",
"A+	c #8C3333",
"B+	c #FF4A4A",
"C+	c #FF3A3A",
"D+	c #363030",
"E+	c #9F1515",
"F+	c #3A2D2D",
"G+	c #FF6B6B",
"H+	c #C52323",
"I+	c #2B2626",
"J+	c #FF4545",
"K+	c #EB3030",
"L+	c #FF3737",
"M+	c #8C0D0D",
"N+	c #B21B1B",
"O+	c #FF4040",
"P+	c #C52121",
"Q+	c #D82828",
"R+	c #EB2E2E",
"S+	c #FF4848",
"T+	c #660000",
"U+	c #790606",
"V+	c #402B2B",
"W+	c #422929",
"                                        . .                                                     ",
"                                      + @ # $                                                   ",
"                                    $ % & * =                                                   ",
"                                . = - ; > * =                                                   ",
"                              + , ' ) ! > * =                                                   ",
"                            ~ { ] ^ / / ( * =                                                   ",
"                        . _ : < [ [ [ [ } * =                                                   ",
"                      + | 1 2 3 4 4 4 5 6 * = 7                                                 ",
"                    ~ @ 8 9 0 a a b b c d * { e f + .                                           ",
"                . f g h 9 i i j j k l l m n o p q r | s .                                       ",
"              + t u v n w x x y z A B B C D E F F G H I { f .                                   ",
"            J @ K L B C D E F G M N O L P Q R R S T U V h W , ~                                 ",
"        . s X Y G M N O L P R S T U V Z `  ...+.@.#.#.$.%.> &.*._ .                             ",
"      . e u =.P R S T U Z `  ...+.-.#.;.$.%.>.( ,.'.} ).!.~.{.].^.t +                           ",
"    /.@ (._.U Z `  ...@.#.;.$.%.>.( '.:.} !.~.6 <.[.d }.|.1.2.3.4.5.@ +                         ",
"    | 6.:.7.%.-.;.$.%.>.,.'.:.).!.6 {.[.d }.7.1.2.8.9.0.a.4.b.c.d.e.f.@ +                       ",
"    f g.h.Z b.0.6 :.} !.6 <.[.i.}.7.2.3.j.0.k.4.b.c.l.m.n.o.p.q.r.s.t.u., v.                    ",
"      w.{ x.P 3.y.p.z.3.|.1.2.8.9.k.4.z.c.l.m.A.o.p.y.B.C.D.E.F.G.H.I.J.K.e L.                  ",
"        M., N.O.,.p.P.E.t.P.q.o.A.Q.n.o.p.y.B.s.P.t.F.G.H.I.R.S.T.U.V.W.X.Y.s                   ",
"          v.= Z.`.U Q.E. +.+I.R.++@+#+++S.J.$+T.%+&+*+=+-+V.;+>+,+W.'+)+!+~+{+]+                ",
"              $ {+^+M d  +.+I.R.++@+#+/+T.%+&+*+=+-+(+_+:+<+;+>+,+W.'+)+!+[+}+t |+              ",
"                ]+, 1+O.;.s.I.R.++@+#+/+T.( M M M :.k.D.2+<+;+>+,+W.'+)+!+[+3+4+w.              ",
"                  5+e 6+`.Q d.R.++@+#+/+T.7+8+8+8+h.O.M M i.#+>+,+W.'+)+!+[+9+0+, a+            ",
"                    L.s b+^+M d I.@+#+/+T.* t _ = | { 6+x.O.M ~.*+W.'+)+!+[+9+c+d+w.            ",
"                        e+@ f+M @.D.#+/+T.* = g+  g+h+w.e {+1+O.M Q.'+)+!+[+9+c+i+t j+          ",
"                          k+t 6+l+M 4./+T.* =             m+= b+x.M ,.n+!+[+9+c+o+p+]+          ",
"                            q+f b+r+M >.s+* =                 t+, N.O.-.(+[+9+c+u+v+f           ",
"                                w.@ 8+M R w+=                   L._ 6+O.U x+9+c+u+y+| z+        ",
"                                  M.t A+O.8+=                       f 6+O.'.B+c+u+C+p+]+        ",
"                                    D+_ g.A+f                         f 6+O.c.c+u+C+E+f         ",
"                                        w._ F+                          = N.M G+u+C+H+t I+      ",
"                                                                        . | x.U J+C+K+@ |+      ",
"                                                                          + b+l+q.C+L+p+F+      ",
"                                                                            f N.M x+L+M+$       ",
"                                                                            . @ h.l.L+N+_       ",
"                                                                              $ A+V O+P+=       ",
"                                                                              . @ `.++Q+, 7     ",
"                                                                                f 1+} R+, 7     ",
"                                                                                . {+O.S+T+q+    ",
"                                                                                  t ^+@+T+q+    ",
"                                                                                  s N.}.U+q+    ",
"                                                                                  . {+O.M+t+    ",
"                                                                                    t r+A+$     ",
"                                                                                    f f+A+$     ",
"                                                                                    V+6+A+$     ",
"                                                                                    . { g.w.    ",
"                                                                                      J W+I+    ",
"                                                                                                "};
