/* XPM */
static const char *cancel_xpm[] = {
"48 48 653 2",
"  	c None",
". 	c #7A1A1A",
"+ 	c #7B1A1A",
"@ 	c #8C0C0C",
"# 	c #8C0B0B",
"$ 	c #900E0E",
"% 	c #7D1B1B",
"& 	c #8A2727",
"* 	c #BE4D4D",
"= 	c #BE4949",
"- 	c #8B2323",
"; 	c #921313",
"> 	c #C04040",
", 	c #CB5151",
"' 	c #A32525",
") 	c #8F0A0A",
"! 	c #882828",
"~ 	c #DF6868",
"{ 	c #FF3333",
"] 	c #FE2D2D",
"^ 	c #D94F4F",
"/ 	c #861F1F",
"( 	c #911212",
"_ 	c #D44E4E",
": 	c #FD6161",
"< 	c #FB5C5C",
"[ 	c #EF7A7A",
"} 	c #A62929",
"| 	c #910808",
"1 	c #842525",
"2 	c #DF7070",
"3 	c #FD2A2A",
"4 	c #F33838",
"5 	c #F13737",
"6 	c #F92121",
"7 	c #D94B4B",
"8 	c #881D1D",
"9 	c #8E0F0F",
"0 	c #D04444",
"a 	c #FA5353",
"b 	c #F05A5A",
"c 	c #F47C7C",
"d 	c #F95A5A",
"e 	c #F08282",
"f 	c #A32222",
"g 	c #920606",
"h 	c #D67070",
"i 	c #F63535",
"j 	c #FEE7E7",
"k 	c #FEE9E9",
"l 	c #EF3636",
"m 	c #F81D1D",
"n 	c #DA4343",
"o 	c #8A1D1D",
"p 	c #8F1010",
"q 	c #CD3C3C",
"r 	c #F84A4A",
"s 	c #ED5050",
"t 	c #FCD4D4",
"u 	c #FFF8F8",
"v 	c #F68686",
"w 	c #FA6060",
"x 	c #EB8585",
"y 	c #A42323",
"z 	c #940505",
"A 	c #7D1A1A",
"B 	c #882A2A",
"C 	c #DF7F7F",
"D 	c #FF3131",
"E 	c #F84444",
"F 	c #FEE1E1",
"G 	c #FFEEEE",
"H 	c #FFEFEF",
"I 	c #FDD9D9",
"J 	c #ED3838",
"K 	c #F41414",
"L 	c #E13E3E",
"M 	c #8F1C1C",
"N 	c #861717",
"O 	c #901111",
"P 	c #D53A3A",
"Q 	c #F63F3F",
"R 	c #EC5252",
"S 	c #FCD3D3",
"T 	c #FFF0F0",
"U 	c #FFEAEA",
"V 	c #FFECEC",
"W 	c #F99292",
"X 	c #FD6969",
"Y 	c #F09494",
"Z 	c #AA2B2B",
"` 	c #950303",
" .	c #892A2A",
"..	c #DF8484",
"+.	c #FF3838",
"@.	c #FA2F2F",
"#.	c #FFDADA",
"$.	c #FFE8E8",
"%.	c #FFDFDF",
"&.	c #FFE9E9",
"*.	c #FDD4D4",
"=.	c #EB3636",
"-.	c #F31010",
";.	c #E23737",
">.	c #901B1B",
",.	c #901212",
"'.	c #D53434",
").	c #F63737",
"!.	c #E84242",
"~.	c #FAC5C5",
"{.	c #FFE3E3",
"].	c #FFE4E4",
"^.	c #FA8686",
"/.	c #FE6F6F",
"(.	c #F19F9F",
"_.	c #AA2A2A",
":.	c #980505",
"<.	c #7A1717",
"[.	c #BE6868",
"}.	c #FF4B4B",
"|.	c #FC2C2C",
"1.	c #FFD0D0",
"2.	c #FFD7D7",
"3.	c #FFD8D8",
"4.	c #FFE1E1",
"5.	c #FDCDCD",
"6.	c #E93535",
"7.	c #F00D0D",
"8.	c #E22F2F",
"9.	c #8E1818",
"0.	c #8F1111",
"a.	c #D52D2D",
"b.	c #F52F2F",
"c.	c #E53D3D",
"d.	c #FABDBD",
"e.	c #FFDBDB",
"f.	c #FFDCDC",
"g.	c #FB8787",
"h.	c #FF7D7D",
"i.	c #E08989",
"j.	c #9A0909",
"k.	c #7B1616",
"l.	c #BF6969",
"m.	c #FF4E4E",
"n.	c #FC2A2A",
"o.	c #FFCBCB",
"p.	c #FFD1D1",
"q.	c #FFD9D9",
"r.	c #FDC6C6",
"s.	c #E73232",
"t.	c #EE0808",
"u.	c #DC2727",
"v.	c #8F1717",
"w.	c #8E1111",
"x.	c #CD2424",
"y.	c #F22525",
"z.	c #E33737",
"A.	c #FAB6B6",
"B.	c #FFD3D3",
"C.	c #FFD5D5",
"D.	c #FC8585",
"E.	c #FF8080",
"F.	c #E08A8A",
"G.	c #9B0808",
"H.	c #8B2828",
"I.	c #D97B7B",
"J.	c #FF4141",
"K.	c #F92929",
"L.	c #FEBCBC",
"M.	c #FFC8C8",
"N.	c #FFC9C9",
"O.	c #FCBEBE",
"P.	c #E63A3A",
"Q.	c #EE0909",
"R.	c #DD1E1E",
"S.	c #951616",
"T.	c #8B1414",
"U.	c #D11E1E",
"V.	c #F21D1D",
"W.	c #E33B3B",
"X.	c #F9B0B0",
"Y.	c #FA7C7C",
"Z.	c #FE7676",
"`.	c #EC9696",
" +	c #AA2727",
".+	c #9A0404",
"++	c #862121",
"@+	c #FF3D3D",
"#+	c #F72B2B",
"$+	c #FEB6B6",
"%+	c #FFC1C1",
"&+	c #FEBDBD",
"*+	c #E12F2F",
"=+	c #EC0404",
"-+	c #E21818",
";+	c #961515",
">+	c #8D1313",
",+	c #8F1313",
"'+	c #D51818",
")+	c #F11313",
"!+	c #DF2D2D",
"~+	c #FAAFAF",
"{+	c #FFCACA",
"]+	c #FFC4C4",
"^+	c #FFC2C2",
"/+	c #F87979",
"(+	c #FE6E6E",
"_+	c #EC9090",
":+	c #A71F1F",
"<+	c #990101",
"[+	c #881F1F",
"}+	c #D97272",
"|+	c #FE2E2E",
"1+	c #F52929",
"2+	c #FEAFAF",
"3+	c #FFC0C0",
"4+	c #FFB9B9",
"5+	c #FFBFBF",
"6+	c #FCB1B1",
"7+	c #E02D2D",
"8+	c #EA0101",
"9+	c #E31010",
"0+	c #961313",
"a+	c #8E1212",
"b+	c #D51212",
"c+	c #EF0B0B",
"d+	c #DC2626",
"e+	c #F89F9F",
"f+	c #FFBCBC",
"g+	c #FFBBBB",
"h+	c #F77272",
"i+	c #FA6161",
"j+	c #ED8686",
"k+	c #A71E1E",
"l+	c #990202",
"m+	c #8A1F1F",
"n+	c #E16F6F",
"o+	c #FD2B2B",
"p+	c #F32828",
"q+	c #FEA8A8",
"r+	c #FFB8B8",
"s+	c #FFB2B2",
"t+	c #FCAAAA",
"u+	c #DE2C2C",
"v+	c #E80000",
"w+	c #DB0A0A",
"x+	c #D40B0B",
"y+	c #ED0303",
"z+	c #DA2121",
"A+	c #F89999",
"B+	c #FFB5B5",
"C+	c #FFB3B3",
"D+	c #F56D6D",
"E+	c #F18383",
"F+	c #A81E1E",
"G+	c #8E2121",
"H+	c #E26969",
"I+	c #FB2828",
"J+	c #F12626",
"K+	c #FEA1A1",
"L+	c #FFB0B0",
"M+	c #FFAAAA",
"N+	c #FFB1B1",
"O+	c #FCA3A3",
"P+	c #DB2B2B",
"Q+	c #E50000",
"R+	c #EB0000",
"S+	c #D71C1C",
"T+	c #F79292",
"U+	c #FFADAD",
"V+	c #FFABAB",
"W+	c #F36767",
"X+	c #F65353",
"Y+	c #F17B7B",
"Z+	c #AC2424",
"`+	c #861515",
" @	c #902020",
".@	c #E26161",
"+@	c #F82323",
"@@	c #F12C2C",
"#@	c #FE9F9F",
"$@	c #FFA7A7",
"%@	c #FFA3A3",
"&@	c #FFA9A9",
"*@	c #FC9C9C",
"=@	c #DA2525",
"-@	c #D41515",
";@	c #F78A8A",
">@	c #FFA5A5",
",@	c #FEA3A3",
"'@	c #F26161",
")@	c #F44C4C",
"!@	c #F07171",
"~@	c #AC2222",
"{@	c #980202",
"]@	c #8E1B1B",
"^@	c #DB5656",
"/@	c #F82727",
"(@	c #ED2121",
"_@	c #FD9393",
":@	c #FF9F9F",
"<@	c #FF9A9A",
"[@	c #FF9B9B",
"}@	c #FFA0A0",
"|@	c #FB8D8D",
"1@	c #F98888",
"2@	c #FFA1A1",
"3@	c #FF9C9C",
"4@	c #FF9D9D",
"5@	c #EF5757",
"6@	c #F34949",
"7@	c #EB6464",
"8@	c #A81A1A",
"9@	c #990303",
"0@	c #8E1A1A",
"a@	c #DD4C4C",
"b@	c #F72020",
"c@	c #EB2020",
"d@	c #FD8C8C",
"e@	c #FF9898",
"f@	c #FF9393",
"g@	c #FF9696",
"h@	c #FF9797",
"i@	c #FF9595",
"j@	c #ED5353",
"k@	c #F14242",
"l@	c #EC5C5C",
"m@	c #A81818",
"n@	c #990404",
"o@	c #941C1C",
"p@	c #E24949",
"q@	c #F41C1C",
"r@	c #E91F1F",
"s@	c #FD8585",
"t@	c #FF9090",
"u@	c #FF8B8B",
"v@	c #FF8C8C",
"w@	c #FF8D8D",
"x@	c #EC4E4E",
"y@	c #EE3838",
"z@	c #EC5151",
"A@	c #A81717",
"B@	c #990505",
"C@	c #8A1111",
"D@	c #961A1A",
"E@	c #E34242",
"F@	c #F21818",
"G@	c #E61D1D",
"H@	c #FD7E7E",
"I@	c #FF8888",
"J@	c #FF8484",
"K@	c #FF8686",
"L@	c #EA4848",
"M@	c #EC3030",
"N@	c #F14D4D",
"O@	c #AC1919",
"P@	c #8D1010",
"Q@	c #961717",
"R@	c #DC3737",
"S@	c #EE1717",
"T@	c #FC7575",
"U@	c #FF7C7C",
"V@	c #FF7E7E",
"W@	c #FE7D7D",
"X@	c #EA4242",
"Y@	c #EA2A2A",
"Z@	c #E93F3F",
"`@	c #AA1616",
" #	c #8F1212",
".#	c #D33535",
"+#	c #F42424",
"@#	c #DE0000",
"##	c #F55353",
"$#	c #FD7272",
"%#	c #FF7474",
"&#	c #FF7777",
"*#	c #FF7878",
"=#	c #FF7676",
"-#	c #FD7070",
";#	c #F76060",
">#	c #DF2222",
",#	c #EF3131",
"'#	c #E63E3E",
")#	c #A00D0D",
"!#	c #9A0606",
"~#	c #D53B3B",
"{#	c #F72929",
"]#	c #E00000",
"^#	c #DD0101",
"/#	c #DD0505",
"(#	c #DD0D0D",
"_#	c #E01D1D",
":#	c #E32828",
"<#	c #E32B2B",
"[#	c #E22D2D",
"}#	c #E22B2B",
"|#	c #DF2525",
"1#	c #DC1C1C",
"2#	c #DB1A1A",
"3#	c #DE2121",
"4#	c #F13C3C",
"5#	c #E74646",
"6#	c #A40F0F",
"7#	c #911313",
"8#	c #D54141",
"9#	c #F92F2F",
"0#	c #E30000",
"a#	c #DD0000",
"b#	c #DB0000",
"c#	c #D70000",
"d#	c #D40000",
"e#	c #D10000",
"f#	c #CD0000",
"g#	c #CC0000",
"h#	c #D00101",
"i#	c #D30909",
"j#	c #D71010",
"k#	c #DA1616",
"l#	c #DD1D1D",
"m#	c #DF2323",
"n#	c #E02626",
"o#	c #F54545",
"p#	c #A20A0A",
"q#	c #D04343",
"r#	c #FA3636",
"s#	c #D80000",
"t#	c #D60000",
"u#	c #D30000",
"v#	c #D00000",
"w#	c #CF0202",
"x#	c #D20707",
"y#	c #D50D0D",
"z#	c #D81212",
"A#	c #DA1717",
"B#	c #E02323",
"C#	c #E22828",
"D#	c #F64E4E",
"E#	c #E25151",
"F#	c #A30909",
"G#	c #CC4848",
"H#	c #FA3D3D",
"I#	c #E42D2D",
"J#	c #E63030",
"K#	c #F85858",
"L#	c #E25757",
"M#	c #A50A0A",
"N#	c #D45454",
"O#	c #FB4040",
"P#	c #EB0101",
"Q#	c #E60000",
"R#	c #CF0000",
"S#	c #CD0202",
"T#	c #E52D2D",
"U#	c #E93636",
"V#	c #F85C5C",
"W#	c #E86666",
"X#	c #A80D0D",
"Y#	c #A20000",
"Z#	c #D55A5A",
"`#	c #FD4646",
" $	c #EE0101",
".$	c #EA0000",
"+$	c #E10000",
"@$	c #E50202",
"#$	c #D00707",
"$$	c #E73333",
"%$	c #EA3939",
"&$	c #EC3A3A",
"*$	c #FA6464",
"=$	c #E96E6E",
"-$	c #AA0D0D",
";$	c #D46060",
">$	c #FE4B4B",
",$	c #F00000",
"'$	c #ED0000",
")$	c #E20303",
"!$	c #E80606",
"~$	c #E60707",
"{$	c #E80A0A",
"]$	c #D30D0D",
"^$	c #EC3E3E",
"/$	c #EE4040",
"($	c #FB6C6C",
"_$	c #E87676",
":$	c #A90909",
"<$	c #8D0E0E",
"[$	c #CC5E5E",
"}$	c #FF5050",
"|$	c #F30101",
"1$	c #EF0000",
"2$	c #E40606",
"3$	c #F00E0E",
"4$	c #AB0A0A",
"5$	c #A10909",
"6$	c #E60F0F",
"7$	c #EB1212",
"8$	c #D51111",
"9$	c #EF4343",
"0$	c #F14646",
"a$	c #FC7373",
"b$	c #E47575",
"c$	c #AA0808",
"d$	c #CF6767",
"e$	c #FF5959",
"f$	c #F60101",
"g$	c #F20000",
"h$	c #EB1515",
"i$	c #AC0C0C",
"j$	c #990909",
"k$	c #A50909",
"l$	c #E21515",
"m$	c #ED1B1B",
"n$	c #D91717",
"o$	c #EF4444",
"p$	c #F14949",
"q$	c #F34B4B",
"r$	c #FF8181",
"s$	c #E57D7D",
"t$	c #AE1010",
"u$	c #A70000",
"v$	c #921414",
"w$	c #D37171",
"x$	c #FF5D5D",
"y$	c #F90000",
"z$	c #F50000",
"A$	c #DC0000",
"B$	c #EA0E0E",
"C$	c #EB1E1E",
"D$	c #980909",
"E$	c #A20808",
"F$	c #E31D1D",
"G$	c #F02323",
"H$	c #DB1C1C",
"I$	c #F44E4E",
"J$	c #F64F4F",
"K$	c #E98C8C",
"L$	c #B01212",
"M$	c #8C0A0A",
"N$	c #BF5858",
"O$	c #FF6868",
"P$	c #FB0000",
"Q$	c #F70000",
"R$	c #EB2424",
"S$	c #A80E0E",
"T$	c #990808",
"U$	c #A40707",
"V$	c #E22424",
"W$	c #EE2A2A",
"X$	c #F65454",
"Y$	c #F95454",
"Z$	c #FF9191",
"`$	c #DD7777",
" %	c #A70101",
".%	c #8C0909",
"+%	c #CC6969",
"@%	c #FF4545",
"#%	c #FA0000",
"$%	c #EC1010",
"%%	c #EF2D2D",
"&%	c #A91010",
"*%	c #A50707",
"=%	c #E82E2E",
"-%	c #F03232",
";%	c #E12727",
">%	c #EA9090",
",%	c #A90303",
"'%	c #900D0D",
")%	c #A32B2B",
"!%	c #F08686",
"~%	c #FF2C2C",
"{%	c #E40000",
"]%	c #EE1313",
"^%	c #F13535",
"/%	c #AD1414",
"(%	c #980808",
"_%	c #A90808",
":%	c #F23A3A",
"<%	c #E32C2C",
"[%	c #F65050",
"}%	c #FAA6A6",
"|%	c #C13737",
"1%	c #900909",
"2%	c #A62E2E",
"3%	c #F08080",
"4%	c #FE2A2A",
"5%	c #F40000",
"6%	c #E70000",
"7%	c #F01616",
"8%	c #F03C3C",
"9%	c #AD1616",
"0%	c #980707",
"a%	c #A20202",
"b%	c #AA0707",
"c%	c #E93D3D",
"d%	c #F34242",
"e%	c #E63131",
"f%	c #FB6464",
"g%	c #F99C9C",
"h%	c #C23B3B",
"i%	c #A50000",
"j%	c #A22424",
"k%	c #EB7575",
"l%	c #FC2828",
"m%	c #E90000",
"n%	c #F41E1E",
"o%	c #EC4343",
"p%	c #A81414",
"q%	c #990606",
"r%	c #A90505",
"s%	c #E44040",
"t%	c #F64C4C",
"u%	c #F14545",
"v%	c #F79191",
"w%	c #BD2D2D",
"x%	c #A60000",
"y%	c #920707",
"z%	c #F17070",
"A%	c #FA2525",
"B%	c #EC0000",
"C%	c #F62020",
"D%	c #EC4B4B",
"E%	c #A81515",
"F%	c #AA0505",
"G%	c #E54949",
"H%	c #F85454",
"I%	c #EB3A3A",
"J%	c #F65656",
"K%	c #BD2A2A",
"L%	c #940707",
"M%	c #AA2525",
"N%	c #F16969",
"O%	c #EC4F4F",
"P%	c #A71616",
"Q%	c #AF0A0A",
"R%	c #EA5454",
"S%	c #FA5D5D",
"T%	c #F55555",
"U%	c #FA8080",
"V%	c #C23131",
"W%	c #950606",
"X%	c #AB2121",
"Y%	c #DE5353",
"Z%	c #DF4D4D",
"`%	c #AB1A1A",
" &	c #B00A0A",
".&	c #DD4B4B",
"+&	c #E76262",
"@&	c #C12828",
"#&	c #9A0A0A",
"$&	c #9B0909",
"%&	c #9A0707",
"&&	c #A80000",
"*&	c #AA0000",
"                                                                                                ",
"                                                                                                ",
"                                                                                                ",
"                                                                                                ",
"                      . +                                             @ # $                     ",
"                  % & * = -                                         ; > , ' )                   ",
"                  ! ~ { ] ^ /                                     ( _ : < [ } |                 ",
"                1 2 3 4 5 6 7 8                                 9 0 a b c d e f g               ",
"              1 h ] i j k l m n o                             p q r s t u v w x y z             ",
"          A B C D E F G H I J K L M N                       O P Q R S T U V W X Y Z `           ",
"           ...+.@.#.$.%.%.&.*.=.-.;.>.                    ,.'.).!.~.$.%.%.{.].^./.(._.:.        ",
"        <.[.}.|.1.%.2.3.3.2.4.5.6.7.8.9.                0.a.b.c.d.4.3.3.3.3.e.f.g.h.i.j.        ",
"        k.l.m.n.o.2.1.p.p.p.1.q.r.s.t.u.v.            w.x.y.z.A.#.1.p.p.p.1.B.C.D.E.F.G.        ",
"          H.I.J.K.L.1.M.N.N.N.M.p.O.P.Q.R.S.T.      ( U.V.W.X.p.M.N.N.N.M.o.N.Y.Z.`. +.+        ",
"            ++I.@+#+$+M.%+%+%+%+%+M.&+*+=+-+;+>+,+( '+)+!+~+{+%+%+%+%+%+]+^+/+(+_+:+<+          ",
"              [+}+|+1+2+3+4+4+4+4+4+5+6+7+8+9+0+a+b+c+d+e+%+4+4+4+4+4+f+g+h+i+j+k+l+            ",
"                m+n+o+p+q+r+s+s+s+s+s+r+t+u+v+w+x+y+z+A+g+s+s+s+s+s+B+C+D+d E+F+l+              ",
"                  G+H+I+J+K+L+M+M+M+M+M+N+O+P+Q+R+S+T+C+M+M+M+M+M+U+V+W+X+Y+Z+l+                ",
"                  `+ @.@+@@@#@$@%@%@%@%@%@&@*@=@-@;@V+%@%@%@%@%@>@,@'@)@!@~@{@                  ",
"                      ]@^@/@(@_@:@<@[@[@[@<@}@|@1@2@<@[@[@[@<@3@4@5@6@7@8@9@                    ",
"                        0@a@b@c@d@e@f@f@f@f@f@g@h@f@f@f@f@f@i@i@j@k@l@m@n@                      ",
"                          o@p@q@r@s@t@u@u@v@v@v@v@v@v@v@u@w@w@x@y@z@A@B@                        ",
"                          C@D@E@F@G@H@I@J@J@J@J@J@J@J@J@K@K@L@M@N@O@:.                          ",
"                            P@Q@R@S@G@T@E.h.h.U@U@h.h.V@W@X@Y@Z@`@B@                            ",
"                             #w..#+#@###$#%#&#*#*#=#%#-#;#>#,#'#)#!#                            ",
"                            ( ~#{#]#^#/#(#_#:#<#[#}#|#1#2#R.3#4#5#6#                            ",
"                          7#8#9#0#]#a#b#c#d#e#f#g#h#i#j#k#l#m#n#o#p@p#                          ",
"                        P@q#r#Q+0#]#a#b#s#t#u#v#w#x#y#z#A#l#B#C#<#D#E#F#                        ",
"                      0.G#H#v+Q+0#]#a#b#s#t#u#v#w#x#y#z#A#l#B#C#I#J#K#L#M#                      ",
"                    ,.N#O#P#v+Q#0#]#a#b#s#t#u#R#S#x#y#z#A#l#B#C#T#s.U#V#W#X#Y#                  ",
"                  O Z#`# $.$v+Q#0#]#a#b#s#t#v#+$@$#$y#z#A#l#B#C#T#$$%$&$*$=$-$                  ",
"                p ;$>$,$'$R+v+Q#0#]#a#b#s#u#)$!$~${$]$z#A#l#B#C#T#$$%$^$/$($_$:$                ",
"              <$[$}$|$1$'$R+v+Q#0#]#a#b#t#2$3$4$5$6$7$8$A#l#B#C#T#$$%$^$9$0$a$b$c$              ",
"            7#d$e$f$g$,$'$R+v+Q#0#]#a#s#{$h$i$j$j.k$l$m$n$l#B#C#T#$$%$^$o$p$q$r$s$t$u$          ",
"          v$w$x$y$z$g$,$'$R+v+Q#0#]#A$B$C$X#D$      E$F$G$H$>#C#T#$$%$^$o$p$I$J$I@K$L$          ",
"        M$N$O$P$Q$z$g$,$'$R+v+Q#0#@#B$R$S$T$          U$V$W$3#C#T#$$%$^$o$p$I$X$Y$Z$`$ %        ",
"        .%+%@%#%Q$z$g$,$'$R+v+Q#+$$%%%&%T$              *%=%-%;%I#$$%$^$o$p$I$X$Y$&#>%,%        ",
"        '%)%!%~%Q$z$g$,$'$R+v+{%]%^%/%(%                  _%U#:%<%$$%$^$o$p$I$[%X }%|%u$        ",
"          1%2%3%4%5%g$,$'$R+6%7%8%9%0%                    a%b%c%d%e%%$^$o$p$q$f%g%h%i%          ",
"            | j%k%l%g$,$'$m%n%o%p%q%                          r%s%t%U#^$o$u%V#v%w%x%            ",
"              y%f z%A%1$B%C%D%E%q%                              F%G%H%I%/$J%1@K%i%              ",
"                L%M%N%A%6 O%P%q%                                  Q%R%S%T%U%V%x%                ",
"                  W%X%Y%Z%`%B@                                    u$ &.&+&@&x%                  ",
"                    0%#&$&%&                                          &&*&u$                    ",
"                                                                                                ",
"                                                                                                ",
"                                                                                                ",
"                                                                                                "};
