/* XPM */
static const char *color_line_open_xpm[] = {
"48 48 267 2",
"  	c None",
". 	c #002A35",
"+ 	c #002D35",
"@ 	c #012F35",
"# 	c #116427",
"$ 	c #035328",
"% 	c #002A36",
"& 	c #3D831C",
"* 	c #3EC911",
"= 	c #0DAF12",
"- 	c #056C1E",
"; 	c #002E34",
"> 	c #002D34",
", 	c #3D8A1A",
"' 	c #78D904",
") 	c #56CB12",
"! 	c #17B71C",
"~ 	c #11B10D",
"{ 	c #056A1E",
"] 	c #002B35",
"^ 	c #003031",
"/ 	c #3D8B18",
"( 	c #76DB04",
"_ 	c #70D009",
": 	c #6ECE0B",
"< 	c #36C017",
"[ 	c #10B214",
"} 	c #0FAA0E",
"| 	c #02492A",
"1 	c #002F35",
"2 	c #03332F",
"3 	c #439314",
"4 	c #75DA02",
"5 	c #6FD007",
"6 	c #6BCD09",
"7 	c #6DCE08",
"8 	c #8DDA4B",
"9 	c #48C644",
"0 	c #10B813",
"a 	c #09801C",
"b 	c #03392B",
"c 	c #439313",
"d 	c #76DA00",
"e 	c #6CCE06",
"f 	c #69CD05",
"g 	c #91DA4B",
"h 	c #D0EFAD",
"i 	c #C7EDAC",
"j 	c #54D42D",
"k 	c #14841C",
"l 	c #033B29",
"m 	c #469B0F",
"n 	c #78DA00",
"o 	c #6FD004",
"p 	c #6CCE05",
"q 	c #6ACD04",
"r 	c #94DC4C",
"s 	c #CCEEAD",
"t 	c #D6F2BD",
"u 	c #A4E95D",
"v 	c #55A81F",
"w 	c #093831",
"x 	c #044025",
"y 	c #3F9A0D",
"z 	c #74D800",
"A 	c #6FCF03",
"B 	c #6CCF03",
"C 	c #6ACD02",
"D 	c #95DC4E",
"E 	c #CCEEAA",
"F 	c #D5F1BA",
"G 	c #A0E957",
"H 	c #489F18",
"I 	c #063630",
"J 	c #024124",
"K 	c #37980D",
"L 	c #69D300",
"M 	c #71D001",
"N 	c #6CCF01",
"O 	c #6BCE02",
"P 	c #94DC4A",
"Q 	c #CDEEAC",
"R 	c #D7F1BB",
"S 	c #A0E756",
"T 	c #49A114",
"U 	c #01332F",
"V 	c #034820",
"W 	c #31980B",
"X 	c #5CCC00",
"Y 	c #6ACD00",
"Z 	c #6ECF00",
"` 	c #6BCF02",
" .	c #97DC4F",
"..	c #CDEEAB",
"+.	c #D5F1B8",
"@.	c #9EE751",
"#.	c #449B13",
"$.	c #04362D",
"%.	c #099D00",
"&.	c #024A1E",
"*.	c #299609",
"=.	c #4EC500",
"-.	c #5FC700",
";.	c #6CCE00",
">.	c #97DC4B",
",.	c #CFEFAC",
"'.	c #D6F2B8",
").	c #9DE650",
"!.	c #439912",
"~.	c #01352C",
"{.	c #034D1B",
"].	c #209608",
"^.	c #41BF00",
"/.	c #51C000",
"(.	c #64CA00",
"_.	c #6DCE03",
":.	c #99DD4E",
"<.	c #D5F1B7",
"[.	c #9DE74C",
"}.	c #3E950F",
"|.	c #00382A",
"1.	c #015018",
"2.	c #189207",
"3.	c #33B700",
"4.	c #46BB00",
"5.	c #56C300",
"6.	c #6ACC03",
"7.	c #99DD4D",
"8.	c #D5F3B4",
"9.	c #9BE54B",
"0.	c #409510",
"a.	c #023927",
"b.	c #005316",
"c.	c #0E9106",
"d.	c #26B100",
"e.	c #39B400",
"f.	c #4BBE00",
"g.	c #5EC703",
"h.	c #9BDE50",
"i.	c #D5F2B4",
"j.	c #9AE545",
"k.	c #39900B",
"l.	c #003925",
"m.	c #004F14",
"n.	c #005812",
"o.	c #048E05",
"p.	c #17A900",
"q.	c #2CAE00",
"r.	c #3CB700",
"s.	c #53C104",
"t.	c #95DB50",
"u.	c #D1EFAD",
"v.	c #D4F2B0",
"w.	c #98E342",
"x.	c #388F0D",
"y.	c #003D23",
"z.	c #005A11",
"A.	c #008D04",
"B.	c #0BA300",
"C.	c #21A700",
"D.	c #31B100",
"E.	c #44BA02",
"F.	c #8ED750",
"G.	c #D6F3B3",
"H.	c #9AE443",
"I.	c #368E08",
"J.	c #003D20",
"K.	c #00550F",
"L.	c #005F0E",
"M.	c #009003",
"N.	c #019D00",
"O.	c #13A200",
"P.	c #24AA00",
"Q.	c #3AB604",
"R.	c #87D453",
"S.	c #CDEEAF",
"T.	c #D4F2AF",
"U.	c #96E23E",
"V.	c #338A09",
"W.	c #003F1E",
"X.	c #00580A",
"Y.	c #008B02",
"Z.	c #009E00",
"`.	c #079B00",
" +	c #17A400",
".+	c #2DAF03",
"++	c #7FD053",
"@+	c #C9ECAF",
"#+	c #D3F3AF",
"$+	c #97E23D",
"%+	c #308905",
"&+	c #00411C",
"*+	c #00570A",
"=+	c #157214",
"-+	c #079E03",
";+	c #009A00",
">+	c #22A905",
",+	c #78CC55",
"'+	c #C7EBB1",
")+	c #CFF1AE",
"!+	c #93DF38",
"~+	c #2E8705",
"{+	c #004319",
"]+	c #035908",
"^+	c #A4AF6F",
"/+	c #37A824",
"(+	c #009600",
"_+	c #15A306",
":+	c #70C855",
"<+	c #C1E9AF",
"[+	c #C9EEAC",
"}+	c #8CDC3B",
"|+	c #2D8604",
"1+	c #004718",
"2+	c #3C792B",
"3+	c #FFDFB7",
"4+	c #ABCA83",
"5+	c #079A06",
"6+	c #6FC85D",
"7+	c #C3E9B5",
"8+	c #C4ECAC",
"9+	c #7ED534",
"0+	c #248002",
"a+	c #004715",
"b+	c #055E04",
"c+	c #A3B274",
"d+	c #FCE3BD",
"e+	c #FCE9CF",
"f+	c #8DCB7C",
"g+	c #65C460",
"h+	c #B8E9A1",
"i+	c #74CE36",
"j+	c #1C7C02",
"k+	c #004C13",
"l+	c #156114",
"m+	c #D7CEA7",
"n+	c #FEEFCD",
"o+	c #FFF6E3",
"p+	c #FFFEF3",
"q+	c #A3D393",
"r+	c #319D23",
"s+	c #107102",
"t+	c #004E10",
"u+	c #089C00",
"v+	c #006600",
"w+	c #003E1A",
"x+	c #4E6365",
"y+	c #F2EDD7",
"z+	c #D5E0C1",
"A+	c #7CA671",
"B+	c #417B3B",
"C+	c #05580D",
"D+	c #00520C",
"E+	c #079100",
"F+	c #005D08",
"G+	c #00362F",
"H+	c #003B22",
"I+	c #2A7230",
"J+	c #166A15",
"K+	c #005300",
"L+	c #047F00",
"M+	c #005F08",
"N+	c #005C0B",
"O+	c #006401",
"P+	c #037D00",
"Q+	c #048100",
"R+	c #058600",
"                                                                                                ",
"                                                                                                ",
"                                                                                . +             ",
"                                                                              @ # $ +           ",
"                                                                            % & * = - ;         ",
"                                                                          > , ' ) ! ~ { ]       ",
"                                                                        ^ / ( _ : < [ } | 1     ",
"                                                                      2 3 4 5 6 7 8 9 0 a +     ",
"                                                                    b c d 5 e f g h i j k +     ",
"                                                                  l m n o p q r s t u v w       ",
"                                                                x y z A B C D E F G H I         ",
"                                                              J K L M N O P Q R S T U           ",
"                                                            V W X Y Z `  ...+.@.#.$.            ",
"  %.%.%.%.%.%.                                            &.*.=.-.;.N >.,.'.).!.~.              ",
"%.%.%.%.%.%.%.%.%.%.%.                                  {.].^./.(._.:.,.<.[.}.|.                ",
"%.%.%.%.%.%.%.%.%.%.%.%.%.                            1.2.3.4.5.6.7.,.8.9.0.a.                  ",
"  %.%.%.%.%.%.%.%.%.%.%.%.%.                        b.c.d.e.f.g.h.h i.j.k.l.                    ",
"                    %.%.%.%.%.                  m.n.o.p.q.r.s.t.u.v.w.x.y.                      ",
"                      %.%.%.%.%.                z.A.B.C.D.E.F.h G.H.I.J.                        ",
"                        %.%.%.%.            K.L.M.N.O.P.Q.R.S.T.U.V.W.                          ",
"                          %.%.%.%.          X.Y.Z.`. +.+++@+#+$+%+&+                            ",
"                          %.%.%.%.        *+=+-+;+%.>+,+'+)+!+~+{+                              ",
"                            %.%.%.        ]+^+/+(+_+:+<+[+}+|+1+                                ",
"                            %.%.%.%.      2+3+4+5+6+7+8+9+0+a+                                  ",
"                            %.%.%.%.    b+c+d+e+f+g+h+i+j+k+                                    ",
"                              %.%.%.%.  l+m+n+o+p+q+r+s+t+                                      ",
"                              %.%.%.u+v+w+x+y+z+A+B+C+D+                                        ",
"                              %.%.%.E+F+G+H+I+J+K+                                              ",
"                                %.%.L+M+N+O+                                                    ",
"                                %.%.P+Q+R+                                                      ",
"                                  %.%.%.%.                                                      ",
"                                  %.%.%.%.%.                                                    ",
"                                      %.%.%.%.                                                  ",
"                                      %.%.%.%.%.                                                ",
"                                      %.%.%.%.%.%.%.                                            ",
"                                          %.%.%.%.%.%.                                          ",
"                                            %.%.%.%.%.%.%.%.                                    ",
"                                              %.%.%.%.%.%.%.%.%.%.                              ",
"                                                    %.%.%.%.%.%.%.%.%.                          ",
"                                                      %.%.%.%.%.%.%.%.%.%.%.                    ",
"                                                            %.%.%.%.%.%.%.%.%.%.%.              ",
"                                                                  %.%.%.%.%.%.%.%.%.%.%.        ",
"                                                                        %.%.%.%.%.%.%.%.%.%.%.  ",
"                                                                            %.%.%.%.%.%.%.%.%.%.",
"                                                                                    %.%.%.%.%.%.",
"                                                                                                ",
"                                                                                                ",
"                                                                                                "};
