/* XPM */
static const char *fileopen_xpm[] = {
"32 32 478 2",
"  	c None",
". 	c #6592BF",
"+ 	c #77A0C7",
"@ 	c #759EC7",
"# 	c #749EC7",
"$ 	c #5F8FBE",
"% 	c #004DBA",
"& 	c #0048B8",
"* 	c #0046B7",
"= 	c #0044B6",
"- 	c #0042B5",
"; 	c #0040B3",
"> 	c #003EB2",
", 	c #003BB1",
"' 	c #0039B0",
") 	c #0037AF",
"! 	c #0038AF",
"~ 	c #275C8F",
"{ 	c #F5FFFF",
"] 	c #FFFFFF",
"^ 	c #FDFFFF",
"/ 	c #E4F7FF",
"( 	c #224568",
"_ 	c #004FBB",
": 	c #2D6FC7",
"< 	c #4981CE",
"[ 	c #467DCD",
"} 	c #467CCC",
"| 	c #467ACB",
"1 	c #4679CA",
"2 	c #4677C9",
"3 	c #4676C8",
"4 	c #4675C7",
"5 	c #4975C7",
"6 	c #2D60C2",
"7 	c #00309A",
"8 	c #2A5D90",
"9 	c #F5FDFF",
"0 	c #FDFEFF",
"a 	c #FBFDFF",
"b 	c #F9FCFF",
"c 	c #F8FBFF",
"d 	c #FAFDFF",
"e 	c #E3F4FF",
"f 	c #25496E",
"g 	c #8DB6EA",
"h 	c #EBF8FF",
"i 	c #E0F0FF",
"j 	c #DFF0FF",
"k 	c #F1FCFF",
"l 	c #ACC2ED",
"m 	c #002A98",
"n 	c #295682",
"o 	c #F4FEFF",
"p 	c #FEFFFF",
"q 	c #FCFEFF",
"r 	c #F7FBFF",
"s 	c #F5FAFF",
"t 	c #F7FCFF",
"u 	c #E1F4FF",
"v 	c #25486D",
"w 	c #0047B7",
"x 	c #67A0E8",
"y 	c #BDDDFF",
"z 	c #B6D7FF",
"A 	c #B5D7FF",
"B 	c #B4D6FF",
"C 	c #CAE6FF",
"D 	c #9CB6E7",
"E 	c #0022A0",
"F 	c #00167C",
"G 	c #2458A0",
"H 	c #F4FAFF",
"I 	c #F6FBFF",
"J 	c #DDF1FF",
"K 	c #21476D",
"L 	c #0046B5",
"M 	c #5F9AE8",
"N 	c #B1D6FF",
"O 	c #ACD0FF",
"P 	c #ABD0FF",
"Q 	c #ADD1FF",
"R 	c #BBDBFF",
"S 	c #BACFF3",
"T 	c #6888D3",
"U 	c #6A89D8",
"V 	c #4F7DBB",
"W 	c #EFF8FE",
"X 	c #FBFEFF",
"Y 	c #F8FCFF",
"Z 	c #EFF7FF",
"` 	c #C6E6FF",
" .	c #0F3E6D",
"..	c #0044B4",
"+.	c #5493E7",
"@.	c #A4CDFF",
"#.	c #A0C8FF",
"$.	c #A2CAFF",
"%.	c #9BC6FE",
"&.	c #9AC4FD",
"*.	c #99C4FD",
"=.	c #9BC5FD",
"-.	c #ABCFFF",
";.	c #B6D8FF",
">.	c #6A98CA",
",.	c #E8F2FC",
"'.	c #FEFEFF",
").	c #F6FAFF",
"!.	c #F4F9FF",
"~.	c #F2F8FF",
"{.	c #ECF6FF",
"].	c #E5F2FF",
"^.	c #E8F4FF",
"/.	c #C2E4FF",
"(.	c #0043B3",
"_.	c #498CE7",
":.	c #97C5FF",
"<.	c #9BC5FF",
"[.	c #669EEA",
"}.	c #135BC2",
"|.	c #0855C0",
"1.	c #0954BF",
"2.	c #0952BE",
"3.	c #0950BD",
"4.	c #084EBC",
"5.	c #064BBB",
"6.	c #0649BA",
"7.	c #0642B6",
"8.	c #225FB0",
"9.	c #C7DCF4",
"0.	c #D4E0F3",
"a.	c #D0DDF2",
"b.	c #CFDCF1",
"c.	c #CDDBF1",
"d.	c #CCD9F1",
"e.	c #CBD9F0",
"f.	c #C6D5F0",
"g.	c #BFD0EF",
"h.	c #CEDEF6",
"i.	c #E4F3FF",
"j.	c #E6F3FF",
"k.	c #C0E3FF",
"l.	c #0041B2",
"m.	c #3F85E6",
"n.	c #8BBDFF",
"o.	c #8ABEFF",
"p.	c #2874D6",
"q.	c #2E6CC4",
"r.	c #A8C2E6",
"s.	c #A1BDE6",
"t.	c #A1BCE5",
"u.	c #A1BBE5",
"v.	c #A1BBE4",
"w.	c #A1BAE4",
"x.	c #A1B9E4",
"y.	c #A3B8E2",
"z.	c #789ECC",
"A.	c #D4E6F9",
"B.	c #E4EEFA",
"C.	c #E0EBF9",
"D.	c #DFEAF9",
"E.	c #DEE9F9",
"F.	c #CDDDF5",
"G.	c #B9CFEF",
"H.	c #D5E5F9",
"I.	c #C3D5F3",
"J.	c #BDCFF0",
"K.	c #E1F0FF",
"L.	c #E3F1FF",
"M.	c #BEE2FF",
"N.	c #003FB1",
"O.	c #347EE6",
"P.	c #7FB4FF",
"Q.	c #6AAFFF",
"R.	c #1A6ED3",
"S.	c #3474CD",
"T.	c #D6EDFF",
"U.	c #D8ECFF",
"V.	c #D6EBFF",
"W.	c #D6ECFF",
"X.	c #D9EDFF",
"Y.	c #88AFD9",
"Z.	c #D8EAFE",
"`.	c #E8F3FF",
" +	c #E8F5FF",
".+	c #C4DBF7",
"++	c #A0C1ED",
"@+	c #DDEFFF",
"#+	c #CADCF7",
"$+	c #BBCEF0",
"%+	c #DEEFFF",
"&+	c #BBE0FF",
"*+	c #003EB0",
"=+	c #2A77E6",
"-+	c #72ACFF",
";+	c #5EA5FB",
">+	c #1B6ACF",
",+	c #2067CA",
"'+	c #A5CFFF",
")+	c #B0D3FF",
"!+	c #AFD2FF",
"~+	c #6D9DD4",
"{+	c #CEE4FD",
"]+	c #E1EFFF",
"^+	c #DDECFF",
"/+	c #DBECFF",
"(+	c #D8EBFF",
"_+	c #D7EBFF",
":+	c #B5D1F6",
"<+	c #95B8EB",
"[+	c #D2E8FF",
"}+	c #C4D8F6",
"|+	c #B9CCEF",
"1+	c #DBEEFF",
"2+	c #DDEEFF",
"3+	c #B9DFFF",
"4+	c #003CAF",
"5+	c #1F70E5",
"6+	c #65A4FF",
"7+	c #549CF7",
"8+	c #1865CC",
"9+	c #1B63CA",
"0+	c #98C6FF",
"a+	c #A5CCFF",
"b+	c #A5CBFF",
"c+	c #6498D4",
"d+	c #C6E0FD",
"e+	c #D9EAFF",
"f+	c #D3E7FF",
"g+	c #D0E6FF",
"h+	c #CCE4FF",
"i+	c #CDE5FF",
"j+	c #AECDF6",
"k+	c #8FB4EB",
"l+	c #CAE3FF",
"m+	c #C0D5F6",
"n+	c #B6CBEF",
"o+	c #DAEDFF",
"p+	c #B7DEFF",
"q+	c #003BAD",
"r+	c #1468E5",
"s+	c #579BFF",
"t+	c #4A93F3",
"u+	c #1560C8",
"v+	c #155ECA",
"w+	c #88BCFF",
"x+	c #98C3FF",
"y+	c #95C1FF",
"z+	c #99C3FF",
"A+	c #4D8BD4",
"B+	c #B2D5FD",
"C+	c #D0E5FF",
"D+	c #C8E1FF",
"E+	c #C6E0FF",
"F+	c #C4DFFF",
"G+	c #C5E0FF",
"H+	c #A7C8F5",
"I+	c #89AFEA",
"J+	c #C2DFFF",
"K+	c #BBD2F6",
"L+	c #B4C9EF",
"M+	c #D5EBFF",
"N+	c #B4DDFF",
"O+	c #0039AC",
"P+	c #0B62E5",
"Q+	c #4A92FF",
"R+	c #408AEF",
"S+	c #125BC4",
"T+	c #0F59C9",
"U+	c #78B2FF",
"V+	c #8CBBFF",
"W+	c #88B9FF",
"X+	c #4385D4",
"Y+	c #AAD1FD",
"Z+	c #C7E0FF",
"`+	c #C0DCFF",
" @	c #BDDBFF",
".@	c #BBDAFF",
"+@	c #BCDCFF",
"@@	c #9FC3F5",
"#@	c #83AAE9",
"$@	c #B9DAFF",
"%@	c #B6CFF6",
"&@	c #B2C7EE",
"*@	c #D2E9FF",
"=@	c #D4EAFF",
"-@	c #B2DCFF",
";@	c #0037AB",
">@	c #095DE3",
",@	c #3E8BFF",
"'@	c #3681EA",
")@	c #1057C0",
"!@	c #0954C9",
"~@	c #68A8FF",
"{@	c #80B2FF",
"]@	c #7BB0FF",
"^@	c #7EB1FF",
"/@	c #3C80D3",
"(@	c #A5CDFD",
"_@	c #C1DCFF",
":@	c #BAD8FF",
"<@	c #B8D7FF",
"[@	c #B6D6FF",
"}@	c #9BBFF4",
"|@	c #7EA6E8",
"1@	c #B3CCF6",
"2@	c #B0C6EE",
"3@	c #CFE8FF",
"4@	c #D1E8FF",
"5@	c #AFDBFF",
"6@	c #0035AA",
"7@	c #0758E2",
"8@	c #3386FF",
"9@	c #2C7BE6",
"0@	c #0D53BC",
"a@	c #034FC8",
"b@	c #589EFF",
"c@	c #72AAFF",
"d@	c #6EA8FF",
"e@	c #70A8FF",
"f@	c #377BD3",
"g@	c #C8DEFF",
"h@	c #C1DAFF",
"i@	c #BED9FF",
"j@	c #BCD8FF",
"k@	c #BCDAFF",
"l@	c #A0C0F5",
"m@	c #83A6E8",
"n@	c #B9D8FF",
"o@	c #B7CFF7",
"p@	c #B5C9F1",
"q@	c #D7EDFF",
"r@	c #B5E0FF",
"s@	c #104071",
"t@	c #0034A9",
"u@	c #0654E1",
"v@	c #2881FF",
"w@	c #2274E2",
"x@	c #0B4FB9",
"y@	c #004AC8",
"z@	c #4894FF",
"A@	c #66A1FF",
"B@	c #629FFF",
"C@	c #65A2FF",
"D@	c #3577D2",
"E@	c #659EE5",
"F@	c #80B0EF",
"G@	c #7BADEE",
"H@	c #79ACEE",
"I@	c #78ABEE",
"J@	c #78ADF0",
"K@	c #6699E5",
"L@	c #5385DA",
"M@	c #7FB1F1",
"N@	c #82ADE9",
"O@	c #78A6E4",
"P@	c #8EC5FA",
"Q@	c #90C6FA",
"R@	c #71B3F2",
"S@	c #072B50",
"T@	c #0032A8",
"U@	c #0450DF",
"V@	c #1C7CFF",
"W@	c #186EDE",
"X@	c #084BB5",
"Y@	c #0046C6",
"Z@	c #3C8BFF",
"`@	c #5998FF",
" #	c #5596FF",
".#	c #5698FF",
"+#	c #5092F8",
"@#	c #2E6FCF",
"##	c #296AC7",
"$#	c #296AC8",
"%#	c #296BC8",
"&#	c #2A6CC9",
"*#	c #2561C3",
"=#	c #1D55BD",
"-#	c #4480CE",
";#	c #3560B5",
">#	c #001671",
",#	c #001936",
"'#	c #0030A6",
")#	c #024BDE",
"!#	c #1177FF",
"~#	c #0F67DB",
"{#	c #0547B2",
"]#	c #0043C5",
"^#	c #3383FF",
"/#	c #4B90FF",
"(#	c #488EFF",
"_#	c #488DFF",
":#	c #498FFF",
"<#	c #4C91FF",
"[#	c #4D93FF",
"}#	c #4282F7",
"|#	c #3570E8",
"1#	c #67AAFF",
"2#	c #4971DB",
"3#	c #00006C",
"4#	c #002FA5",
"5#	c #0147DD",
"6#	c #0572FF",
"7#	c #0561D7",
"8#	c #0143AF",
"9#	c #003FC4",
"0#	c #2B7CFF",
"a#	c #3F89FF",
"b#	c #3C87FF",
"c#	c #3D89FF",
"d#	c #3479F3",
"e#	c #2968E4",
"f#	c #549EFF",
"g#	c #3D69D9",
"h#	c #00026E",
"i#	c #002DA4",
"j#	c #0042DD",
"k#	c #0067FF",
"l#	c #0056D2",
"m#	c #003DAA",
"n#	c #003DC4",
"o#	c #2277FF",
"p#	c #3286FF",
"q#	c #3084FF",
"r#	c #3085FF",
"s#	c #3187FF",
"t#	c #2A77F6",
"u#	c #2165E7",
"v#	c #459AFF",
"w#	c #3365DB",
"x#	c #00016D",
"y#	c #002EAA",
"z#	c #0036CE",
"A#	c #0040E7",
"B#	c #0034BF",
"C#	c #003BBF",
"D#	c #064EE8",
"E#	c #0850E6",
"F#	c #084FE6",
"G#	c #084EE5",
"H#	c #084DE5",
"I#	c #084DE4",
"J#	c #084CE4",
"K#	c #084BE3",
"L#	c #084AE3",
"M#	c #0849E2",
"N#	c #0849E3",
"O#	c #0740D8",
"P#	c #0536CD",
"Q#	c #1E61E8",
"R#	c #204BCD",
"S#	c #000271",
"T#	c #002387",
"U#	c #002698",
"V#	c #002498",
"W#	c #002198",
"X#	c #00279C",
"Y#	c #0030A0",
"Z#	c #002B9D",
"`#	c #00299C",
" $	c #00279A",
".$	c #002599",
"+$	c #002398",
"@$	c #002197",
"#$	c #001F96",
"$$	c #001C95",
"%$	c #001A94",
"&$	c #001992",
"*$	c #001791",
"=$	c #001490",
"-$	c #00128F",
";$	c #00108E",
">$	c #000E8D",
",$	c #000D8C",
"'$	c #000B8B",
")$	c #00098A",
"!$	c #000990",
"~$	c #000558",
"                                                                ",
"                                                                ",
"                                                                ",
"                                                                ",
"                                . + @ @ @ @ @ @ @ @ # # + $     ",
"    % & * = - ; > , ' ) !     ~ { ] ] ] ] ] ] ] ] ] ] ^ ] / (   ",
"  _ : < [ } | 1 2 3 4 5 6 7   8 9 ] ] ] ] ] ] ] 0 a b c d e f   ",
"  & g h i i i i i i j k l m   n o ] ] ] ] ] p q a b r s t u v   ",
"  w x y z A A A A A B C D E F G 9 ] ] ] ] p q a b r s H I J K   ",
"  L M N O P Q Q Q Q O R S T U V W ] ] ] ] 0 X b Y I H Z Z `  .  ",
"  ..+.@.#.$.%.&.&.&.*.=.-.A ;.>.,.'.'.0 a b r ).!.~.{.].^./. .  ",
"  (._.:.<.[.}.|.1.2.3.4.5.6.7.8.9.0.a.b.c.d.d.e.f.g.h.i.j.k. .  ",
"  l.m.n.o.p.q.r.s.t.u.v.w.x.y.z.A.B.C.D.E.D.F.G.H.I.J.K.L.M. .  ",
"  N.O.P.Q.R.S.T.U.V.V.V.V.W.X.Y.Z.{.`.j.]. +.+++@+#+$+%+i &+ .  ",
"  *+=+-+;+>+,+'+)+Q Q Q Q Q !+~+{+]+^+/+(+_+:+<+[+}+|+1+2+3+ .  ",
"  4+5+6+7+8+9+0+a+$.$.$.$.$.b+c+d+e+f+g+h+i+j+k+l+m+n+U.o+p+ .  ",
"  q+r+s+t+u+v+w+x+y+y+y+y+y+z+A+B+C+D+E+F+G+H+I+J+K+L+M+_+N+ .  ",
"  O+P+Q+R+S+T+U+V+W+W+W+W+W+V+X+Y+Z+`+ @.@+@@@#@$@%@&@*@=@-@ .  ",
"  ;@>@,@'@)@!@~@{@]@]@]@]@]@^@/@(@_@:@<@[@z }@|@B 1@2@3@4@5@ .  ",
"  6@7@8@9@0@a@b@c@d@d@d@d@d@e@f@O g@h@i@j@k@l@m@n@o@p@T.q@r@s@  ",
"  t@u@v@w@x@y@z@A@B@B@B@B@B@C@D@E@F@G@H@I@J@K@L@M@N@O@P@Q@R@S@  ",
"  T@U@V@W@X@Y@Z@`@ # # # # #.#+#@###$#$#%#&#*#=#-#;#>#,#        ",
"  '#)#!#~#{#]#^#/#(#(#(#(#(#_#:#<#<#<#<#<#[#}#|#1#2#3#          ",
"  4#5#6#7#8#9#0#a#b#b#b#b#b#b#b#b#b#b#b#b#c#d#e#f#g#h#          ",
"  i#j#k#l#m#n#o#p#q#q#q#q#q#q#q#q#q#r#r#r#s#t#u#v#w#x#          ",
"  y#z#A#B#T@C#D#E#F#G#G#H#I#J#J#K#L#L#M#M#N#O#P#Q#R#S#          ",
"  T#U#V#W#X#Y#Z#`# $.$+$@$#$$$%$&$*$=$-$;$>$,$'$)$!$~$          ",
"                                                                ",
"                                                                ",
"                                                                ",
"                                                                ",
"                                                                "};
