/* XPM */
static const char * moviecapture_xpm[] = {
"32 32 483 2",
"  	c None",
". 	c #5E5E87",
"+ 	c #6A6A88",
"@ 	c #666684",
"# 	c #4A4A71",
"$ 	c #4E4E79",
"% 	c #5F5F86",
"& 	c #5E5E85",
"* 	c #66668E",
"= 	c #70708F",
"- 	c #767691",
"; 	c #767692",
"> 	c #737391",
", 	c #64648C",
"' 	c #626289",
") 	c #626288",
"! 	c #64648B",
"~ 	c #6B6B92",
"{ 	c #6B6B94",
"] 	c #6C6C94",
"^ 	c #67678F",
"/ 	c #696992",
"( 	c #6A6A93",
"_ 	c #696991",
": 	c #6D6D95",
"< 	c #6C6B94",
"[ 	c #6C6C95",
"} 	c #6E6D96",
"| 	c #707099",
"1 	c #585882",
"2 	c #565680",
"3 	c #E3E3E6",
"4 	c #F4F4F4",
"5 	c #F3F3F4",
"6 	c #E6E6EB",
"7 	c #D7D7E0",
"8 	c #CDCDDB",
"9 	c #CCCCDB",
"0 	c #D0D0DE",
"a 	c #D5D5E3",
"b 	c #D7D7E5",
"c 	c #D8D8E6",
"d 	c #DEDFEE",
"e 	c #B5B2B5",
"f 	c #989291",
"g 	c #BEBDC3",
"h 	c #D1D1D9",
"i 	c #D0D0D5",
"j 	c #CECED3",
"k 	c #D1D1D6",
"l 	c #CECED8",
"m 	c #D6D6E6",
"n 	c #DDDDE7",
"o 	c #E3E1E8",
"p 	c #E6E2E8",
"q 	c #E6E3EA",
"r 	c #DAD8E2",
"s 	c #D1D1E7",
"t 	c #C4C4E4",
"u 	c #373755",
"v 	c #6B6B8B",
"w 	c #E7E7E4",
"x 	c #E8E8E7",
"y 	c #EAEAEA",
"z 	c #D8D8DF",
"A 	c #C0C0CE",
"B 	c #B0B0C5",
"C 	c #B3B3C9",
"D 	c #B6B6CD",
"E 	c #B8B8D0",
"F 	c #C2C1DA",
"G 	c #9F9CAE",
"H 	c #234675",
"I 	c #4581C5",
"J 	c #2D3F5C",
"K 	c #D1CEC9",
"L 	c #747574",
"M 	c #656564",
"N 	c #DDDDDD",
"O 	c #DCDBDC",
"P 	c #AFB0B7",
"Q 	c #C3CAD4",
"R 	c #D5E3F0",
"S 	c #BDD9F1",
"T 	c #A4CEF0",
"U 	c #8FBCE3",
"V 	c #999DBF",
"W 	c #AEAEE0",
"X 	c #3F3F5D",
"Y 	c #656585",
"Z 	c #E2E2E1",
"` 	c #E9E9E8",
" .	c #C1C1CF",
"..	c #B2B2C6",
"+.	c #B5B5CA",
"@.	c #B7B7CE",
"#.	c #BBBBD2",
"$.	c #C2C2DA",
"%.	c #888287",
"&.	c #023881",
"*.	c #0064DF",
"=.	c #2E4771",
"-.	c #E1DCD5",
";.	c #1C1C1C",
">.	c #050506",
",.	c #D4D4D5",
"'.	c #FFFFFF",
").	c #EBEBED",
"!.	c #AAC0D6",
"~.	c #A1C2E3",
"{.	c #90B7DD",
"].	c #9BC2EB",
"^.	c #92B5D9",
"/.	c #A1A4C6",
"(.	c #A9A8DC",
"_.	c #3A3A5A",
":.	c #656586",
"<.	c #E3E3E1",
"[.	c #B8B8CF",
"}.	c #BBBBD3",
"|.	c #A5A5B2",
"1.	c #CFCFD2",
"2.	c #90939A",
"3.	c #515969",
"4.	c #BCBCBD",
"5.	c #C1C1C1",
"6.	c #B8B8B8",
"7.	c #FCFCFC",
"8.	c #F7F7FA",
"9.	c #F0F0F4",
"0.	c #E2E2E6",
"a.	c #DCDADF",
"b.	c #B0AEB2",
"c.	c #C3C1D8",
"d.	c #C8C6E7",
"e.	c #B6B6E0",
"f.	c #A7A7D9",
"g.	c #3B3B5B",
"h.	c #BBBBD1",
"i.	c #A5A5B5",
"j.	c #BBBBC1",
"k.	c #E8E8F1",
"l.	c #F3F2F5",
"m.	c #FBF7F3",
"n.	c #EEEEF3",
"o.	c #E9E9F0",
"p.	c #E0DFE5",
"q.	c #B1B0BB",
"r.	c #CACAEF",
"s.	c #BABAE6",
"t.	c #A7A7D8",
"u.	c #3C3C5B",
"v.	c #666687",
"w.	c #E3E3E0",
"x.	c #B6B6CC",
"y.	c #AAAAB1",
"z.	c #D9D9E4",
"A.	c #DFDFE9",
"B.	c #E8E8EE",
"C.	c #F3F3F7",
"D.	c #F9F9FB",
"E.	c #EDEDED",
"F.	c #D7D7D5",
"G.	c #CFCFCD",
"H.	c #DDDDDC",
"I.	c #F2F2F4",
"J.	c #F4F4F7",
"K.	c #EAEAF0",
"L.	c #E4E4EB",
"M.	c #E3E3EC",
"N.	c #CACACF",
"O.	c #ACACC3",
"P.	c #BCBCE8",
"Q.	c #A6A6D8",
"R.	c #A6A6B5",
"S.	c #06379C",
"T.	c #083098",
"U.	c #DFDFE8",
"V.	c #E9E9EF",
"W.	c #F1F1F4",
"X.	c #D7D7D7",
"Y.	c #BFBFC2",
"Z.	c #BFBEC9",
"`.	c #C2C2CF",
" +	c #B8B8C0",
".+	c #C0C0C0",
"++	c #E4E4E5",
"@+	c #EEEEF4",
"#+	c #E4E4EC",
"$+	c #DEDEE8",
"%+	c #DDDDE6",
"&+	c #B3B3BE",
"*+	c #B4B4DF",
"=+	c #A6A6D9",
"-+	c #3D3D5C",
";+	c #666689",
">+	c #B3B3C7",
",+	c #A0A0AA",
"'+	c #284FA7",
")+	c #A7BBDE",
"!+	c #3F61B0",
"~+	c #002491",
"{+	c #C2C2C5",
"]+	c #CBCCDB",
"^+	c #AAAABA",
"/+	c #90909C",
"(+	c #C0C1D2",
"_+	c #C1C2CC",
":+	c #BCBCBB",
"<+	c #E7E7EB",
"[+	c #E5E5ED",
"}+	c #DCDCE8",
"|+	c #BEBEC5",
"1+	c #A8A8CC",
"2+	c #AAAADD",
"3+	c #676789",
"4+	c #B3B3C8",
"5+	c #B0B0C4",
"6+	c #A9A9B1",
"7+	c #244BA7",
"8+	c #E2ECF8",
"9+	c #F6FDFF",
"0+	c #90ABD8",
"a+	c #2046A5",
"b+	c #002391",
"c+	c #95969F",
"d+	c #0D0E0E",
"e+	c #020201",
"f+	c #38393C",
"g+	c #CECFDB",
"h+	c #C1C1C5",
"i+	c #D9D9E5",
"j+	c #C7C7CC",
"k+	c #A0A0BC",
"l+	c #ABABDF",
"m+	c #686889",
"n+	c #AFAFC3",
"o+	c #B0B0B8",
"p+	c #1E48A6",
"q+	c #CAE1F6",
"r+	c #E3F5FF",
"s+	c #E7F9FF",
"t+	c #D3E7F6",
"u+	c #7093CE",
"v+	c #0F3B9E",
"w+	c #002691",
"x+	c #000000",
"y+	c #9A9BA1",
"z+	c #D8D9DF",
"A+	c #C7C7C6",
"B+	c #EAEAF1",
"C+	c #D8D8E4",
"D+	c #CECED4",
"E+	c #A1A1BA",
"F+	c #A9A9DE",
"G+	c #3D3D5D",
"H+	c #68688A",
"I+	c #AEAEB7",
"J+	c #1A46A6",
"K+	c #BCDAF6",
"L+	c #B9DFFF",
"M+	c #A5D1FF",
"N+	c #BBDFFF",
"O+	c #D2EFFF",
"P+	c #B3D2F1",
"Q+	c #4F78C2",
"R+	c #052F98",
"S+	c #002791",
"T+	c #A9ABB0",
"U+	c #D4D6DA",
"V+	c #C4C4C4",
"W+	c #CCCCD2",
"X+	c #9F9FBA",
"Y+	c #69698B",
"Z+	c #B0B0C6",
"`+	c #A6A6AE",
" @	c #1845A6",
".@	c #AAD0F6",
"+@	c #A0D2FF",
"@@	c #8EC6FF",
"#@	c #8FC6FF",
"$@	c #A3D4FF",
"%@	c #BAE3FF",
"&@	c #90B9EA",
"*@	c #3765B9",
"=@	c #002B95",
"-@	c #B8B9BA",
";@	c #D1D1D3",
">@	c #DEDEE7",
",@	c #DADAE5",
"'@	c #C4C4C9",
")@	c #A1A1BF",
"!@	c #ABABE0",
"~@	c #3E3E5E",
"{@	c #6A6A8B",
"]@	c #B2B2C7",
"^@	c #A0A0AC",
"/@	c #1544A6",
"(@	c #98C8F6",
"_@	c #86C6FF",
":@	c #77BBFF",
"<@	c #7ABCFF",
"[@	c #76BBFF",
"}@	c #78BBFF",
"|@	c #8FCBFF",
"1@	c #A1D5FF",
"2@	c #73A5E3",
"3@	c #2255B0",
"4@	c #002994",
"5@	c #E6E6ED",
"6@	c #BCBCC3",
"7@	c #ADADD3",
"8@	c #A9A9DC",
"9@	c #3F3F5E",
"0@	c #B8B8CE",
"a@	c #A9A9BB",
"b@	c #1242A6",
"c@	c #85BFF6",
"d@	c #6EBAFF",
"e@	c #60B0FF",
"f@	c #62B1FF",
"g@	c #62B0FF",
"h@	c #60AFFF",
"i@	c #7AC1FF",
"j@	c #87C6FD",
"k@	c #548DD9",
"l@	c #1244A7",
"m@	c #002A91",
"n@	c #DBDBE2",
"o@	c #AFAFBC",
"p@	c #B8B8E3",
"q@	c #3F3F5F",
"r@	c #6B6B8C",
"s@	c #B5B5CB",
"t@	c #B7B7CD",
"u@	c #0F42A6",
"v@	c #70B4F6",
"w@	c #54ACFF",
"x@	c #48A4FF",
"y@	c #4AA5FF",
"z@	c #45A1FF",
"A@	c #49A5FF",
"B@	c #63B7FF",
"C@	c #6BB4FA",
"D@	c #3978CF",
"E@	c #07399F",
"F@	c #002A92",
"G@	c #BBBBE7",
"H@	c #6B6B8D",
"I@	c #BABAD1",
"J@	c #0D40A6",
"K@	c #5DAAF6",
"L@	c #3DA1FF",
"M@	c #3499FF",
"N@	c #369AFF",
"O@	c #359AFF",
"P@	c #3299FF",
"Q@	c #399EFF",
"R@	c #51AFFF",
"S@	c #4EA1F3",
"T@	c #2163C3",
"U@	c #023299",
"V@	c #002A90",
"W@	c #40405F",
"X@	c #6C6C8D",
"Y@	c #0D41A6",
"Z@	c #57A6F6",
"`@	c #3298FF",
" #	c #3399FF",
".#	c #2E96FF",
"+#	c #389EFF",
"@#	c #47A9FF",
"##	c #3591F0",
"$#	c #1459BF",
"%#	c #013298",
"&#	c #6F6F90",
"*#	c #E6E6E2",
"=#	c #EAEAE9",
"-#	c #ECECEB",
";#	c #DADAE0",
">#	c #C3C3D0",
",#	c #B6B6CB",
"'#	c #B9B9CF",
")#	c #53A4F6",
"!#	c #3398FF",
"~#	c #329AFF",
"{#	c #35A0FF",
"]#	c #3195F5",
"^#	c #1860C5",
"/#	c #53537C",
"(#	c #C7C7D0",
"_#	c #E8E8EA",
":#	c #D5D5E0",
"<#	c #BFBFD2",
"[#	c #B1B1C9",
"}#	c #B4B4CD",
"|#	c #B7B7D1",
"1#	c #0E41A6",
"2#	c #4FA3F6",
"3#	c #379DFF",
"4#	c #3498FF",
"5#	c #359BFF",
"6#	c #37A1FF",
"7#	c #3197F8",
"8#	c #1B68CC",
"9#	c #05389F",
"0#	c #32324D",
"a#	c #30304B",
"b#	c #3D3D56",
"c#	c #3D3D55",
"d#	c #3B3B55",
"e#	c #393954",
"f#	c #383853",
"g#	c #3A3A55",
"h#	c #53A6F6",
"i#	c #40A4FF",
"j#	c #3C9EFF",
"k#	c #3D9FFF",
"l#	c #3D9EFF",
"m#	c #42A7FF",
"n#	c #3DA1FC",
"o#	c #2576D7",
"p#	c #073FA5",
"q#	c #002C92",
"r#	c #424261",
"s#	c #33334D",
"t#	c #09090E",
"u#	c #1142A6",
"v#	c #5DADF6",
"w#	c #4FAEFF",
"x#	c #4BA8FF",
"y#	c #4CA9FF",
"z#	c #4DAAFF",
"A#	c #51B1FF",
"B#	c #51B2FF",
"C#	c #3588E0",
"D#	c #104AAD",
"E#	c #1244A6",
"F#	c #66B4F6",
"G#	c #5EB8FF",
"H#	c #59B2FF",
"I#	c #5AB3FF",
"J#	c #5FBAFF",
"K#	c #61BEFF",
"L#	c #489BEA",
"M#	c #1B59B8",
"N#	c #012F96",
"O#	c #6EBAF6",
"P#	c #6DC2FF",
"Q#	c #68BDFF",
"R#	c #6CC1FF",
"S#	c #73C9FF",
"T#	c #5AABF0",
"U#	c #2767C0",
"V#	c #1345A6",
"W#	c #73C0F6",
"X#	c #7CCBFF",
"Y#	c #76C4FF",
"Z#	c #7BC9FF",
"`#	c #82D3FF",
" $	c #71BFF8",
".$	c #3A7ACA",
"+$	c #08379D",
"@$	c #002890",
"#$	c #1547A6",
"$$	c #7DC7F6",
"%$	c #8CD7FF",
"&$	c #8FDBFF",
"*$	c #85D1FB",
"=$	c #5091D8",
"-$	c #1042A4",
";$	c #1848A7",
">$	c #96DCF8",
",$	c #A0E8FF",
"'$	c #65A7DF",
")$	c #1B4EAB",
"!$	c #002793",
"~$	c #1C4CA8",
"{$	c #78B7E5",
"]$	c #3468B9",
"^$	c #05379C",
"/$	c #07349A",
"($	c #002892",
"                                                                ",
"            . + @ #                                             ",
"    $ % & * = - ; > , ' ) ! ~ { ] ^ / ( _ { : < { [ : } | 1     ",
"  2 3 4 5 6 7 8 9 0 a b c d e f g h i j k l m n o p q r s t u   ",
"  v w x y z A B B C D E F G H I J K L M N O P Q R S T U V W X   ",
"  Y Z ` y z  .....+.@.#.$.%.&.*.=.-.;.>.,.'.).!.~.{.].^./.(._.  ",
"  :.<.` y z  .....+.[.}.|.1.2.3.4.'.5.6.7.8.9.0.a.b.c.d.e.f.g.  ",
"  :.<.` y z  .....+.h.i.j.k.l.m.'.'.'.'.'.8.9.n.o.p.q.r.s.t.u.  ",
"  v.w.` y z  .....x.C y.z.A.B.C.D.E.F.G.H.I.J.K.L.M.N.O.P.Q.u.  ",
"  v.w.` y z  .....[.R.S.T.U.V.W.X.Y.Z.`. +.+++@+#+$+%+&+*+=+-+  ",
"  ;+w.` y z  ...>++.,+'+)+!+~+N {+]+^+/+(+_+:+<+[+n }+|+1+2+-+  ",
"  3+w.` y z  ...4+5+6+7+8+9+0+a+b+c+d+e+f+g+h+,.V.n i+j+k+l+-+  ",
"  m+w.` y z  ...4+n+o+p+q+r+s+t+u+v+w+x+x+y+z+A+B+n C+D+E+F+G+  ",
"  H+w.` y z  ...4+n+I+J+K+L+M+N+O+P+Q+R+S+T+U+V+B+n z.W+X+F+G+  ",
"  Y+w.` y z  ...4+Z+`+ @.@+@@@#@#@$@%@&@*@=@-@;@o.>@,@'@)@!@~@  ",
"  {@w.` y z  ...]@x.^@/@(@_@:@<@<@[@}@|@1@2@3@4@5@n $+6@7@8@9@  ",
"  {@w.` y z  .....0@a@b@c@d@e@f@f@f@g@h@f@i@j@k@l@m@n@o@p@t.q@  ",
"  r@w.` y z  .....s@t@u@v@w@x@y@y@y@y@y@y@z@A@B@C@D@E@F@G@t.q@  ",
"  H@w.` y z  .....+.I@J@K@L@M@N@N@N@N@N@N@N@O@P@Q@R@S@T@U@V@W@  ",
"  X@w.` y z  .....+.@.Y@Z@Q@`@M@M@M@M@M@M@M@ # #`@.#+#@###$#%#  ",
"  &#*#=#-#;#>#>+>+,#'#Y@)#+#!#M@M@M@M@M@M@M@ # # # #~#{#]#^#%#  ",
"  /#(#_#6 :#<#[#[#}#|#1#2#3#!#M@M@M@M@M@M@M@4#!#5#6#7#8#9#V@0#  ",
"    a#b#c#d#e#f#e#e#g#u@h#i#j#k#k#k#k#k#k#l#k#m#n#o#p#q#r#s#t#  ",
"                      u#v#w#x#y#y#y#y#y#z#A#B#C#D#q#            ",
"                      E#F#G#H#I#I#I#I#J#K#L#M#N#                ",
"                      E#O#P#Q#Q#Q#R#S#T#U#U@F@                  ",
"                      V#W#X#Y#Z#`# $.$+$@$                      ",
"                      #$$$%$&$*$=$-$S+                          ",
"                      ;$>$,$'$)$!$                              ",
"                      ~${$]$4@                                  ",
"                      ^$/$($                                    ",
"                                                                "};
