/* XPM */
static const char *multiview_xpm[] = {
"48 48 151 2",
"  	c #000000",
". 	c #030303",
"+ 	c #1E1E1E",
"@ 	c #484848",
"# 	c #565656",
"$ 	c #4D4D4D",
"% 	c #555555",
"& 	c #2E2E2E",
"* 	c #0E0E0E",
"= 	c #010101",
"- 	c #222222",
"; 	c #636363",
"> 	c #323232",
", 	c #212121",
"' 	c #272727",
") 	c #242424",
"! 	c #444444",
"~ 	c #696969",
"{ 	c #3E3E3E",
"] 	c #060606",
"^ 	c #070707",
"/ 	c #0A0A0A",
"( 	c #0B0B0B",
"_ 	c #0C0C0C",
": 	c #0D0D0D",
"< 	c #080808",
"[ 	c #020202",
"} 	c #3A3A3A",
"| 	c #252525",
"1 	c #3F3F3F",
"2 	c #3C3C3C",
"3 	c #5E5E5E",
"4 	c #525252",
"5 	c #454545",
"6 	c #262626",
"7 	c #434343",
"8 	c #5F5F5F",
"9 	c #050505",
"0 	c #151515",
"a 	c #1C1C1C",
"b 	c #1F1F1F",
"c 	c #171717",
"d 	c #181818",
"e 	c #1B1B1B",
"f 	c #1D1D1D",
"g 	c #191919",
"h 	c #353535",
"i 	c #4B4B4B",
"j 	c #383838",
"k 	c #7B7B7B",
"l 	c #8D8D8D",
"m 	c #797979",
"n 	c #616161",
"o 	c #868686",
"p 	c #4E4E4E",
"q 	c #333333",
"r 	c #595959",
"s 	c #2D2D2D",
"t 	c #6C6C6C",
"u 	c #7F7F7F",
"v 	c #666666",
"w 	c #747474",
"x 	c #7E7E7E",
"y 	c #5C5C5C",
"z 	c #292929",
"A 	c #161616",
"B 	c #5A5A5A",
"C 	c #303030",
"D 	c #777777",
"E 	c #656565",
"F 	c #8E8E8E",
"G 	c #929292",
"H 	c #717171",
"I 	c #626262",
"J 	c #898989",
"K 	c #686868",
"L 	c #3D3D3D",
"M 	c #4C4C4C",
"N 	c #535353",
"O 	c #363636",
"P 	c #494949",
"Q 	c #404040",
"R 	c #545454",
"S 	c #6F6F6F",
"T 	c #6E6E6E",
"U 	c #282828",
"V 	c #585858",
"W 	c #949494",
"X 	c #707070",
"Y 	c #515151",
"Z 	c #969696",
"` 	c #7A7A7A",
" .	c #202020",
"..	c #575757",
"+.	c #8B8B8B",
"@.	c #414141",
"#.	c #5B5B5B",
"$.	c #313131",
"%.	c #737373",
"&.	c #757575",
"*.	c #828282",
"=.	c #909090",
"-.	c #5D5D5D",
";.	c #727272",
">.	c #919191",
",.	c #6D6D6D",
"'.	c #858585",
").	c #848484",
"!.	c #2B2B2B",
"~.	c #393939",
"{.	c #8C8C8C",
"].	c #6B6B6B",
"^.	c #959595",
"/.	c #939393",
"(.	c #787878",
"_.	c #111111",
":.	c #3B3B3B",
"<.	c #878787",
"[.	c #767676",
"}.	c #8F8F8F",
"|.	c #2A2A2A",
"1.	c #8A8A8A",
"2.	c #808080",
"3.	c #2F2F2F",
"4.	c #676767",
"5.	c #838383",
"6.	c #818181",
"7.	c #6A6A6A",
"8.	c #373737",
"9.	c #606060",
"0.	c #646464",
"a.	c #141414",
"b.	c #505050",
"c.	c #4F4F4F",
"d.	c #474747",
"e.	c #7D7D7D",
"f.	c #424242",
"g.	c #464646",
"h.	c #7C7C7C",
"i.	c #4A4A4A",
"j.	c #888888",
"k.	c #343434",
"l.	c #040404",
"m.	c #131313",
"n.	c #0F0F0F",
"o.	c #ABABAB",
"p.	c #2C2C2C",
"q.	c #AEAEAE",
"r.	c #090909",
"s.	c #121212",
"t.	c #101010",
"                . + @ # $ % & * =                                                               ",
"            = - ; % > , ' ) ! ~ { ]                             . ^ / ( _ _ : * * : ( / < .     ",
"          [ } # | 1 2 3 ! 4 5 6 7 8 /                             9 0 a b a c d e f b , ) g     ",
"          h i j 5 k l m n o 3 p q q r ]                       ^ s t u v w x y z /       =       ",
"        A B C D E F G H I J J K o L M i =                   e E o N O P Q } R S T U [ = =       ",
"      [ B & V l F W o X Y m Z F ` S | E  .                | u 3 } ~ ..~ t +.K M @.m 1 .         ",
"      - #.$.%.&.G Z Z w v *.Z W =.~ i O -.=             a ;.j % D >.m ,.k >.'.)...!.t ~.=       ",
"      4 } -.l Z Z Z {.u ].^.Z Z Z /.(.& %._.          / K :.R +.<.W W [.[.G }.m *.M s %.|.      ",
"    9 ].j ,.1.Z /.W Y S 2.8 G Z Z {.~ 3.,. .          C 4.j <.t /.Z 5.].% 6.Z G m 7.4.h ].]     ",
"    ( S z -.k ^.Z G ; C 8.V J Z Z m k Q y '         = 9.j 4 X 1.F Z {.` H l Z G &.k *.& u c     ",
"    * X 1 x 1./.^./.n j } R }.^.o J ^.9.i $.        ^ S 1 %.%.=.Z F T m w &.F Z /.>.w :.0.z     ",
"    c S R {.'.H 1./.&.9.N I ^.F K *.J E 7 {         a.;.b.k =.F >.+.Q c.Y :.+.>.+.}.5.#.d.1     ",
"    b t 1 [.1.w 6.1.-.Y $ N +.e.~ x x 4.Q f.         .v 1 m ].I +.}.2.-...*.W 1.v ].H i :.@.    ",
"    ' T O 0.~ &.2.N p +.{.-.p >.w S 7.y f.!         |.-.g.h.*.n ).G '.t 4.o G {.K 5.k (.:.7     ",
"    b &.j H 5.F }.~.{.T t G i.j.W G u I b.L         k.#.7.H e.e.=.W <.D ,.<.W G e.J m I } 5     ",
"    ( m ~.(.'.>.}.w >.8 r '.1.F F X *.8.,.!.        L ; 8 {.l +.&.I '.o 5.'.4.%.o ).;.H p M     ",
"    = -.O r X o Z W ;.S r 8 <.Z u w t |.[.:         5 7.4 k 1.5.k ` X o u w I e.x {.[.S R N     ",
"      a H k.2.5.Z ^.'.v -.X l ^.^.` 7 $ {           @ h.{ p (.v &.4 D J ).(.2 3 %.X ;.g.8 -.    ",
"      l.&.!.1 u +.Z G m 7.F Z ` }.3 a ]./           @.o $ < m.n.' $.N j.).$ !.g h d ^ ) E $     ",
"        + e., #.+.+.}.x S ^.o 6.S a 8 '             r o.9.q O A j |.p.k.O p.3.| : e d g.}.#.    ",
"        = $.H b i 9.J e.Y k 6.1 g R L =           [ S e.V q :.9.@ 7 @.h |.~.L { 1 1 } p b.T .   ",
"          = b 3 C f h 2 ) z b & B p.=             9 ` J ~ i ; q.D n 8 # b...-.N X H $ % t (.<   ",
"              ] !.7 ~.~.{ ! 1 U r.                = s._.: / : c ( _ _ ( ( _ ( ( _.* _ _ : t.[   ",
"                    . l.. [                                                                     ",
"                                                                                                ",
"              < r.- A l.( =                                                                     ",
"            l.| $.2 6 m., - - A ^ =         [ [                                                 ",
"          = r.0 j V ` [.t 7.[.&.w } <       [ [                                                 ",
"          a.d.2.T p $.1 b.R $ L h 8 N n.    = [                                                 ",
"      = U 2.~ U $.i 7 ! 5 2 @.i.# $.@.$ r.  = [                                                 ",
"    = 3.D j q } f.8.} > k.f.! k.Q p k.O q     [                                                 ",
"    ' 7.s O ! i.2 3.j 5 :.& C O q q P ' ! *   [                                                 ",
"  t.r & @.f.N % M P g.f.1 :.h ~.j 4 R P , q = =                                                 ",
"[ d.C @.R N #.i.c.@ $ % b.7 8.k.! # I g., 7 : =                                                 ",
"e P O c.! p b.j :.L 8 n -.I :.k.P ; v ,.:.6 |.                                                  ",
"g.q h g.V # 1 } v 2.e.` 9.=.5 3.~.V #.I y  .j .                                                 ",
"i & ~.@ d.p B x # R h.! & ~ 2 & $.{ I ` 2.5 h t.                                                ",
"P ' j k.R j o [.k.~ i.N C $.s O ~.L % ,.S #.2 -                                                 ",
"b.m.$.7 d.# % Y f.Y & } d.g.~.Y V d.g.~ w 4 h h                                                 ",
"c.= 2 j 2 N I d.$.C f.i &...% 9.; M N { N $.q 1                                                 ",
"i * 0 > 7 g.R 7 C 1 & ! ` E ! K 4.v -.h $.' Q }                                                 ",
"M + ] g.z ' A 9 m.Y q 4.*.k k.i S ~ I } - q H p.                                                ",
"8.h b C C } + . = = , R x m M i ,.].{ ) ~.f.k f                                                 ",
"{ } :.:.@.f.e ] 9 _ q C M 7.n & :.3.p.$.3 Q D +                                                 ",
"f.V D n P } 1 j s ..3 s s p ;.j p.6 1 (.3 ! ].3.                                                ",
"}.Z W [.y y % 7 * ' y :.! C 9.5 3.{ 4.2.R ..K &                                                 ",
"m.m.m.t._ _ r.] [ = r.r.n.^ ( r.^ _ s.* / _ _ l.                                                ",
"                                                                                                "};
