#define point_width 50
#define point_height 50
static unsigned char point_bits[] = {
   0x00, 0x00, 0x00, 0x00, 0x00, 0x00, 0x00, 0x00, 0x00, 0x00, 0x00, 0x00,
   0x00, 0x00, 0x00, 0x00, 0x00, 0x00, 0x00, 0x00, 0x00, 0x00, 0x00, 0x00,
   0x00, 0x00, 0x00, 0x00, 0x00, 0x00, 0x00, 0x00, 0x00, 0x00, 0x00, 0x00,
   0x00, 0x00, 0x00, 0x00, 0x00, 0x00, 0x00, 0x00, 0x00, 0x00, 0x00, 0x00,
   0x00, 0x00, 0x0f, 0x3c, 0xf0, 0xc0, 0x03, 0x00, 0x80, 0x1f, 0x7e, 0xf8,
   0xe1, 0x07, 0x00, 0x80, 0x1f, 0x7e, 0xf8, 0xe1, 0x07, 0x00, 0x80, 0x1f,
   0x7e, 0xf8, 0xe1, 0x07, 0x00, 0x80, 0x1f, 0x7e, 0xf8, 0xe1, 0x07, 0x00,
   0x00, 0x0f, 0x3c, 0xf0, 0xc0, 0x03, 0x00, 0x00, 0x00, 0x00, 0x00, 0x00,
   0x00, 0x00, 0x00, 0x00, 0x00, 0x00, 0x00, 0x00, 0x00, 0x00, 0x00, 0x00,
   0x00, 0x00, 0x00, 0x00, 0x00, 0x00, 0x00, 0x00, 0x00, 0x00, 0x00, 0x00,
   0x0f, 0x3c, 0xf0, 0xc0, 0x03, 0x00, 0x80, 0x1f, 0x7e, 0xf8, 0xe1, 0x07,
   0x00, 0x80, 0x1f, 0x7e, 0xf8, 0xe1, 0x07, 0x00, 0x80, 0x1f, 0x7e, 0xf8,
   0xe1, 0x07, 0x00, 0x80, 0x1f, 0x7e, 0xf8, 0xe1, 0x07, 0x00, 0x00, 0x0f,
   0x3c, 0xf0, 0xc0, 0x03, 0x00, 0x00, 0x00, 0x00, 0x00, 0x00, 0x00, 0x00,
   0x00, 0x00, 0x00, 0x00, 0x00, 0x00, 0x00, 0x00, 0x00, 0x00, 0x00, 0x00,
   0x00, 0x00, 0x00, 0x00, 0x00, 0x00, 0x00, 0x00, 0x00, 0x00, 0x0f, 0x3c,
   0xf0, 0xc0, 0x03, 0x00, 0x80, 0x1f, 0x7e, 0xf8, 0xe1, 0x07, 0x00, 0x80,
   0x1f, 0x7e, 0xf8, 0xe1, 0x07, 0x00, 0x80, 0x1f, 0x7e, 0xf8, 0xe1, 0x07,
   0x00, 0x80, 0x1f, 0x7e, 0xf8, 0xe1, 0x07, 0x00, 0x00, 0x0f, 0x3c, 0xf0,
   0xc0, 0x03, 0x00, 0x00, 0x00, 0x00, 0x00, 0x00, 0x00, 0x00, 0x00, 0x00,
   0x00, 0x00, 0x00, 0x00, 0x00, 0x00, 0x00, 0x00, 0x00, 0x00, 0x00, 0x00,
   0x00, 0x00, 0x00, 0x00, 0x00, 0x00, 0x00, 0x00, 0x0f, 0x3c, 0xf0, 0xc0,
   0x03, 0x00, 0x80, 0x1f, 0x7e, 0xf8, 0xe1, 0x07, 0x00, 0x80, 0x1f, 0x7e,
   0xf8, 0xe1, 0x07, 0x00, 0x80, 0x1f, 0x7e, 0xf8, 0xe1, 0x07, 0x00, 0x80,
   0x1f, 0x7e, 0xf8, 0xe1, 0x07, 0x00, 0x00, 0x0f, 0x3c, 0xf0, 0xc0, 0x03,
   0x00, 0x00, 0x00, 0x00, 0x00, 0x00, 0x00, 0x00, 0x00, 0x00, 0x00, 0x00,
   0x00, 0x00, 0x00, 0x00, 0x00, 0x00, 0x00, 0x00, 0x00, 0x00, 0x00, 0x00,
   0x00, 0x00, 0x00, 0x00, 0x00, 0x00, 0x00, 0x00, 0x00, 0x00, 0x00, 0x00,
   0x00, 0x00, 0x00, 0x00, 0x00, 0x00, 0x00, 0x00, 0x00, 0x00, 0x00, 0x00,
   0x00, 0x00 };
