#define arrow_width 50
#define arrow_height 50
static unsigned char arrow_bits[] = {
   0x00, 0x00, 0x00, 0x00, 0x00, 0x00, 0x00, 0x00, 0x00, 0x00, 0x00, 0x00,
   0x00, 0x00, 0x00, 0x00, 0x00, 0x00, 0x00, 0x00, 0x00, 0x00, 0x00, 0x00,
   0x00, 0x00, 0x00, 0x00, 0x00, 0x00, 0x00, 0x00, 0x00, 0x00, 0x00, 0x00,
   0x06, 0x00, 0x03, 0x80, 0x01, 0x00, 0x00, 0x0f, 0x80, 0x07, 0xc0, 0x03,
   0x00, 0x80, 0x1f, 0xc0, 0x0f, 0xe0, 0x07, 0x00, 0xc0, 0x3f, 0xe0, 0x1f,
   0xf0, 0x0f, 0x00, 0xc0, 0x36, 0x60, 0x1b, 0xb0, 0x0d, 0x00, 0x00, 0x06,
   0x00, 0x03, 0x80, 0x01, 0x00, 0x00, 0x06, 0x00, 0x03, 0x80, 0x01, 0x00,
   0x00, 0x06, 0x00, 0x03, 0x80, 0x01, 0x00, 0x00, 0x06, 0x00, 0x03, 0x80,
   0x01, 0x00, 0x00, 0x06, 0x00, 0x03, 0x80, 0x01, 0x00, 0x00, 0x06, 0x00,
   0x03, 0x80, 0x01, 0x00, 0x00, 0x00, 0x00, 0x00, 0x00, 0x00, 0x00, 0x00,
   0x00, 0x00, 0x00, 0x00, 0x00, 0x00, 0x00, 0x00, 0x00, 0x00, 0x00, 0x00,
   0x00, 0x00, 0x00, 0x00, 0x00, 0x00, 0x00, 0x00, 0x00, 0x06, 0x00, 0x03,
   0x80, 0x01, 0x00, 0x00, 0x0f, 0x80, 0x07, 0xc0, 0x03, 0x00, 0x80, 0x1f,
   0xc0, 0x0f, 0xe0, 0x07, 0x00, 0xc0, 0x3f, 0xe0, 0x1f, 0xf0, 0x0f, 0x00,
   0xc0, 0x36, 0x60, 0x1b, 0xb0, 0x0d, 0x00, 0x00, 0x06, 0x00, 0x03, 0x80,
   0x01, 0x00, 0x00, 0x06, 0x00, 0x03, 0x80, 0x01, 0x00, 0x00, 0x06, 0x00,
   0x03, 0x80, 0x01, 0x00, 0x00, 0x06, 0x00, 0x03, 0x80, 0x01, 0x00, 0x00,
   0x06, 0x00, 0x03, 0x80, 0x01, 0x00, 0x00, 0x06, 0x00, 0x03, 0x80, 0x01,
   0x00, 0x00, 0x00, 0x00, 0x00, 0x00, 0x00, 0x00, 0x00, 0x00, 0x00, 0x00,
   0x00, 0x00, 0x00, 0x00, 0x00, 0x00, 0x00, 0x00, 0x00, 0x00, 0x00, 0x00,
   0x00, 0x00, 0x00, 0x00, 0x00, 0x00, 0x06, 0x00, 0x03, 0x80, 0x01, 0x00,
   0x00, 0x0f, 0x80, 0x07, 0xc0, 0x03, 0x00, 0x80, 0x1f, 0xc0, 0x0f, 0xe0,
   0x07, 0x00, 0xc0, 0x3f, 0xe0, 0x1f, 0xf0, 0x0f, 0x00, 0xc0, 0x36, 0x60,
   0x1b, 0xb0, 0x0d, 0x00, 0x00, 0x06, 0x00, 0x03, 0x80, 0x01, 0x00, 0x00,
   0x06, 0x00, 0x03, 0x80, 0x01, 0x00, 0x00, 0x06, 0x00, 0x03, 0x80, 0x01,
   0x00, 0x00, 0x06, 0x00, 0x03, 0x80, 0x01, 0x00, 0x00, 0x06, 0x00, 0x03,
   0x80, 0x01, 0x00, 0x00, 0x06, 0x00, 0x03, 0x80, 0x01, 0x00, 0x00, 0x00,
   0x00, 0x00, 0x00, 0x00, 0x00, 0x00, 0x00, 0x00, 0x00, 0x00, 0x00, 0x00,
   0x00, 0x00, 0x00, 0x00, 0x00, 0x00, 0x00, 0x00, 0x00, 0x00, 0x00, 0x00,
   0x00, 0x00 };
