/* XPM */
static const char *camera_xpm[] = {
"32 32 429 2",
"  	c None",
". 	c #5E5E87",
"+ 	c #6A6A88",
"@ 	c #666684",
"# 	c #4A4A71",
"$ 	c #4E4E79",
"% 	c #5F5F86",
"& 	c #5E5E85",
"* 	c #66668E",
"= 	c #70708F",
"- 	c #767691",
"; 	c #767692",
"> 	c #737391",
", 	c #64648C",
"' 	c #626289",
") 	c #626288",
"! 	c #64648B",
"~ 	c #6B6B92",
"{ 	c #6B6B94",
"] 	c #6C6C94",
"^ 	c #67678F",
"/ 	c #696992",
"( 	c #6A6A93",
"_ 	c #696991",
": 	c #6D6D95",
"< 	c #6C6B94",
"[ 	c #6C6C95",
"} 	c #6E6D96",
"| 	c #707099",
"1 	c #585882",
"2 	c #565680",
"3 	c #E3E3E6",
"4 	c #F4F4F4",
"5 	c #F3F3F4",
"6 	c #E6E6EB",
"7 	c #D7D7E0",
"8 	c #CDCDDB",
"9 	c #CCCCDB",
"0 	c #D0D0DE",
"a 	c #D5D5E3",
"b 	c #D7D7E5",
"c 	c #D8D8E6",
"d 	c #DEDFEE",
"e 	c #B5B2B5",
"f 	c #989291",
"g 	c #BEBDC3",
"h 	c #D1D1D9",
"i 	c #D0D0D5",
"j 	c #CECED3",
"k 	c #D1D1D6",
"l 	c #CECED8",
"m 	c #D6D6E6",
"n 	c #DDDDE7",
"o 	c #E3E1E8",
"p 	c #E6E2E8",
"q 	c #E6E3EA",
"r 	c #DAD8E2",
"s 	c #D1D1E7",
"t 	c #C4C4E4",
"u 	c #373755",
"v 	c #6B6B8B",
"w 	c #E7E7E4",
"x 	c #E8E8E7",
"y 	c #EAEAEA",
"z 	c #D8D8DF",
"A 	c #C0C0CE",
"B 	c #B0B0C5",
"C 	c #B3B3C9",
"D 	c #B6B6CD",
"E 	c #B8B8D0",
"F 	c #C2C1DA",
"G 	c #9F9CAE",
"H 	c #234675",
"I 	c #4581C5",
"J 	c #2D3F5C",
"K 	c #D1CEC9",
"L 	c #747574",
"M 	c #656564",
"N 	c #DDDDDD",
"O 	c #DCDBDC",
"P 	c #AFB0B7",
"Q 	c #C3CAD4",
"R 	c #D5E3F0",
"S 	c #BDD9F1",
"T 	c #A4CEF0",
"U 	c #8FBCE3",
"V 	c #999DBF",
"W 	c #AEAEE0",
"X 	c #3F3F5D",
"Y 	c #656585",
"Z 	c #E2E2E1",
"` 	c #E9E9E8",
" .	c #C1C1CF",
"..	c #B2B2C6",
"+.	c #B5B5CA",
"@.	c #B7B7CE",
"#.	c #BBBBD2",
"$.	c #C2C2DA",
"%.	c #888287",
"&.	c #023881",
"*.	c #0064DF",
"=.	c #2E4771",
"-.	c #E1DCD5",
";.	c #1C1C1C",
">.	c #050506",
",.	c #D4D4D5",
"'.	c #FFFFFF",
").	c #EBEBED",
"!.	c #AAC0D6",
"~.	c #A1C2E3",
"{.	c #90B7DD",
"].	c #9BC2EB",
"^.	c #92B5D9",
"/.	c #A1A4C6",
"(.	c #A9A8DC",
"_.	c #3A3A5A",
":.	c #656586",
"<.	c #E3E3E1",
"[.	c #B8B8CF",
"}.	c #BBBBD3",
"|.	c #A5A5B2",
"1.	c #CFCFD2",
"2.	c #90939A",
"3.	c #515969",
"4.	c #BCBCBD",
"5.	c #C1C1C1",
"6.	c #B8B8B8",
"7.	c #FCFCFC",
"8.	c #F7F7FA",
"9.	c #F0F0F4",
"0.	c #E2E2E6",
"a.	c #DCDADF",
"b.	c #B0AEB2",
"c.	c #C3C1D8",
"d.	c #C8C6E7",
"e.	c #B6B6E0",
"f.	c #A7A7D9",
"g.	c #3B3B5B",
"h.	c #BBBBD1",
"i.	c #A5A5B5",
"j.	c #BBBBC1",
"k.	c #E8E8F1",
"l.	c #F3F2F5",
"m.	c #FBF7F3",
"n.	c #EEEEF3",
"o.	c #E9E9F0",
"p.	c #E0DFE5",
"q.	c #B1B0BB",
"r.	c #CACAEF",
"s.	c #BABAE6",
"t.	c #A7A7D8",
"u.	c #3C3C5B",
"v.	c #666687",
"w.	c #E3E3E0",
"x.	c #B6B6CC",
"y.	c #AAAAB1",
"z.	c #D9D9E4",
"A.	c #DFDFE9",
"B.	c #E8E8EE",
"C.	c #F3F3F7",
"D.	c #F9F9FB",
"E.	c #EDEDED",
"F.	c #D7D7D5",
"G.	c #CFCFCD",
"H.	c #DDDDDC",
"I.	c #F2F2F4",
"J.	c #F4F4F7",
"K.	c #EAEAF0",
"L.	c #E4E4EB",
"M.	c #E3E3EC",
"N.	c #CACACF",
"O.	c #ACACC3",
"P.	c #BCBCE8",
"Q.	c #A6A6D8",
"R.	c #A6A6B5",
"S.	c #C3C3CB",
"T.	c #D6D6E3",
"U.	c #DFDFE8",
"V.	c #E9E9EF",
"W.	c #F1F1F4",
"X.	c #D7D7D7",
"Y.	c #BFBFC2",
"Z.	c #BFBEC9",
"`.	c #C2C2CF",
" +	c #B8B8C0",
".+	c #C0C0C0",
"++	c #E4E4E5",
"@+	c #EEEEF4",
"#+	c #E4E4EC",
"$+	c #DEDEE8",
"%+	c #DDDDE6",
"&+	c #B3B3BE",
"*+	c #B4B4DF",
"=+	c #A6A6D9",
"-+	c #3D3D5C",
";+	c #666689",
">+	c #B3B3C7",
",+	c #A0A0AA",
"'+	c #C9C9D5",
")+	c #D4D4E0",
"!+	c #ECECF2",
"~+	c #C2C2C5",
"{+	c #CBCCDB",
"]+	c #AAAABA",
"^+	c #90909C",
"/+	c #C0C1D2",
"(+	c #C1C2CC",
"_+	c #BCBCBB",
":+	c #E7E7EB",
"<+	c #E5E5ED",
"[+	c #DCDCE8",
"}+	c #BEBEC5",
"|+	c #A8A8CC",
"1+	c #AAAADD",
"2+	c #676789",
"3+	c #B3B3C8",
"4+	c #B0B0C4",
"5+	c #A9A9B1",
"6+	c #CCCCDA",
"7+	c #D3D3DF",
"8+	c #E0E0E9",
"9+	c #EAEAEF",
"0+	c #CCCCCC",
"a+	c #D8D9E3",
"b+	c #95969F",
"c+	c #0D0E0E",
"d+	c #020201",
"e+	c #38393C",
"f+	c #CECFDB",
"g+	c #C1C1C5",
"h+	c #D9D9E5",
"i+	c #C7C7CC",
"j+	c #A0A0BC",
"k+	c #ABABDF",
"l+	c #686889",
"m+	c #AFAFC3",
"n+	c #B0B0B8",
"o+	c #CBCBD9",
"p+	c #E2E2EB",
"q+	c #E3E3E7",
"r+	c #CBCCCC",
"s+	c #EEF0F8",
"t+	c #363638",
"u+	c #000000",
"v+	c #9A9BA1",
"w+	c #D8D9DF",
"x+	c #C7C7C6",
"y+	c #EAEAF1",
"z+	c #D8D8E4",
"A+	c #CECED4",
"B+	c #A1A1BA",
"C+	c #A9A9DE",
"D+	c #3D3D5D",
"E+	c #68688A",
"F+	c #AEAEB7",
"G+	c #E1E1EA",
"H+	c #E5E5E9",
"I+	c #C9C9C9",
"J+	c #EDF0F6",
"K+	c #47484B",
"L+	c #A9ABB0",
"M+	c #D4D6DA",
"N+	c #C4C4C4",
"O+	c #CCCCD2",
"P+	c #9F9FBA",
"Q+	c #69698B",
"R+	c #B0B0C6",
"S+	c #A6A6AE",
"T+	c #EBEBF1",
"U+	c #CCCDCD",
"V+	c #D6D7DB",
"W+	c #BEC0C6",
"X+	c #404042",
"Y+	c #282729",
"Z+	c #707275",
"`+	c #E0E2E9",
" @	c #B8B9BA",
".@	c #D1D1D3",
"+@	c #DEDEE7",
"@@	c #DADAE5",
"#@	c #C4C4C9",
"$@	c #A1A1BF",
"%@	c #ABABE0",
"&@	c #3E3E5E",
"*@	c #6A6A8B",
"=@	c #B2B2C7",
"-@	c #A0A0AC",
";@	c #C8C8D3",
">@	c #E2E1E3",
",@	c #D2D4D8",
"'@	c #D9DBE1",
")@	c #D0D2D9",
"!@	c #DCDEE4",
"~@	c #BDBEC0",
"{@	c #B3B3B3",
"]@	c #E9E9ED",
"^@	c #E6E6ED",
"/@	c #BCBCC3",
"(@	c #ADADD3",
"_@	c #A9A9DC",
":@	c #3F3F5E",
"<@	c #B8B8CE",
"[@	c #A9A9BB",
"}@	c #BDBDC5",
"|@	c #D7D7E4",
"1@	c #F5F5F8",
"2@	c #E2E2E2",
"3@	c #C6C6C5",
"4@	c #BFBFC1",
"5@	c #BBBCBD",
"6@	c #B8B8B9",
"7@	c #BBBBBA",
"8@	c #E8E8EB",
"9@	c #DBDBE2",
"0@	c #AFAFBC",
"a@	c #B8B8E3",
"b@	c #3F3F5F",
"c@	c #6B6B8C",
"d@	c #B5B5CB",
"e@	c #B7B7CD",
"f@	c #A3A3AB",
"g@	c #D6D6DE",
"h@	c #E1E1EB",
"i@	c #FAFAFD",
"j@	c #F8F8F7",
"k@	c #EBEBEB",
"l@	c #E6E6E5",
"m@	c #F6F6F9",
"n@	c #E4E4ED",
"o@	c #BFBFC3",
"p@	c #B2B2CD",
"q@	c #BBBBE7",
"r@	c #6B6B8D",
"s@	c #BABAD1",
"t@	c #ACACC0",
"u@	c #AEAEB4",
"v@	c #E5E5EE",
"w@	c #F7F7F9",
"x@	c #FCFCFE",
"y@	c #FEFEFF",
"z@	c #D4D4D8",
"A@	c #B0B0C0",
"B@	c #CECEF3",
"C@	c #40405F",
"D@	c #6C6C8D",
"E@	c #BEBED5",
"F@	c #A8A8B9",
"G@	c #B8B8BC",
"H@	c #F8F8FA",
"I@	c #FBFBFD",
"J@	c #FBFBFC",
"K@	c #F6F6F8",
"L@	c #F1F1F6",
"M@	c #D7D7DB",
"N@	c #B0B0BB",
"O@	c #D8D8F7",
"P@	c #B7B7E2",
"Q@	c #6F6F90",
"R@	c #E6E6E2",
"S@	c #EAEAE9",
"T@	c #ECECEB",
"U@	c #DADAE0",
"V@	c #C3C3D0",
"W@	c #B6B6CB",
"X@	c #B9B9CF",
"Y@	c #BCBCD2",
"Z@	c #C1C1D9",
"`@	c #AFAFC1",
" #	c #DEDEDE",
".#	c #FDFDFD",
"+#	c #ECECEE",
"@#	c #C6C6C9",
"##	c #B2B2C1",
"$#	c #DCDCF6",
"%#	c #E2E2FF",
"&#	c #CDCDF1",
"*#	c #A9A9DB",
"=#	c #424262",
"-#	c #53537C",
";#	c #C7C7D0",
">#	c #E8E8EA",
",#	c #D5D5E0",
"'#	c #BFBFD2",
")#	c #B1B1C9",
"!#	c #B4B4CD",
"~#	c #B7B7D1",
"{#	c #BABAD4",
"]#	c #BCBCD6",
"^#	c #C2C2DF",
"/#	c #BABAD5",
"(#	c #A8A8BC",
"_#	c #B2B2BC",
":#	c #DDDDE0",
"<#	c #E4E4E6",
"[#	c #D4D4D6",
"}#	c #BABAC2",
"|#	c #B1B1C0",
"1#	c #BFBFDA",
"2#	c #DDDDFE",
"3#	c #DFDFFF",
"4#	c #DCDCFE",
"5#	c #CBCBF2",
"6#	c #B9B9E7",
"7#	c #9B9BCE",
"8#	c #32324D",
"9#	c #30304B",
"0#	c #3D3D56",
"a#	c #3D3D55",
"b#	c #3B3B55",
"c#	c #393954",
"d#	c #383853",
"e#	c #3A3A55",
"f#	c #3A3A56",
"g#	c #3C3C57",
"h#	c #3E3E5A",
"i#	c #383854",
"j#	c #2E2E46",
"k#	c #333347",
"l#	c #37374A",
"m#	c #313146",
"n#	c #33334D",
"o#	c #42425F",
"p#	c #474764",
"q#	c #454560",
"r#	c #434361",
"s#	c #444461",
"t#	c #444460",
"u#	c #424261",
"v#	c #09090E",
"                                                                ",
"                                                                ",
"                                                                ",
"                                                                ",
"                                                                ",
"            . + @ #                                             ",
"    $ % & * = - ; > , ' ) ! ~ { ] ^ / ( _ { : < { [ : } | 1     ",
"  2 3 4 5 6 7 8 9 0 a b c d e f g h i j k l m n o p q r s t u   ",
"  v w x y z A B B C D E F G H I J K L M N O P Q R S T U V W X   ",
"  Y Z ` y z  .....+.@.#.$.%.&.*.=.-.;.>.,.'.).!.~.{.].^./.(._.  ",
"  :.<.` y z  .....+.[.}.|.1.2.3.4.'.5.6.7.8.9.0.a.b.c.d.e.f.g.  ",
"  :.<.` y z  .....+.h.i.j.k.l.m.'.'.'.'.'.8.9.n.o.p.q.r.s.t.u.  ",
"  v.w.` y z  .....x.C y.z.A.B.C.D.E.F.G.H.I.J.K.L.M.N.O.P.Q.u.  ",
"  v.w.` y z  .....[.R.S.T.U.V.W.X.Y.Z.`. +.+++@+#+$+%+&+*+=+-+  ",
"  ;+w.` y z  ...>++.,+'+)+U.!+N ~+{+]+^+/+(+_+:+<+n [+}+|+1+-+  ",
"  2+w.` y z  ...3+4+5+6+7+8+9+0+a+b+c+d+e+f+g+,.V.n h+i+j+k+-+  ",
"  l+w.` y z  ...3+m+n+o+7+p+q+r+s+t+u+u+u+v+w+x+y+n z+A+B+C+D+  ",
"  E+w.` y z  ...3+m+F+o+7+G+H+I+J+K+u+u+u+L+M+N+y+n z.O+P+C+D+  ",
"  Q+w.` y z  ...3+R+S+o+7+U.T+U+V+W+X+Y+Z+`+ @.@o.+@@@#@$@%@&@  ",
"  *@w.` y z  ...=@x.-@;@)+U.T+>@.+,@'@)@!@~@{@]@^@n $+/@(@_@:@  ",
"  *@w.` y z  .....<@[@}@|@U.B.1@2@3@4@5@6@7@8@@+#+$+9@0@a@t.b@  ",
"  c@w.` y z  .....d@e@f@g@h@B.W.i@j@k@l@y m@C.K.#+n@o@p@q@t.b@  ",
"  r@w.` y z  .....+.s@t@u@v@V.W.w@x@'.'.y@w@9.K.o.z@A@B@a@f.C@  ",
"  D@w.` y z  .....+.@.E@F@G@9+8.H@I@y@'.J@K@C.L@M@N@O@B@P@f.C@  ",
"  Q@R@S@T@U@V@>+>+W@X@Y@Z@`@u@ #.#'.'.'.'.'.+#@###$#%#&#a@*#=#  ",
"  -#;#>#6 ,#'#)#)#!#~#{#]#^#/#(#_##@:#<#[#}#|#1#2#3#4#5#6#7#8#  ",
"    9#0#a#b#c#d#c#c#e#f#g#g#h#X i#j#k#l#m#n#o#p#q#r#s#t#u#n#v#  ",
"                                                                ",
"                                                                ",
"                                                                ",
"                                                                ",
"                                                                "};
