/* XPM */
static const char *filesave_xpm[] = {
"32 32 460 2",
"  	c None",
". 	c #000592",
"+ 	c #061BA6",
"@ 	c #0A1CA6",
"# 	c #091BA4",
"$ 	c #081AA3",
"% 	c #081AA2",
"& 	c #071AA2",
"* 	c #0719A2",
"= 	c #0618A2",
"- 	c #0518A1",
"; 	c #081BA5",
"> 	c #061CA6",
", 	c #000A96",
"' 	c #000994",
") 	c #427CE0",
"! 	c #70B7FD",
"~ 	c #8EB5E9",
"{ 	c #B7CDEB",
"] 	c #B6D0F3",
"^ 	c #B3CEF1",
"/ 	c #B2CCF0",
"( 	c #B0CBF0",
"_ 	c #AEC9EF",
": 	c #ADC9EF",
"< 	c #ADC8EE",
"[ 	c #AEC8EE",
"} 	c #AEC8ED",
"| 	c #AEC9ED",
"1 	c #AFC9EC",
"2 	c #AFC9EB",
"3 	c #AFC8EB",
"4 	c #AFC9EA",
"5 	c #B1CAEB",
"6 	c #B3C8E4",
"7 	c #7EA4D6",
"8 	c #4FA2FF",
"9 	c #3783EE",
"0 	c #04149E",
"a 	c #0D26AE",
"b 	c #81C6FF",
"c 	c #93CDFF",
"d 	c #BBCDE5",
"e 	c #FFFBF3",
"f 	c #FFFFFF",
"g 	c #FDFFFF",
"h 	c #FAFCFF",
"i 	c #F9FBFF",
"j 	c #F6F9FF",
"k 	c #F2F7FF",
"l 	c #F2F6FF",
"m 	c #F4F8FF",
"n 	c #F7F9FF",
"o 	c #FBFCFF",
"p 	c #FDFEFF",
"q 	c #FFFFF5",
"r 	c #A9B8CB",
"s 	c #5CA2F2",
"t 	c #55A8F4",
"u 	c #133EC2",
"v 	c #112AB0",
"w 	c #7EC1FF",
"x 	c #8AC5FF",
"y 	c #B6C9E6",
"z 	c #F6F3F2",
"A 	c #F8FBFF",
"B 	c #F0F3FF",
"C 	c #EDF2FF",
"D 	c #EAF0FF",
"E 	c #E7EDFF",
"F 	c #E6EDFF",
"G 	c #E8EEFF",
"H 	c #EBF0FF",
"I 	c #EDF3FF",
"J 	c #EFF3FF",
"K 	c #F1F5FF",
"L 	c #F3F6FF",
"M 	c #F6F4F4",
"N 	c #A6B6D0",
"O 	c #387ECA",
"P 	c #2F7CC8",
"Q 	c #1943C5",
"R 	c #112BAF",
"S 	c #7DC0FF",
"T 	c #88C4FF",
"U 	c #B8CCE7",
"V 	c #F8F5F3",
"W 	c #F4F7FF",
"X 	c #ECF2FF",
"Y 	c #EAEFFF",
"Z 	c #E7EEFF",
"` 	c #E9EFFF",
" .	c #F5F3F4",
"..	c #A4B4CB",
"+.	c #529FF9",
"@.	c #4CA4FB",
"#.	c #1840C1",
"$.	c #142DAF",
"%.	c #7CC0FF",
"&.	c #86C2FF",
"*.	c #BBCEE9",
"=.	c #FBF8F4",
"-.	c #F7F8FF",
";.	c #EEF4FF",
">.	c #F3F3F4",
",.	c #A6B6CC",
"'.	c #5AA5FF",
").	c #56AAFF",
"!.	c #1B43C1",
"~.	c #152EAF",
"{.	c #7BC0FF",
"].	c #84C1FF",
"^.	c #BED1EA",
"/.	c #FCF9F4",
"(.	c #FBFDFF",
"_.	c #F2F5FF",
":.	c #EBF1FF",
"<.	c #F0F4FF",
"[.	c #F2F2F5",
"}.	c #A8B8CE",
"|.	c #57A3FE",
"1.	c #53A8FF",
"2.	c #1E44C1",
"3.	c #162FAF",
"4.	c #82C0FF",
"5.	c #C0D2EC",
"6.	c #FCFAF4",
"7.	c #F9FAFF",
"8.	c #F6F8FF",
"9.	c #F4F6FF",
"0.	c #F1F4FF",
"a.	c #E9F0FF",
"b.	c #EEF3FF",
"c.	c #EFF0F5",
"d.	c #ABBACF",
"e.	c #56A2FE",
"f.	c #51A8FF",
"g.	c #2045C1",
"h.	c #1831AF",
"i.	c #7ABFFF",
"j.	c #7FBDFF",
"k.	c #C3D5ED",
"l.	c #FEFAF6",
"m.	c #F5F7FF",
"n.	c #E6EEFF",
"o.	c #EEEFF6",
"p.	c #AEBDD2",
"q.	c #53A1FE",
"r.	c #4FA6FF",
"s.	c #2248C1",
"t.	c #1A31AF",
"u.	c #7EBDFF",
"v.	c #C5D8EE",
"w.	c #FFFEFF",
"x.	c #F8FAFF",
"y.	c #EDEEF6",
"z.	c #B0BFD3",
"A.	c #4EA5FF",
"B.	c #254AC1",
"C.	c #1D33AF",
"D.	c #7ABEFF",
"E.	c #7BBCFF",
"F.	c #C8DAF0",
"G.	c #FFFBF7",
"H.	c #FCFCFF",
"I.	c #EBEEF7",
"J.	c #B3C1D4",
"K.	c #509FFE",
"L.	c #4CA4FF",
"M.	c #294CC1",
"N.	c #1E34AF",
"O.	c #79BAFF",
"P.	c #CCDDF1",
"Q.	c #FFFDF8",
"R.	c #FDFDFF",
"S.	c #ECF1FF",
"T.	c #EBEDF7",
"U.	c #B6C3D5",
"V.	c #509EFE",
"W.	c #4BA4FF",
"X.	c #2B4DC1",
"Y.	c #2036AF",
"Z.	c #79BEFF",
"`.	c #77B9FF",
" +	c #CEDFF4",
".+	c #F4F1F0",
"++	c #EEEFF2",
"@+	c #EDEEF0",
"#+	c #EBEDEF",
"$+	c #EAECEE",
"%+	c #E9EAEC",
"&+	c #E8E8EB",
"*+	c #E6E6E8",
"=+	c #E4E5E7",
"-+	c #E2E3E6",
";+	c #E0E1E5",
">+	c #DFE0E4",
",+	c #DCDDE2",
"'+	c #DBDCE0",
")+	c #D9DADF",
"!+	c #D6D9DE",
"~+	c #D9D7D7",
"{+	c #BBC8D9",
"]+	c #4F9EFF",
"^+	c #4AA3FF",
"/+	c #2E4FC1",
"(+	c #2237AF",
"_+	c #77B8FF",
":+	c #8CC0FE",
"<+	c #8FC1FD",
"[+	c #8DC0FC",
"}+	c #8CC0FC",
"|+	c #8BBFFC",
"1+	c #8ABEFC",
"2+	c #88BDFC",
"3+	c #86BCFB",
"4+	c #85BBFA",
"5+	c #84BAFA",
"6+	c #82B8FA",
"7+	c #81B8FA",
"8+	c #80B7FA",
"9+	c #7EB6F9",
"0+	c #7CB4F9",
"a+	c #7BB4F8",
"b+	c #7BB3F9",
"c+	c #77B2FC",
"d+	c #489AFF",
"e+	c #4AA2FF",
"f+	c #3050C1",
"g+	c #2438AF",
"h+	c #74B6FF",
"i+	c #6DB2FF",
"j+	c #69B0FF",
"k+	c #5CA7FF",
"l+	c #57A2FF",
"m+	c #55A1FF",
"n+	c #529FFF",
"o+	c #509EFF",
"p+	c #4D9CFF",
"q+	c #4A9BFF",
"r+	c #479AFF",
"s+	c #4599FF",
"t+	c #4296FF",
"u+	c #4095FF",
"v+	c #3C92FF",
"w+	c #3F95FF",
"x+	c #469AFF",
"y+	c #4398FF",
"z+	c #4097FF",
"A+	c #3E95FF",
"B+	c #3E94FF",
"C+	c #4BA3FF",
"D+	c #3252C1",
"E+	c #273AAF",
"F+	c #70B5FF",
"G+	c #70B6FF",
"H+	c #5595FA",
"I+	c #6083E9",
"J+	c #7898E9",
"K+	c #7395E9",
"L+	c #7394E9",
"M+	c #7294E9",
"N+	c #7193E9",
"O+	c #7092E9",
"P+	c #6F92E9",
"Q+	c #7496E9",
"R+	c #537EEB",
"S+	c #1A53F2",
"T+	c #2965F5",
"U+	c #4295FE",
"V+	c #4198FF",
"W+	c #3D94FF",
"X+	c #49A2FF",
"Y+	c #3654C1",
"Z+	c #293CAF",
"`+	c #6EB3FF",
" @	c #6BB2FF",
".@	c #5692F6",
"+@	c #CDCEE2",
"@@	c #FFFAED",
"#@	c #FBF6ED",
"$@	c #FEF9ED",
"%@	c #FAF5ED",
"&@	c #F7F3EC",
"*@	c #F7F4EC",
"=@	c #FFFDEC",
"-@	c #B1BBE3",
";@	c #184AEF",
">@	c #295FF3",
",@	c #4194FE",
"'@	c #3F96FF",
")@	c #3A92FF",
"!@	c #49A1FF",
"~@	c #3856C1",
"{@	c #2A3CAF",
"]@	c #6BB1FF",
"^@	c #68B0FF",
"/@	c #5392F5",
"(@	c #C6CBE2",
"_@	c #F9F8F1",
":@	c #E6E7EA",
"<@	c #E0E4E8",
"[@	c #E9E9EB",
"}@	c #F1F1F1",
"|@	c #FCF9F0",
"1@	c #ADBAE3",
"2@	c #295BEF",
"3@	c #386DF5",
"4@	c #3F93FE",
"5@	c #3790FF",
"6@	c #47A0FF",
"7@	c #3B57C1",
"8@	c #2D3EAF",
"9@	c #68AFFF",
"0@	c #65AFFF",
"a@	c #5190F4",
"b@	c #C0C4DE",
"c@	c #FBF6EA",
"d@	c #6981DE",
"e@	c #1E39E6",
"f@	c #98A7DD",
"g@	c #F4F0EB",
"h@	c #F2EFEA",
"i@	c #AAB7E1",
"j@	c #3768F1",
"k@	c #4378F7",
"l@	c #3E92FE",
"m@	c #358EFF",
"n@	c #46A0FF",
"o@	c #3D59C1",
"p@	c #2E3FAF",
"q@	c #65ADFF",
"r@	c #63AEFF",
"s@	c #508EF5",
"t@	c #BABEDA",
"u@	c #F7F1E4",
"v@	c #4F6FE1",
"w@	c #001CEF",
"x@	c #899ADB",
"y@	c #EFEBE6",
"z@	c #E2E2E7",
"A@	c #EAE7E6",
"B@	c #A8B5DD",
"C@	c #4575F2",
"D@	c #4F83F7",
"E@	c #3C91FE",
"F@	c #3791FF",
"G@	c #318CFF",
"H@	c #45A0FF",
"I@	c #415BC1",
"J@	c #3140AF",
"K@	c #78BEFF",
"L@	c #62ACFF",
"M@	c #61ADFF",
"N@	c #4C8DF4",
"O@	c #B3B7D6",
"P@	c #EEE8E0",
"Q@	c #5170DF",
"R@	c #0024EE",
"S@	c #8798D8",
"T@	c #E6E3E2",
"U@	c #DADAE3",
"V@	c #E2DFE1",
"W@	c #A7B3DA",
"X@	c #5482F4",
"Y@	c #5B8EF8",
"Z@	c #3A90FE",
"`@	c #338FFF",
" #	c #2E8BFF",
".#	c #449FFF",
"+#	c #425CC1",
"@#	c #3442AF",
"##	c #5FAAFF",
"$#	c #5FABFF",
"%#	c #4B8BF3",
"&#	c #AEB1D2",
"*#	c #E7E1DB",
"=#	c #4B69DC",
"-#	c #0023EF",
";#	c #8294D4",
">#	c #DFDCDD",
",#	c #D3D3DF",
"'#	c #DAD7DD",
")#	c #A5B1D7",
"!#	c #628EF6",
"~#	c #6799FA",
"{#	c #388FFF",
"]#	c #2C88FF",
"^#	c #429DFF",
"/#	c #465EC1",
"(#	c #3543AF",
"_#	c #5DA8FF",
":#	c #5DAAFF",
"<#	c #498AF3",
"[#	c #A4A9CC",
"}#	c #D3D1D5",
"|#	c #969FCB",
"1#	c #7989CE",
"2#	c #A8ADCB",
"3#	c #CCCBD7",
"4#	c #C8C8D7",
"5#	c #CECBD5",
"6#	c #A2AED3",
"7#	c #709CF7",
"8#	c #73A5FB",
"9#	c #378FFE",
"0#	c #2A87FF",
"a#	c #4860C1",
"b#	c #3645B0",
"c#	c #77C0FF",
"d#	c #57A4FF",
"e#	c #56A7FF",
"f#	c #4386F3",
"g#	c #989CC4",
"h#	c #C0BFCC",
"i#	c #C1BFCB",
"j#	c #C6C2C9",
"k#	c #BDBCCC",
"l#	c #B9B9CC",
"m#	c #BABACC",
"n#	c #BDBBC9",
"o#	c #9EA9CD",
"p#	c #7EA9FA",
"q#	c #7DAFFD",
"r#	c #318BFF",
"s#	c #2686FF",
"t#	c #2182FF",
"u#	c #3E9DFF",
"v#	c #4A63C2",
"w#	c #1A1F9A",
"x#	c #76AEF0",
"y#	c #71BEFF",
"z#	c #6BBAFF",
"A#	c #589BF7",
"B#	c #ABAFCA",
"C#	c #DCDAD9",
"D#	c #D4D4DA",
"E#	c #D4D4D9",
"F#	c #D7D5D7",
"G#	c #AFBBD3",
"H#	c #99C7FF",
"I#	c #98CBFF",
"J#	c #419DFF",
"K#	c #3F9EFF",
"L#	c #5AA7F9",
"M#	c #2C37A7",
"N#	c #222AA2",
"O#	c #4C61BF",
"P#	c #495FC0",
"Q#	c #485BBB",
"R#	c #5052A1",
"S#	c #5757A0",
"T#	c #5656A1",
"U#	c #57569F",
"V#	c #4F54A6",
"W#	c #4D60BE",
"X#	c #465EBF",
"Y#	c #465CBF",
"Z#	c #4A61BF",
"`#	c #2D38A7",
"                                                                ",
"                                                                ",
"        . + @ # $ $ % % % % & * * * * = = - - = ; > ,           ",
"      ' ) ! ~ { ] ^ / ( _ : < [ } | 1 2 3 4 5 6 7 8 9 0         ",
"      a b c d e f g h i j k l m n i o p f f f q r s t u         ",
"      v w x y z A m l B C D E F G H I J K L j M N O P Q         ",
"      R S T U V o n W K J X Y Z F ` H C J K m  ...+.@.#.        ",
"      $.%.&.*.=.p i -.W l ;.C D F F G H X J l >.,.'.).!.        ",
"      ~.{.].^./.f (.A n W _.J C D Z F ` :.I <.[.}.|.1.2.        ",
"      3.%.4.5.6.f f o 7.8.9.0.B C Y E F a.:.b.c.d.e.f.g.        ",
"      h.i.j.k.l.f f f o 7.j m.K ;.X D n.F ` :.o.p.q.r.s.        ",
"      t.i.u.v.l.f f f w.o x.8.W _.b.C Y Z F D y.z.q.A.B.        ",
"      C.D.E.F.G.f f f f f H.7.n W _.<.C D Z Z I.J.K.L.M.        ",
"      N.D.O.P.Q.f f f f f f R.o 7.8.W K b.S.a.T.U.V.W.X.        ",
"      Y.Z.`. +.+++@+#+$+%+&+*+=+-+;+>+,+'+)+!+~+{+]+^+/+        ",
"      (+Z._+:+<+[+}+|+1+2+3+4+5+5+6+7+8+9+0+a+b+c+d+e+f+        ",
"      g+i.h+i+j+k+l+m+n+o+p+q+r+s+t+u+v+w+x+y+z+A+B+C+D+        ",
"      E+D.F+G+H+I+J+K+L+M+M+M+N+O+O+P+Q+R+S+T+U+V+W+X+Y+        ",
"      Z+D.`+ @.@+@@@#@$@%@&@&@*@*@*@*@=@-@;@>@,@'@)@!@~@        ",
"      {@Z.]@^@/@(@_@:@<@[@}@}@}@}@}@}@|@1@2@3@4@W+5@6@7@        ",
"      8@D.9@0@a@b@c@d@e@f@g@&+&+&+&+&+h@i@j@k@l@)@m@n@o@        ",
"      p@Z.q@r@s@t@u@v@w@x@y@z@z@z@z@z@A@B@C@D@E@F@G@H@I@        ",
"      J@K@L@M@N@O@P@Q@R@S@T@U@U@U@U@U@V@W@X@Y@Z@`@ #.#+#        ",
"      @#Z.##$#%#&#*#=#-#;#>#,#,#,#,#,#'#)#!#~#{#G@]#^#/#        ",
"      (#K@_#:#<#[#}#|#1#2#3#4#4#4#4#4#5#6#7#8#9# #0#^#a#        ",
"      b#c#d#e#f#g#h#i#j#k#l#m#m#m#m#m#n#o#p#q#r#s#t#u#v#        ",
"      w#x#y#z#A#B#C#D#D#D#E#E#E#E#E#E#F#G#H#I#e+J#K#L#M#        ",
"        N#O#P#Q#R#S#T#T#T#T#T#T#T#T#T#U#V#W#O#X#Y#Z#`#          ",
"                                                                ",
"                                                                ",
"                                                                ",
"                                                                "};
