/* XPM */
static const char *kchart_xpm[] = {
"32 32 516 2",
"  	c None",
". 	c #1D34B2",
"+ 	c #C85A00",
"@ 	c #C85900",
"# 	c #C95B00",
"$ 	c #D46200",
"% 	c #9D4813",
"& 	c #3338A1",
"* 	c #73A3E8",
"= 	c #7BC5FE",
"- 	c #3473E5",
"; 	c #353692",
"> 	c #BA5707",
", 	c #D26500",
"' 	c #F09300",
") 	c #F4A107",
"! 	c #F49F08",
"~ 	c #F19E06",
"{ 	c #9C552F",
"] 	c #7075B9",
"^ 	c #B1E0FE",
"/ 	c #A3DFFF",
"( 	c #7BC3FF",
"_ 	c #61B9FF",
": 	c #499EFB",
"< 	c #4255B2",
"[ 	c #B56D30",
"} 	c #F4A407",
"| 	c #F19801",
"1 	c #D86A00",
"2 	c #EB8500",
"3 	c #FFE73F",
"4 	c #FFFFCC",
"5 	c #FFFECA",
"6 	c #FFFEC9",
"7 	c #9DA3AA",
"8 	c #7692D6",
"9 	c #D6F5FF",
"0 	c #BDE9FF",
"a 	c #9CD5FF",
"b 	c #7BC2FF",
"c 	c #5DB0FF",
"d 	c #5BB3FF",
"e 	c #4FABFF",
"f 	c #286CE1",
"g 	c #CBD3CC",
"h 	c #FFF857",
"i 	c #F39700",
"j 	c #C25C00",
"k 	c #EC8B00",
"l 	c #FFE853",
"m 	c #FFFCE7",
"n 	c #FFFAE1",
"o 	c #FFFAE0",
"p 	c #FFFFE1",
"q 	c #808DCB",
"r 	c #53A3FD",
"s 	c #A0D6FF",
"t 	c #BBE5FF",
"u 	c #A2D8FF",
"v 	c #7EC3FF",
"w 	c #63B5FF",
"x 	c #50A8FF",
"y 	c #2288FF",
"z 	c #015FFA",
"A 	c #B4C0EE",
"B 	c #FFF96A",
"C 	c #F29F00",
"D 	c #C05C00",
"E 	c #EA8A00",
"F 	c #FFE545",
"G 	c #FFF7C3",
"H 	c #FFF5BE",
"I 	c #FFF5BD",
"J 	c #FFFFBD",
"K 	c #8590BA",
"L 	c #4095FA",
"M 	c #54ADFF",
"N 	c #74BDFF",
"O 	c #97D2FF",
"P 	c #86C9FF",
"Q 	c #47A0FF",
"R 	c #0E75FF",
"S 	c #006AFF",
"T 	c #005DF7",
"U 	c #B8BFD2",
"V 	c #FFF558",
"W 	c #F29E00",
"X 	c #BE5C00",
"Y 	c #EA8900",
"Z 	c #FFE43B",
"` 	c #FFF2AA",
" .	c #FFF1A6",
"..	c #FFF1A5",
"+.	c #FFFCA3",
"@.	c #8891B3",
"#.	c #4398FC",
"$.	c #57AFFF",
"%.	c #52AAFF",
"&.	c #62B4FF",
"*.	c #489FFF",
"=.	c #036CFF",
"-.	c #006EFF",
";.	c #005EFA",
">.	c #B8BDC1",
",.	c #FFF34B",
"'.	c #F29D00",
").	c #BB5B00",
"!.	c #E98900",
"~.	c #FFE232",
"{.	c #FFEE8E",
"].	c #FFED8B",
"^.	c #FFED8A",
"/.	c #FFEF8D",
"(.	c #FFF483",
"_.	c #70839C",
":.	c #459AFE",
"<.	c #58AFFF",
"[.	c #57ADFF",
"}.	c #58AEFF",
"|.	c #1D83FF",
"1.	c #0068FF",
"2.	c #006DFF",
"3.	c #005FFC",
"4.	c #B8BAAF",
"5.	c #FFF13D",
"6.	c #F19D00",
"7.	c #B85B00",
"8.	c #E88800",
"9.	c #FFE02A",
"0.	c #FFEA77",
"a.	c #FFE974",
"b.	c #FFE973",
"c.	c #FFEE75",
"d.	c #ECE068",
"e.	c #84B739",
"f.	c #2A6D80",
"g.	c #4E9EFF",
"h.	c #5AAFFF",
"i.	c #2286FF",
"j.	c #0069FF",
"k.	c #0063FF",
"l.	c #B9C1A3",
"m.	c #FFF131",
"n.	c #F09C00",
"o.	c #B65C00",
"p.	c #E88700",
"q.	c #FFDF21",
"r.	c #FFE760",
"s.	c #FFE55D",
"t.	c #FFE55C",
"u.	c #FFE75D",
"v.	c #FFE759",
"w.	c #B7C342",
"x.	c #69AF46",
"y.	c #7BD75B",
"z.	c #4D8C9B",
"A.	c #4B9AFF",
"B.	c #0071FF",
"C.	c #0C4DD1",
"D.	c #AB7E5B",
"E.	c #FBE821",
"F.	c #F5A400",
"G.	c #B45C00",
"H.	c #E68601",
"I.	c #FFD509",
"J.	c #FFDD34",
"K.	c #FFE346",
"L.	c #FFE244",
"M.	c #FFE344",
"N.	c #F0DC3F",
"O.	c #92B53D",
"P.	c #7DC778",
"Q.	c #A4EC9A",
"R.	c #9FEF75",
"S.	c #4B8B9B",
"T.	c #4B9BFF",
"U.	c #0069F9",
"V.	c #3C4293",
"W.	c #BA4851",
"X.	c #DF5051",
"Y.	c #C2621B",
"Z.	c #D27800",
"`.	c #B66400",
" +	c #E68204",
".+	c #FFCC09",
"++	c #FFCA0D",
"@+	c #FFD525",
"#+	c #FFDF2E",
"$+	c #FFE530",
"%+	c #A2B51A",
"&+	c #73C873",
"*+	c #CBFFC9",
"=+	c #B0F19F",
"-+	c #9BEB71",
";+	c #4B8C9F",
">+	c #1B8AFF",
",+	c #0358DD",
"'+	c #643C70",
")+	c #E6625A",
"!+	c #FF807C",
"~+	c #FF7475",
"{+	c #F25A63",
"]+	c #B9352E",
"^+	c #933602",
"/+	c #E57E06",
"(+	c #FFC511",
"_+	c #FFC112",
":+	c #FFBD13",
"<+	c #FFC419",
"[+	c #FFD71C",
"}+	c #9DB312",
"|+	c #50BD2E",
"1+	c #8ADF67",
"2+	c #A5EC92",
"3+	c #A0ED78",
"4+	c #4C8FA3",
"5+	c #57AEFF",
"6+	c #55B2FF",
"7+	c #4669B8",
"8+	c #A34D60",
"9+	c #FA837C",
"0+	c #FF8B8A",
"a+	c #FF7B7B",
"b+	c #FF7070",
"c+	c #FF6969",
"d+	c #FF696C",
"e+	c #D74A4F",
"f+	c #820B10",
"g+	c #E47B08",
"h+	c #FFBC18",
"i+	c #FFBB18",
"j+	c #FFBA16",
"k+	c #FFB815",
"l+	c #A4A30F",
"m+	c #4EC425",
"n+	c #66D229",
"o+	c #6FD33B",
"p+	c #8BE358",
"q+	c #4E91A8",
"r+	c #4B9CFF",
"s+	c #51B1FF",
"t+	c #8D506C",
"u+	c #FF6158",
"v+	c #FF9191",
"w+	c #FF8989",
"x+	c #FF7C7C",
"y+	c #FF7171",
"z+	c #FF6A6A",
"A+	c #FF6B6B",
"B+	c #F84747",
"C+	c #AA0C0C",
"D+	c #E87907",
"E+	c #FFB916",
"F+	c #EAAA29",
"G+	c #CA9444",
"H+	c #AF8256",
"I+	c #A27A62",
"J+	c #6A685D",
"K+	c #3B7D5D",
"L+	c #4B9951",
"M+	c #55B539",
"N+	c #6BD520",
"O+	c #3F8D93",
"P+	c #4D9DFF",
"Q+	c #8B5372",
"R+	c #FF3530",
"S+	c #FF5252",
"T+	c #FF7A7A",
"U+	c #FF8080",
"V+	c #FF7777",
"W+	c #FC6464",
"X+	c #E52E2E",
"Y+	c #D40000",
"Z+	c #A30000",
"`+	c #D06B13",
" @	c #AA846B",
".@	c #9A6687",
"+@	c #BA4E6C",
"@@	c #DB7454",
"#@	c #E4C059",
"$@	c #E8BC59",
"%@	c #E0B25C",
"&@	c #BC9C5F",
"*@	c #686E77",
"=@	c #2A8178",
"-@	c #2677A2",
";@	c #52A4FF",
">@	c #59B0FF",
",@	c #8A5373",
"'@	c #FF3935",
")@	c #FF4242",
"!@	c #FF4747",
"~@	c #FF6363",
"{@	c #F45757",
"]@	c #D81414",
"^@	c #CC0000",
"/@	c #D50000",
"(@	c #A40000",
"_@	c #7B629E",
":@	c #CE7591",
"<@	c #FF695A",
"[@	c #FF583F",
"}@	c #FF5732",
"|@	c #FFC83C",
"1@	c #FFD93F",
"2@	c #FFDC3B",
"3@	c #EDCB43",
"4@	c #4879B0",
"5@	c #3A83FA",
"6@	c #236BDA",
"7@	c #2979DA",
"8@	c #57AEFE",
"9@	c #895373",
"0@	c #FF4545",
"a@	c #FF4444",
"b@	c #FF4343",
"c@	c #DD1414",
"d@	c #CB0000",
"e@	c #CF0000",
"f@	c #555ED9",
"g@	c #F8908F",
"h@	c #FF7965",
"i@	c #FF6755",
"j@	c #FA5A44",
"k@	c #FA4631",
"l@	c #FDA133",
"m@	c #FFE93A",
"n@	c #F7DB38",
"o@	c #577C98",
"p@	c #3C86F8",
"q@	c #5C9FFF",
"r@	c #5397FF",
"s@	c #2D73E1",
"t@	c #2D7ADB",
"u@	c #59B1FF",
"v@	c #DE1414",
"w@	c #CD0000",
"x@	c #A20000",
"y@	c #8E71AC",
"z@	c #D4737A",
"A@	c #EC6D6A",
"B@	c #FB6555",
"C@	c #FF5B3E",
"D@	c #FF452A",
"E@	c #FF6C22",
"F@	c #FFEC2E",
"G@	c #758D7D",
"H@	c #3A81F2",
"I@	c #60A3FF",
"J@	c #5699FF",
"K@	c #5196FF",
"L@	c #5297FF",
"M@	c #2E6EDB",
"N@	c #3E8FEA",
"O@	c #54B6FF",
"P@	c #885373",
"Q@	c #DE1515",
"R@	c #174EBE",
"S@	c #6096E1",
"T@	c #5082D6",
"U@	c #4969BF",
"V@	c #56529D",
"W@	c #724880",
"X@	c #9A3F5F",
"Y@	c #CF3D2A",
"Z@	c #907759",
"`@	c #347BE3",
" #	c #63A6FF",
".#	c #5B9EFF",
"+#	c #5095FF",
"@#	c #4B92FF",
"##	c #4B89F5",
"$#	c #296DD3",
"%#	c #52B3FF",
"&#	c #885474",
"*#	c #D60000",
"=#	c #A10000",
"-#	c #2F63C4",
";#	c #98CFFF",
">#	c #90CBFF",
",#	c #81BFFF",
"'#	c #6EB1FE",
")#	c #549BF6",
"!#	c #4587E7",
"~#	c #3E6DCD",
"{#	c #396CD6",
"]#	c #61A3FF",
"^#	c #5B9DFF",
"/#	c #4A91FF",
"(#	c #5292FB",
"_#	c #2160D1",
":#	c #45AAFF",
"<#	c #8A5774",
"[#	c #A00000",
"}#	c #2B5BC4",
"|#	c #92C9FF",
"1#	c #8BC3FF",
"2#	c #86BFFF",
"3#	c #82BCFF",
"4#	c #7FBAFF",
"5#	c #7AB8FF",
"6#	c #73B5FF",
"7#	c #6DAEFF",
"8#	c #67A7FF",
"9#	c #60A1FF",
"0#	c #4990FF",
"a#	c #5495FD",
"b#	c #2D53B1",
"c#	c #4686DA",
"d#	c #784978",
"e#	c #FF3C37",
"f#	c #D80000",
"g#	c #1746BE",
"h#	c #83BEFF",
"i#	c #8EC6FF",
"j#	c #85BEFF",
"k#	c #80BAFF",
"l#	c #7BB6FF",
"m#	c #75B2FF",
"n#	c #70AEFF",
"o#	c #6BAAFF",
"p#	c #66A6FF",
"q#	c #4F95FF",
"r#	c #4489F1",
"s#	c #414E8E",
"t#	c #E4A654",
"u#	c #A05344",
"v#	c #DA2B2E",
"w#	c #FF4346",
"x#	c #FF4646",
"y#	c #CE0000",
"z#	c #CA0000",
"A#	c #830000",
"B#	c #0426A8",
"C#	c #5191F7",
"D#	c #8BC4FF",
"E#	c #89C1FF",
"F#	c #5498FF",
"G#	c #5599FF",
"H#	c #5F9FFA",
"I#	c #0E58CC",
"J#	c #706176",
"K#	c #FFBC41",
"L#	c #FEAF40",
"M#	c #C56A2C",
"N#	c #BF3128",
"O#	c #F13A40",
"P#	c #FF4848",
"Q#	c #E11515",
"R#	c #B10000",
"S#	c #801704",
"T#	c #1946C5",
"U#	c #579CFE",
"V#	c #7BB6FE",
"W#	c #84BDFF",
"X#	c #7DB8FF",
"Y#	c #76B3FF",
"Z#	c #5FA1FF",
"`#	c #5DA0FF",
" $	c #63A2FF",
".$	c #5897EF",
"+$	c #1C69D2",
"@$	c #183AA1",
"#$	c #E4A656",
"$$	c #FFC04B",
"%$	c #FFBC4D",
"&$	c #FFC14E",
"*$	c #E89D3D",
"=$	c #BC4A27",
"-$	c #D93133",
";$	c #D40F13",
">$	c #AC1908",
",$	c #B34110",
"'$	c #1B49C9",
")$	c #3F85F4",
"!$	c #60A3FC",
"~$	c #73B0FC",
"{$	c #77B2FE",
"]$	c #72AFFF",
"^$	c #6EACFF",
"/$	c #6BA9FE",
"($	c #69A6FB",
"_$	c #5D9CF2",
":$	c #4188E1",
"<$	c #0C5BC8",
"[$	c #022AA5",
"}$	c #8B4945",
"|$	c #E17C24",
"1$	c #DD7629",
"2$	c #DD7528",
"3$	c #DD7427",
"4$	c #E17A29",
"5$	c #D67123",
"6$	c #9E3110",
"7$	c #8A1D0E",
"8$	c #C45418",
"9$	c #AF581C",
"0$	c #0B21A8",
"a$	c #1F53CE",
"b$	c #2D73E4",
"c$	c #3780E9",
"d$	c #4087EA",
"e$	c #4088E8",
"f$	c #367EE1",
"g$	c #236ED7",
"h$	c #155DCA",
"i$	c #0439B5",
"j$	c #00159D",
"k$	c #030B95",
"l$	c #081CA3",
"m$	c #0A27AC",
"n$	c #0929AC",
"o$	c #0624A7",
"p$	c #03179D",
"q$	c #000792",
"                                                                ",
"                                                                ",
"                                        .                       ",
"            + + + + + + + + @ # $ % & * = - ; > $ +             ",
"        , ' ) ! ! ! ! ! ! ! ! ~ { ] ^ / ( _ : < [ } | 1         ",
"        2 3 4 5 6 6 6 6 6 6 4 7 8 9 0 a b c d e f g h i j       ",
"        k l m n o o o o o o p q r s t u v w x y z A B C D       ",
"        E F G H I I I I I I J K L M N O P Q R S T U V W X       ",
"        Y Z `  .............+.@.#.$.%.&.*.=.S -.;.>.,.'.).      ",
"        !.~.{.].^.^.^.^.^./.(._.:.<.[.}.|.1.2.-.3.4.5.6.7.      ",
"        8.9.0.a.b.b.b.b.c.d.e.f.g.<.[.h.i.j.2.2.k.l.m.n.o.      ",
"        p.q.r.s.t.t.u.v.w.x.y.z.A.<.[.h.i.j.-.B.C.D.E.F.G.      ",
"        H.I.J.K.L.M.N.O.P.Q.R.S.T.<.[.h.i.2.U.V.W.X.Y.Z.`.      ",
"         +.+++@+#+$+%+&+*+=+-+;+T.<.[.h.>+,+'+)+!+~+{+]+^+      ",
"        /+(+_+:+<+[+}+|+1+2+3+4+T.<.5+6+7+8+9+0+a+b+c+d+e+f+    ",
"        g+h+i+j+k+j+l+m+n+o+p+q+r+<.5+s+t+u+v+w+x+y+z+A+B+C+    ",
"        D+E+F+G+H+I+J+K+L+M+N+O+P+<.5+s+Q+R+S+T+U+V+W+X+Y+Z+    ",
"        `+ @.@+@@@#@$@%@&@*@=@-@;@>@5+s+,@'@)@!@~@{@]@^@/@(@    ",
"        _@:@<@[@}@|@1@2@3@4@5@6@7@8@<.s+9@'@0@a@b@c@d@e@/@Z+    ",
"      f@g@h@i@j@k@l@m@n@o@p@q@r@s@t@u@s+9@'@0@0@0@v@w@e@/@x@    ",
"      y@z@A@B@C@D@E@F@G@H@I@J@K@L@M@N@O@P@'@0@0@0@Q@w@e@/@x@    ",
"    R@S@T@U@V@W@X@Y@Z@`@ #.#J@+#@###$#%#&#'@0@0@0@Q@w@e@*#=#    ",
"    -#;#>#,#'#)#!#~#{# #]#^#J@+#/#(#_#:#<#'@0@0@0@Q@w@e@*#[#    ",
"    }#|#1#2#3#4#5#6#7#8#9#^#J@+#0#a#b#c#d#e#0@0@0@Q@w@e@f#Z+    ",
"    g#h#i#j#k#l#m#n#o#p#9#^#J@q#+#r#s#t#u#v#w#x#0@Q@y#Y+z#A#    ",
"    B#C#D#E#k#l#m#n#o#p#9#^#F#G#H#I#J#K#L#M#N#O#P#Q#w@R#S#      ",
"      T#U#V#W#X#Y#n#o#p#Z#`# $.$+$@$#$$$%$&$*$=$-$;$>$,$        ",
"        '$)$!$~${$]$^$/$($_$:$<$[$}$|$1$2$3$4$5$6$7$8$9$        ",
"          0$a$b$c$d$e$f$g$h$i$j$                                ",
"              k$l$m$n$o$p$q$                                    ",
"                                                                ",
"                                                                "};
