/* XPM */
static const char *messagebox_info_xpm[] = {
"48 48 819 2",
"  	c None",
". 	c #002D96",
"+ 	c #002C94",
"@ 	c #002A94",
"# 	c #002993",
"$ 	c #002893",
"% 	c #003197",
"& 	c #002D95",
"* 	c #002991",
"= 	c #002C95",
"- 	c #002F99",
"; 	c #02319B",
"> 	c #06359E",
", 	c #06349E",
"' 	c #022F99",
") 	c #002B97",
"! 	c #002692",
"~ 	c #00218D",
"{ 	c #00228E",
"] 	c #002491",
"^ 	c #003298",
"/ 	c #002C93",
"( 	c #0B3EA6",
"_ 	c #3169C9",
": 	c #4D85DD",
"< 	c #669AED",
"[ 	c #73A8F6",
"} 	c #76AAF8",
"| 	c #72A7F8",
"1 	c #6CA2F5",
"2 	c #5C93EC",
"3 	c #467CDC",
"4 	c #2D62C7",
"5 	c #103BA6",
"6 	c #002290",
"7 	c #001D8B",
"8 	c #00208E",
"9 	c #003399",
"0 	c #002E95",
"a 	c #002F98",
"b 	c #1F56B9",
"c 	c #558BDE",
"d 	c #82B5FA",
"e 	c #9AC7FF",
"f 	c #9EC8FF",
"g 	c #9CC5FF",
"h 	c #99C3FF",
"i 	c #95BFFF",
"j 	c #90BCFF",
"k 	c #8BB8FF",
"l 	c #86B5FF",
"m 	c #80B2FF",
"n 	c #77AEFF",
"o 	c #649EFA",
"p 	c #457BDE",
"q 	c #1F4EB7",
"r 	c #032493",
"s 	c #001B8A",
"t 	c #001E8E",
"u 	c #0F43A9",
"v 	c #528AE0",
"w 	c #95C4FF",
"x 	c #AAD0FF",
"y 	c #A7CBFF",
"z 	c #A1C7FF",
"A 	c #9CC4FD",
"B 	c #9BC3FC",
"C 	c #9AC3FD",
"D 	c #90B9F8",
"E 	c #8CB6F7",
"F 	c #8CB6F8",
"G 	c #83AEF4",
"H 	c #7DAAF4",
"I 	c #77A7F8",
"J 	c #73A6FE",
"K 	c #6FA6FF",
"L 	c #64A0FF",
"M 	c #417BE1",
"N 	c #1239A6",
"O 	c #001989",
"P 	c #001B8C",
"Q 	c #003198",
"R 	c #2962C5",
"S 	c #81B4F8",
"T 	c #AAD1FF",
"U 	c #A8CDFF",
"V 	c #A5CAFF",
"W 	c #A3C9FF",
"X 	c #9FC5FC",
"Y 	c #A0C6FE",
"Z 	c #88B2F3",
"` 	c #517ECE",
" .	c #4771C2",
"..	c #436EC1",
"+.	c #4F7ED0",
"@.	c #79A5EF",
"#.	c #7DA8F0",
"$.	c #74A1EC",
"%.	c #709DEC",
"&.	c #699BEF",
"*.	c #649AFA",
"=.	c #609CFF",
"-.	c #518FF9",
";.	c #2657C3",
">.	c #001A8A",
",.	c #00188A",
"'.	c #003199",
").	c #3770CE",
"!.	c #95C3FF",
"~.	c #ACD1FF",
"{.	c #A7CCFF",
"].	c #A6CBFF",
"^.	c #A4C9FF",
"/.	c #9FC5FE",
"(.	c #79A4E9",
"_.	c #5B80C7",
":.	c #B5C3E0",
"<.	c #E6EAF3",
"[.	c #E1E5F0",
"}.	c #A7B8DB",
"|.	c #4A75C5",
"1.	c #6795E5",
"2.	c #729FED",
"3.	c #6B99E9",
"4.	c #6695E6",
"5.	c #6191E6",
"6.	c #5B90F0",
"7.	c #5693FF",
"8.	c #5091FF",
"9.	c #2B5FCC",
"0.	c #041F90",
"a.	c #001688",
"b.	c #3770CF",
"c.	c #9BC8FF",
"d.	c #ACCFFF",
"e.	c #9BC2FB",
"f.	c #93BBF9",
"g.	c #5B84CD",
"h.	c #E3E7F1",
"i.	c #FFFFFF",
"j.	c #FFFFFE",
"k.	c #C1CDE4",
"l.	c #4575CA",
"m.	c #6D9CEB",
"n.	c #6696E8",
"o.	c #6291E7",
"p.	c #5C8DE3",
"q.	c #5889E0",
"r.	c #5287E7",
"s.	c #4C8AFB",
"t.	c #4A8EFF",
"u.	c #285DCC",
"v.	c #011789",
"w.	c #001589",
"x.	c #2862C4",
"y.	c #A4CAFF",
"z.	c #9FC5FD",
"A.	c #9BC1FB",
"B.	c #98BFFB",
"C.	c #79A6ED",
"D.	c #87A3D6",
"E.	c #FEFDFD",
"F.	c #FCFCFC",
"G.	c #FBFBFB",
"H.	c #FCFCFA",
"I.	c #FFFFFD",
"J.	c #6A8DD0",
"K.	c #5B8CE3",
"L.	c #6392E6",
"M.	c #5D8DE5",
"N.	c #5889E2",
"O.	c #5385E0",
"P.	c #4E81DD",
"Q.	c #497FE1",
"R.	c #4384FB",
"S.	c #4085FF",
"T.	c #2151C1",
"U.	c #001385",
"V.	c #001489",
"W.	c #0D43A9",
"X.	c #82B4FA",
"Y.	c #9AC1FB",
"Z.	c #96BDFA",
"`.	c #93BBF8",
" +	c #74A2EB",
".+	c #88A4D7",
"++	c #FCFCFB",
"@+	c #FAFAFA",
"#+	c #FBFAF9",
"$+	c #6B8FD2",
"%+	c #5588E1",
"&+	c #5E8EE5",
"*+	c #5889E3",
"=+	c #5385E1",
"-+	c #4E81DF",
";+	c #4A7DDD",
">+	c #4579D9",
",+	c #3F77E1",
"'+	c #3A7EFD",
")+	c #357BF7",
"!+	c #1033A4",
"~+	c #000F84",
"{+	c #002F97",
"]+	c #528AE2",
"^+	c #ABD1FF",
"/+	c #9AC1FA",
"(+	c #96BDF9",
"_+	c #91B9F8",
":+	c #8DB6F6",
"<+	c #81ACF2",
"[+	c #5C86CF",
"}+	c #ECF0F6",
"|+	c #FCFBFA",
"1+	c #D1DAED",
"2+	c #4173CB",
"3+	c #5D8EE5",
"4+	c #4E81DE",
"5+	c #4579DC",
"6+	c #4075D9",
"7+	c #3B71D5",
"8+	c #3572E6",
"9+	c #317BFF",
"0+	c #2967DF",
"a+	c #051A8D",
"b+	c #001086",
"c+	c #002B93",
"d+	c #96C4FF",
"e+	c #A9CDFF",
"f+	c #91B9F7",
"g+	c #8CB5F5",
"h+	c #87B1F3",
"i+	c #86B0F4",
"j+	c #6293E2",
"k+	c #527EC8",
"l+	c #D1DBED",
"m+	c #F5F6F9",
"n+	c #F3F5F8",
"o+	c #BECDE7",
"p+	c #4070C6",
"q+	c #4E82DD",
"r+	c #5A8BE3",
"s+	c #497DDD",
"t+	c #4579DB",
"u+	c #3B71D8",
"v+	c #366DD6",
"w+	c #3169D3",
"x+	c #2C70F2",
"y+	c #2B77FE",
"z+	c #153FB4",
"A+	c #000C82",
"B+	c #5188E0",
"C+	c #90B9F7",
"D+	c #8CB5F6",
"E+	c #88B1F4",
"F+	c #83ADF2",
"G+	c #7DA9F1",
"H+	c #5F90E3",
"I+	c #4779CF",
"J+	c #5F89D3",
"K+	c #5984D1",
"L+	c #3C70CD",
"M+	c #5184DF",
"N+	c #5B8CE4",
"O+	c #5285E0",
"P+	c #4A7DDE",
"Q+	c #4075DA",
"R+	c #3C71D8",
"S+	c #3269D5",
"T+	c #2D65D1",
"U+	c #2864DB",
"V+	c #2370FF",
"W+	c #1F5DDA",
"X+	c #021387",
"Y+	c #000E85",
"Z+	c #0D40A6",
"`+	c #5FA1FB",
" @	c #95C2FF",
".@	c #83ADF3",
"+@	c #7FAAF1",
"@@	c #7BA7EF",
"#@	c #76A3EF",
"$@	c #74A1EE",
"%@	c #6F9DED",
"&@	c #6293E8",
"*@	c #5F90E7",
"=@	c #6292E9",
"-@	c #5C8DE6",
";@	c #5587E2",
">@	c #366DD7",
",@	c #3269D4",
"'@	c #2D65D2",
")@	c #2861D0",
"!@	c #235DD0",
"~@	c #2067F0",
"{@	c #286CE2",
"]@	c #0E2EA1",
"^@	c #000981",
"/@	c #2F68C9",
"(@	c #65AAFF",
"_@	c #589CFB",
":@	c #99C1FC",
"<@	c #9DC3FB",
"[@	c #95BDF9",
"}@	c #82ADF2",
"|@	c #6C9BE9",
"1@	c #5C8EE4",
"2@	c #5689E1",
"3@	c #4D82DC",
"4@	c #477DD9",
"5@	c #4177D5",
"6@	c #3B72D1",
"7@	c #356DCE",
"8@	c #3067CA",
"9@	c #3F75D6",
"0@	c #4B7FDE",
"a@	c #457ADB",
"b@	c #2D65D3",
"c@	c #2861D1",
"d@	c #245ECF",
"e@	c #1D58CC",
"f@	c #195ACE",
"g@	c #296CDC",
"h@	c #1847BA",
"i@	c #000A83",
"j@	c #437FDE",
"k@	c #65A9FF",
"l@	c #1C77F4",
"m@	c #428CF3",
"n@	c #9BC1F9",
"o@	c #92BAF7",
"p@	c #81ABF2",
"q@	c #6192E5",
"r@	c #517FCD",
"s@	c #8BAADD",
"t@	c #91AEDE",
"u@	c #98B3E0",
"v@	c #A1B9E2",
"w@	c #A8BEE4",
"x@	c #B0C4E6",
"y@	c #B9CBE8",
"z@	c #C0CEE8",
"A@	c #4C7BCF",
"B@	c #3E75DA",
"C@	c #4176DA",
"D@	c #245DCF",
"E@	c #205ACF",
"F@	c #104FC4",
"G@	c #0548BB",
"H@	c #2465D7",
"I@	c #1D56C8",
"J@	c #010E87",
"K@	c #023199",
"L@	c #4F8EEC",
"M@	c #5BA0FF",
"N@	c #0A6AF0",
"O@	c #005DEC",
"P@	c #5393F2",
"Q@	c #94BBF6",
"R@	c #89B2F4",
"S@	c #7DA9F0",
"T@	c #4E84DE",
"U@	c #7499D5",
"V@	c #FFFFFB",
"W@	c #FFFFFA",
"X@	c #FFFDF8",
"Y@	c #FFFDF7",
"Z@	c #608BD6",
"`@	c #366ED6",
" #	c #3B72D8",
".#	c #235DCF",
"+#	c #205ACE",
"@#	c #1351C6",
"##	c #0043B6",
"$#	c #0043B5",
"%#	c #1D5ED0",
"&#	c #205DD0",
"*#	c #03138B",
"=#	c #000882",
"-#	c #06339C",
";#	c #5797F4",
">#	c #5198FB",
",#	c #0365EC",
"'#	c #005FEA",
")#	c #025FE8",
"!#	c #4A8CEE",
"~#	c #89B1F3",
"{#	c #81ABF1",
"]#	c #79A5EE",
"^#	c #75A2EE",
"/#	c #6A99E9",
"(#	c #487DD7",
"_#	c #4478D0",
":#	c #86A8DD",
"<#	c #F5F5F4",
"[#	c #F2F2F2",
"}#	c #F1F1F1",
"|#	c #F3F2F1",
"1#	c #F9F9F9",
"2#	c #5C89D6",
"3#	c #316AD5",
"4#	c #376ED7",
"5#	c #245ED0",
"6#	c #1250C6",
"7#	c #0144B8",
"8#	c #0042B4",
"9#	c #0042B3",
"0#	c #1859CB",
"a#	c #1F5ED2",
"b#	c #061A92",
"c#	c #000680",
"d#	c #002A93",
"e#	c #09369F",
"f#	c #5999F6",
"g#	c #4A93F8",
"h#	c #0263EA",
"i#	c #0060E8",
"j#	c #005EE6",
"k#	c #005CE4",
"l#	c #387EE8",
"m#	c #72A1ED",
"n#	c #7AA5EE",
"o#	c #709DEB",
"p#	c #6C9AEA",
"q#	c #6A99EA",
"r#	c #5E90E6",
"s#	c #2C6ACF",
"t#	c #A5BEE6",
"u#	c #FEFDFA",
"v#	c #5A88D6",
"w#	c #2C66D4",
"x#	c #326AD4",
"y#	c #255ED0",
"z#	c #1E59CD",
"A#	c #0F4EC3",
"B#	c #0144B7",
"C#	c #0043B4",
"D#	c #0040B0",
"E#	c #1555C7",
"F#	c #1E5ED2",
"G#	c #061C95",
"H#	c #00057F",
"I#	c #08359E",
"J#	c #5797F5",
"K#	c #4991F7",
"L#	c #0262E9",
"M#	c #005EE5",
"N#	c #005CE2",
"O#	c #0057E0",
"P#	c #1868E1",
"Q#	c #538BE7",
"R#	c #6E9BEA",
"S#	c #6A98E8",
"T#	c #6292E6",
"U#	c #6090E5",
"V#	c #3A75D8",
"W#	c #759DDB",
"X#	c #F1F1F0",
"Y#	c #EFEFEF",
"Z#	c #F2F1F0",
"`#	c #5887D7",
" $	c #2863D2",
".$	c #2E66D3",
"+$	c #2A62D2",
"@$	c #255FD0",
"#$	c #1956CA",
"$$	c #084ABE",
"%$	c #0041B1",
"&$	c #003FAE",
"*$	c #1354C5",
"=$	c #1C5CD1",
"-$	c #00047E",
";$	c #05319A",
">$	c #4B92F7",
",$	c #0261E7",
"'$	c #005DE4",
")$	c #005DE3",
"!$	c #005CE1",
"~$	c #005BDF",
"{$	c #0057DC",
"]$	c #0057DA",
"^$	c #266DDE",
"/$	c #4B84E2",
"($	c #5A8CE4",
"_$	c #5D8DE4",
":$	c #7AA0DD",
"<$	c #EFF0EF",
"[$	c #F1F0EF",
"}$	c #5888D7",
"|$	c #2460D1",
"1$	c #2862D1",
"2$	c #1D59CC",
"3$	c #0F4FC3",
"4$	c #0145BA",
"5$	c #0042B5",
"6$	c #0041B2",
"7$	c #003FAF",
"8$	c #003EAC",
"9$	c #1353C6",
"0$	c #1A59CE",
"a$	c #051791",
"b$	c #00037E",
"c$	c #032D97",
"d$	c #4987E8",
"e$	c #5096F7",
"f$	c #0763E6",
"g$	c #005CE3",
"h$	c #005ADD",
"i$	c #0059DB",
"j$	c #0056D9",
"k$	c #0053D6",
"l$	c #0054D5",
"m$	c #0E5CD5",
"n$	c #2368D8",
"o$	c #7AA1DE",
"p$	c #FFFFF9",
"q$	c #EFEFEE",
"r$	c #EEEEEE",
"s$	c #F0EFEE",
"t$	c #5083D5",
"u$	c #0D4CC4",
"v$	c #084CC0",
"w$	c #0046BB",
"x$	c #0044B8",
"y$	c #0044B7",
"z$	c #003EAD",
"A$	c #003EAB",
"B$	c #1455C8",
"C$	c #1754CB",
"D$	c #020F8A",
"E$	c #00037F",
"F$	c #002793",
"G$	c #3C77DA",
"H$	c #5699F9",
"I$	c #196DE7",
"J$	c #0059E0",
"K$	c #0059DD",
"L$	c #0058D9",
"M$	c #0056D7",
"N$	c #0055D5",
"O$	c #0053D3",
"P$	c #0051D0",
"Q$	c #004ECE",
"R$	c #0042C6",
"S$	c #77A1DF",
"T$	c #EDEDED",
"U$	c #EFEEED",
"V$	c #FBFBFA",
"W$	c #477DD2",
"X$	c #003EB9",
"Y$	c #0045BA",
"Z$	c #0045B9",
"`$	c #003DAA",
" %	c #033FAD",
".%	c #1658CD",
"+%	c #134BC2",
"@%	c #000883",
"#%	c #2B60C7",
"$%	c #599CFA",
"%%	c #2D7AEA",
"&%	c #0058DD",
"*%	c #0058DB",
"=%	c #0057D9",
"-%	c #0054D3",
";%	c #0053D1",
">%	c #0051CF",
",%	c #0050CD",
"'%	c #0044C6",
")%	c #77A1E0",
"!%	c #FFFFF8",
"~%	c #ECEDED",
"{%	c #ECECEC",
"]%	c #EEEDEC",
"^%	c #FBFAFA",
"/%	c #487ED3",
"(%	c #0045B8",
"_%	c #003FB0",
":%	c #003EAE",
"<%	c #003DAB",
"[%	c #003AA7",
"}%	c #0946B6",
"|%	c #175BD1",
"1%	c #0D3BB3",
"2%	c #00027F",
"3%	c #00228F",
"4%	c #103BA5",
"5%	c #4F90F2",
"6%	c #4186EF",
"7%	c #025ADD",
"8%	c #0058DA",
"9%	c #0052CF",
"0%	c #0050CC",
"a%	c #004FCB",
"b%	c #0043C5",
"c%	c #77A1E1",
"d%	c #FFFEF7",
"e%	c #EBEBEB",
"f%	c #EDECEB",
"g%	c #487FD3",
"h%	c #003EB7",
"i%	c #003DAC",
"j%	c #003CA9",
"k%	c #003AA6",
"l%	c #0F4DC1",
"m%	c #1558CF",
"n%	c #07249E",
"o%	c #00007B",
"p%	c #002490",
"q%	c #012390",
"r%	c #3A74DA",
"s%	c #4E91F4",
"t%	c #1467E0",
"u%	c #0055D7",
"v%	c #004EC9",
"w%	c #0043C4",
"x%	c #77A2E2",
"y%	c #FFFEF6",
"z%	c #EAEAEA",
"A%	c #ECEBEA",
"B%	c #003DB5",
"C%	c #003CAA",
"D%	c #0039A6",
"E%	c #033EAB",
"F%	c #1354CA",
"G%	c #1049C1",
"H%	c #010885",
"I%	c #00007E",
"J%	c #1E4DB7",
"K%	c #4F92F5",
"L%	c #367DE8",
"M%	c #0257D7",
"N%	c #0054D4",
"O%	c #0050CB",
"P%	c #004DC6",
"Q%	c #0041C2",
"R%	c #77A3E3",
"S%	c #FFFDF6",
"T%	c #EAEAE9",
"U%	c #E9E9E9",
"V%	c #EBEAE9",
"W%	c #F9FAFA",
"X%	c #487FD4",
"Y%	c #003BB3",
"Z%	c #0041B3",
"`%	c #003BA7",
" &	c #0038A3",
".&	c #0B48BA",
"+&	c #1457CF",
"@&	c #092DA7",
"#&	c #042594",
"$&	c #3975DC",
"%&	c #4A8DF0",
"&&	c #1D6ADE",
"*&	c #0051D1",
"=&	c #004DC7",
"-&	c #004BC5",
";&	c #0041C1",
">&	c #77A4E5",
",&	c #E9E9E8",
"'&	c #E8E8E8",
")&	c #4880D4",
"!&	c #003AB0",
"~&	c #003BA8",
"{&	c #0038A2",
"]&	c #0540AE",
"^&	c #1254CB",
"/&	c #0F4BC5",
"(&	c #020D89",
"_&	c #00007C",
":&	c #1139A6",
"<&	c #4486EB",
"[&	c #3E80E9",
"}&	c #0E5DD5",
"|&	c #004FCD",
"1&	c #004CC5",
"2&	c #004BC2",
"3&	c #003FBF",
"4&	c #75A3E5",
"5&	c #FFFCF5",
"6&	c #E8E8E7",
"7&	c #E7E7E7",
"8&	c #457ED3",
"9&	c #0038AE",
"0&	c #0039A3",
"a&	c #023BA7",
"b&	c #1154CD",
"c&	c #05219D",
"d&	c #001F8E",
"e&	c #00198A",
"f&	c #2356C1",
"g&	c #4487EE",
"h&	c #3679E3",
"i&	c #0856CF",
"j&	c #004DC9",
"k&	c #004AC3",
"l&	c #0045BE",
"m&	c #003ABE",
"n&	c #81ACE9",
"o&	c #FFFBF3",
"p&	c #E6E6E6",
"q&	c #E6E6E5",
"r&	c #FCFCF9",
"s&	c #5C91DD",
"t&	c #0031AE",
"u&	c #003AAB",
"v&	c #013AA4",
"w&	c #0D4BC0",
"x&	c #1255CE",
"y&	c #0A38B3",
"z&	c #00017E",
"A&	c #00007D",
"B&	c #001C8C",
"C&	c #011B8C",
"D&	c #275CC8",
"E&	c #4185ED",
"F&	c #3275E1",
"G&	c #0B57CE",
"H&	c #004AC5",
"I&	c #004AC2",
"J&	c #024FC7",
"K&	c #1E65D2",
"L&	c #6195E2",
"M&	c #E6EFFA",
"N&	c #F0EEEB",
"O&	c #E7E6E5",
"P&	c #E4E3E3",
"Q&	c #F0EEEA",
"R&	c #DEE9F8",
"S&	c #6D9CE2",
"T&	c #185ECA",
"U&	c #033BA7",
"V&	c #0D4BBF",
"W&	c #1155CE",
"X&	c #0B3EB8",
"Y&	c #010683",
"Z&	c #265BC7",
"`&	c #3C7FE8",
" *	c #3175E0",
".*	c #155CD0",
"+*	c #0043BD",
"@*	c #1862CF",
"#*	c #ECF6FF",
"$*	c #FAF9F7",
"%*	c #FAF9F6",
"&*	c #F8F7F5",
"**	c #B4D2F8",
"=*	c #0044B5",
"-*	c #0036A1",
";*	c #0641AE",
">*	c #0F4DC3",
",*	c #020C88",
"'*	c #01178A",
")*	c #2051BE",
"!*	c #3678E3",
"~*	c #3577E3",
"{*	c #2165D5",
"]*	c #0A4EC3",
"^*	c #0955C8",
"/*	c #538CDE",
"(*	c #568FDE",
"_*	c #558EDE",
":*	c #568FDF",
"<*	c #578FDF",
"[*	c #578EDE",
"}*	c #578EDD",
"|*	c #558CDB",
"1*	c #568CDA",
"2*	c #407ED7",
"3*	c #0345B6",
"4*	c #0B47B8",
"5*	c #1253CC",
"6*	c #1153CC",
"7*	c #0A38B2",
"8*	c #010682",
"9*	c #001287",
"0*	c #1032A4",
"a*	c #2A66D3",
"b*	c #3376E3",
"c*	c #2D6FDD",
"d*	c #1F62D2",
"e*	c #064DC6",
"f*	c #0041BA",
"g*	c #003CB4",
"h*	c #003AB2",
"i*	c #0039AF",
"j*	c #0037AE",
"k*	c #0037AC",
"l*	c #0036AB",
"m*	c #003EB5",
"n*	c #0648C0",
"o*	c #1357CF",
"p*	c #0F4BC4",
"q*	c #06229D",
"r*	c #041A8E",
"s*	c #163EB0",
"t*	c #245DCC",
"u*	c #2A6DDC",
"v*	c #2B6DDC",
"w*	c #2466D6",
"x*	c #1453C6",
"y*	c #1353C5",
"z*	c #1555C8",
"A*	c #1757CC",
"B*	c #175AD0",
"C*	c #1557CF",
"D*	c #092DA8",
"E*	c #000B82",
"F*	c #021389",
"G*	c #0D2DA2",
"H*	c #1846BA",
"I*	c #1D55C8",
"J*	c #205ED0",
"K*	c #1755CB",
"L*	c #0D3BB4",
"M*	c #08239E",
"N*	c #010E86",
"O*	c #061D95",
"P*	c #030F8A",
"Q*	c #010883",
"R*	c #00047F",
"                                                                                                ",
"                                                                                                ",
"                                                                                                ",
"                                                                                                ",
"                                                                                                ",
"                                          . + @ # # $                                           ",
"                                  % & * = - ; > , ' ) ! ~ { ]                                   ",
"                              ^ / = ( _ : < [ } | 1 2 3 4 5 6 7 8                               ",
"                          9 0 a b c d e f g h i j k l m n o p q r s t                           ",
"                        ^ + u v w x y z A B C D E F G H I J K L M N O P                         ",
"                      Q + R S T U V W X Y Z `  ...+.@.#.$.%.&.*.=.-.;.>.,.                      ",
"                    Q '.).!.~.{.].^.X /.(._.:.<.[.}.|.1.2.3.4.5.6.7.8.9.0.a.                    ",
"                  ^ + b.c.d.].].^.X e.f.g.h.i.j.j.i.k.l.m.n.o.p.q.r.s.t.u.v.w.                  ",
"                9 + x.!.d.].].y.z.A.B.C.D.i.E.F.G.H.I.J.K.L.M.N.O.P.Q.R.S.T.U.V.                ",
"                0 W.X.~.].].^.z.Y.Z.`. +.+i.++G.@+#+I.$+%+&+*+=+-+;+>+,+'+)+!+~+                ",
"              ^ {+]+^+{.].^.X /+(+_+:+<+[+}+i.++|+i.1+2+3+*+O.4+;+5+6+7+8+9+0+a+b+              ",
"              c+b d+e+].y.z.A.(+f+g+h+i+j+k+l+m+n+o+p+q+r+O.-+s+t+6+u+v+w+x+y+z+A+              ",
"            Q = B+x V ^.z.Y.Z.C+D+E+F+G+G+H+I+J+K+L+M+N+O+-+P+t+Q+R+v+S+T+U+V+W+X+Y+            ",
"            & Z+`+ @y X /+(+_+g+h+.@+@@@#@$@%@&@*@=@-@;@4+s+5+6+u+>@,@'@)@!@~@{@]@^@            ",
"            * /@(@_@:@<@[@f+g+h+}@+@|@1@2@3@4@5@6@7@8@9@0@a@6+u+>@,@b@c@d@e@f@g@h@i@            ",
"            & j@k@l@m@n@o@D+E+F+p@q@r@s@t@u@v@w@x@y@z@A@B@C@R+v+S+b@c@D@E@F@G@H@I@J@i@          ",
"          & K@L@M@N@O@P@Q@R@}@S@#.T@U@j.i.j.V@W@X@Y@I.Z@`@ #>@,@'@c@.#+#@###$#%#&#*#=#          ",
"          + -#;#>#,#'#)#!#~#{#]#^#/#(#_#:#F.<#[#}#|#1#2#3#4#,@b@c@5#E@6#7#8#9#0#a#b#c#          ",
"          d#e#f#g#h#i#j#k#l#m#n#o#p#q#r#s#t#u#}#}#|#1#v#w#x#b@c@y#z#A#B#C#9#D#E#F#G#H#          ",
"          # I#J#K#L#j#M#N#O#P#Q#R#S#T#U#V#W#V@X#Y#Z#1#`# $.$+$@$#$$$##C#9#%$&$*$=$G#-$          ",
"          # ;$P@>$,$'$)$!$~${$]$^$/$($_$V#:$W@<$Y#[$1#}$|$1$2$3$4$##5$9#6$7$8$9$0$a$b$          ",
"          $ c$d$e$f$g$!$~$h$i$j$k$l$m$n$%#o$p$q$r$s$@+t$u$v$w$x$y$##9#6$D#z$A$B$C$D$E$          ",
"            F$G$H$I$J$~$K$i$L$M$N$O$P$Q$R$S$p$r$T$U$V$W$X$Y$Z$x$$#8#6$D#&$`$ %.%+%@%E$          ",
"            ~ #%$%%%&%K$*%=%M$N$-%;%>%,%'%)%!%~%{%]%^%/%X$(%x$5$9#6$_%:%<%[%}%|%1%2%            ",
"            3%4%5%6%7%8%=%M$N$O$;%9%0%a%b%c%d%{%e%f%@+g%h%y$##9#6$D#:%i%j%k%l%m%n%o%            ",
"            p%q%r%s%t%u%M$N$-%;%9%,%a%v%w%x%y%e%z%A%@+g%B%$#8#6$D#&$i%C%D%E%F%G%H%I%            ",
"              7 J%K%L%M%N%-%;%>%0%O%v%P%Q%R%S%T%U%V%W%X%Y%Z%6$_%:%i%C%`% &.&+&@&o%              ",
"              8 #&$&%&&&*&;%9%0%a%v%=&-&;&>&S%,&'&,&W%)&!&%$D#:%i%C%~&{&]&^&/&(&_&              ",
"                >.:&<&[&}&|&,%a%v%=&1&2&3&4&5&6&7&6&1#8&9&&$:%i%C%`%0&a&A#b&c&o%                ",
"                d&e&f&g&h&i&j&v%=&1&k&l&m&n&o&p&p&q&r&s&t&u&<%C%`%0&v&w&x&y&z&A&                ",
"                  B&C&D&E&F&G&H&1&I&J&K&L&M&N&O&q&P&Q&R&S&T&7$k%{&U&V&W&X&Y&_&                  ",
"                    ,.0.Z&`& *.*I&+*@*#*i.i.$*$*$*%*&*j.i.**=*-*;*>*W&X&,*o%                    ",
"                      a.'*)*!*~*{*]*^*/*(*_*:*<*[*[*}*|*1*2*3*4*5*6*7*8*o%                      ",
"                        w.9*0*a*b*c*d*e*f*g*h*i*j*k*l*k*m*n*F%o*p*q*z&_&                        ",
"                          V.~+r*s*t*u*v*w*%#0#E#x*y*z*A*B*C*G%D*(&o%A&                          ",
"                              b+E*F*G*H*I*J*a#F#=$0$K*+%L*M*H%o%_&                              ",
"                                  Y+^@i@N**#b#O*G#a$P*Q*E$_&I%                                  ",
"                                        i@=#c#H#R*b$E$E$                                        ",
"                                                                                                ",
"                                                                                                ",
"                                                                                                ",
"                                                                                                ",
"                                                                                                "};
