/* XPM */
static const char *player_pause_xpm[] = {
"22 22 204 2",
"  	c None",
". 	c #06359A",
"+ 	c #2347A3",
"@ 	c #2649A5",
"# 	c #2548A4",
"$ 	c #2649A4",
"% 	c #2348A4",
"& 	c #07379B",
"* 	c #04359A",
"= 	c #2147A3",
"- 	c #2749A5",
"; 	c #2448A4",
"> 	c #2147A4",
", 	c #CCDBEF",
"' 	c #E2EEF8",
") 	c #D9E8F5",
"! 	c #E1EEF8",
"~ 	c #D1DEF0",
"{ 	c #2C51A9",
"] 	c #1C42A1",
"^ 	c #C6D4EA",
"/ 	c #E3EFF9",
"( 	c #DAE8F5",
"_ 	c #E0EDF7",
": 	c #D3E2F2",
"< 	c #2953A9",
"[ 	c #2047A5",
"} 	c #C2DEF6",
"| 	c #D8F1FF",
"1 	c #CFEAFF",
"2 	c #D7F0FF",
"3 	c #C8E2F8",
"4 	c #2A51AB",
"5 	c #1A42A2",
"6 	c #BCD8F1",
"7 	c #D0EAFF",
"8 	c #D6EFFF",
"9 	c #CAE4FA",
"0 	c #2752AB",
"a 	c #1A45A4",
"b 	c #9ECAF5",
"c 	c #AFD9FF",
"d 	c #A9D3FF",
"e 	c #A2CEF7",
"f 	c #224EAA",
"g 	c #1540A2",
"h 	c #99C4F1",
"i 	c #B0D9FF",
"j 	c #AED8FF",
"k 	c #A4CFF9",
"l 	c #1F4FAB",
"m 	c #1543A4",
"n 	c #80BBF5",
"o 	c #8FC9FF",
"p 	c #8AC4FF",
"q 	c #84BEF7",
"r 	c #1C4BAA",
"s 	c #113FA2",
"t 	c #7DB6F1",
"u 	c #8FCAFF",
"v 	c #8EC8FF",
"w 	c #86C0F9",
"x 	c #1A4BAB",
"y 	c #1041A4",
"z 	c #62ACF5",
"A 	c #6DBAFF",
"B 	c #69B5FF",
"C 	c #6DB9FF",
"D 	c #65AFF7",
"E 	c #1548AA",
"F 	c #0E3EA2",
"G 	c #60A9F1",
"H 	c #6CB9FF",
"I 	c #66B1F9",
"J 	c #1449AB",
"K 	c #0B40A4",
"L 	c #439DF5",
"M 	c #4BA8FF",
"N 	c #48A4FF",
"O 	c #45A0F7",
"P 	c #0E46AA",
"Q 	c #093DA2",
"R 	c #4299F1",
"S 	c #4AA7FF",
"T 	c #47A1F9",
"U 	c #0D46AB",
"V 	c #083EA4",
"W 	c #3193F5",
"X 	c #369DFF",
"Y 	c #3499FF",
"Z 	c #369CFF",
"` 	c #3295F7",
" .	c #0A44AA",
"..	c #073BA2",
"+.	c #2F8FF1",
"@.	c #3396F9",
"#.	c #0A44AB",
"$.	c #3399FF",
"%.	c #359CFF",
"&.	c #3195F7",
"*.	c #073CA2",
"=.	c #349CFF",
"-.	c #3296F9",
";.	c #3093F5",
">.	c #359DFF",
",.	c #063CA2",
"'.	c #2E8FF1",
").	c #2F93F5",
"!.	c #349DFF",
"~.	c #3299FF",
"{.	c #3095F7",
"].	c #2D8FF1",
"^.	c #339CFF",
"/.	c #3196F9",
"(.	c #3294F5",
"_.	c #389FFF",
":.	c #369BFF",
"<.	c #3397F7",
"[.	c #0B44AA",
"}.	c #3191F1",
"|.	c #38A0FF",
"1.	c #389EFF",
"2.	c #3598F9",
"3.	c #0B3FA4",
"4.	c #439FF5",
"5.	c #4AABFF",
"6.	c #47A7FF",
"7.	c #49ABFF",
"8.	c #45A2F7",
"9.	c #419CF1",
"0.	c #49AAFF",
"a.	c #46A3F9",
"b.	c #0D47AB",
"c.	c #0E42A4",
"d.	c #55ABF5",
"e.	c #5EB9FF",
"f.	c #5AB4FF",
"g.	c #5DB8FF",
"h.	c #57AFF7",
"i.	c #1348AA",
"j.	c #0C3EA2",
"k.	c #52A8F1",
"l.	c #5FB9FF",
"m.	c #5CB8FF",
"n.	c #58B0F9",
"o.	c #1249AB",
"p.	c #1142A4",
"q.	c #67B8F5",
"r.	c #72C5FF",
"s.	c #6EC0FF",
"t.	c #6ABBF7",
"u.	c #164BAA",
"v.	c #0E3FA2",
"w.	c #64B3F1",
"x.	c #73C6FF",
"y.	c #71C4FF",
"z.	c #6BBDF9",
"A.	c #154BAB",
"B.	c #1444A4",
"C.	c #78C4F5",
"D.	c #86D3FF",
"E.	c #81CDFF",
"F.	c #85D2FF",
"G.	c #7CC7F7",
"H.	c #1A4DAA",
"I.	c #1140A2",
"J.	c #75BEF1",
"K.	c #85D1FF",
"L.	c #7EC8F9",
"M.	c #184EAB",
"N.	c #1746A5",
"O.	c #8FD4F6",
"P.	c #9FE4FF",
"Q.	c #99DEFF",
"R.	c #9EE4FF",
"S.	c #92D8F7",
"T.	c #1F50AB",
"U.	c #1341A2",
"V.	c #8ACEF1",
"W.	c #9FE5FF",
"X.	c #9DE3FF",
"Y.	c #94D9FA",
"Z.	c #1D50AB",
"`.	c #1947A4",
" +	c #9AD9F2",
".+	c #ABEBFC",
"++	c #A5E4FA",
"@+	c #ABEAFD",
"#+	c #9EDEF3",
"$+	c #2150AA",
"%+	c #1541A2",
"&+	c #96D4EE",
"*+	c #ABEBFE",
"=+	c #AAE9FC",
"-+	c #9FE0F6",
";+	c #1F51AA",
">+	c #05369B",
",+	c #1F4FA9",
"'+	c #2252AA",
")+	c #2151A9",
"!+	c #2050A9",
"~+	c #07389C",
"{+	c #1E4EA8",
"]+	c #06389C",
"  . + @ # $ % &             * = - # $ ; &   ",
"  > , ' ) ! ~ {             ] ^ / ( _ : <   ",
"  [ } | 1 2 3 4             5 6 | 7 8 9 0   ",
"  a b c d c e f             g h i d j k l   ",
"  m n o p o q r             s t u p v w x   ",
"  y z A B C D E             F G C B H I J   ",
"  K L M N M O P             Q R M N S T U   ",
"  V W X Y Z `  .            ..+.X Y Z @.#.  ",
"  V W X $.%.&. .            *.+.X $.=.-.#.  ",
"  V ;.>.$.%.&. .            ,.'.>.$.%.-.#.  ",
"  V ;.>.$.%.&. .            ,.'.>.$.%.-.#.  ",
"  V ;.>.$.%.&. .            ,.'.>.$.%.-.#.  ",
"  V ;.>.$.%.&. .            ,.'.>.$.%.-.#.  ",
"  V ).!.~.=.{. .            *.].!.~.^./.#.  ",
"  V (._.:._.<.[.            ..}.|.:.1.2.#.  ",
"  3.4.5.6.7.8.P             Q 9.5.6.0.a.b.  ",
"  c.d.e.f.g.h.i.            j.k.l.f.m.n.o.  ",
"  p.q.r.s.r.t.u.            v.w.x.s.y.z.A.  ",
"  B.C.D.E.F.G.H.            I.J.D.E.K.L.M.  ",
"  N.O.P.Q.R.S.T.            U.V.W.Q.X.Y.Z.  ",
"  `. +.+++@+#+$+            %+&+*+++=+-+;+  ",
"  >+,+'+)+'+!+~+            * {+'+)+'+!+]+  "};
