/* XPM */
static const char *redo_xpm[] = {
"48 48 435 2",
"  	c None",
". 	c #3A3333",
"+ 	c #523333",
"@ 	c #603B33",
"# 	c #453333",
"$ 	c #583333",
"% 	c #EAA538",
"& 	c #775040",
"* 	c #4C3333",
"= 	c #3C3333",
"- 	c #FFB539",
"; 	c #FFF6E6",
"> 	c #A17A5C",
", 	c #3E3333",
"' 	c #FFFFFF",
") 	c #C0A58E",
"! 	c #603B34",
"~ 	c #433333",
"{ 	c #FFFCF9",
"] 	c #FFFDF9",
"^ 	c #DFCAB1",
"/ 	c #775041",
"( 	c #4A3333",
"_ 	c #FFF8EE",
": 	c #FFF9EE",
"< 	c #F4E5CD",
"[ 	c #967159",
"} 	c #FFF4E3",
"| 	c #FFF5E4",
"1 	c #FFF1DB",
"2 	c #C09E7B",
"3 	c #413333",
"4 	c #3F3333",
"5 	c #493333",
"6 	c #503333",
"7 	c #FFF0D7",
"8 	c #FFF0D8",
"9 	c #FFF0D9",
"0 	c #FFF1D9",
"a 	c #FFF1DA",
"b 	c #DFC4A0",
"c 	c #6C4436",
"d 	c #543333",
"e 	c #77554E",
"f 	c #AB8E7C",
"g 	c #D5BDA3",
"h 	c #F4DFC1",
"i 	c #FFECCB",
"j 	c #FFECCC",
"k 	c #FFECCD",
"l 	c #FFEDCE",
"m 	c #FFEDCF",
"n 	c #FFEED0",
"o 	c #FFEED1",
"p 	c #F4DDB6",
"q 	c #8C654C",
"r 	c #6C453A",
"s 	c #AB886C",
"t 	c #EACFAA",
"u 	c #FFE6BD",
"v 	c #FFE7BE",
"w 	c #FFE7BF",
"x 	c #FFE7C0",
"y 	c #FFE8C1",
"z 	c #FFE8C2",
"A 	c #FFE9C3",
"B 	c #FFE9C4",
"C 	c #FFEAC5",
"D 	c #FFEAC6",
"E 	c #FFEBC7",
"F 	c #FFE9C0",
"G 	c #B59069",
"H 	c #403333",
"I 	c #623A32",
"J 	c #B5906E",
"K 	c #FFDDA5",
"L 	c #FFE0AF",
"M 	c #FFE1B0",
"N 	c #FFE1B1",
"O 	c #FFE2B2",
"P 	c #FFE2B3",
"Q 	c #FFE3B4",
"R 	c #FFE3B5",
"S 	c #FFE4B6",
"T 	c #FFE4B7",
"U 	c #FFE5B8",
"V 	c #FFE5B9",
"W 	c #FFE6BA",
"X 	c #FFE6BB",
"Y 	c #FFE7BC",
"Z 	c #FFE7BD",
"` 	c #FFE8BE",
" .	c #FFE8BF",
"..	c #DFBD8A",
"+.	c #623C35",
"@.	c #473333",
"#.	c #A16F42",
"$.	c #F4C988",
"%.	c #FFDBA0",
"&.	c #FFDBA2",
"*.	c #FFDCA3",
"=.	c #FFDCA4",
"-.	c #FFDDA6",
";.	c #FFDEA7",
">.	c #FFDEA8",
",.	c #FFDFA9",
"'.	c #FFDFAA",
").	c #FFE0AB",
"!.	c #FFE1AD",
"~.	c #FFE2AE",
"{.	c #FFE2B0",
"].	c #FFE3B1",
"^.	c #FFE3B2",
"/.	c #FFE4B3",
"(.	c #FFE4B4",
"_.	c #FFE5B5",
":.	c #FFE5B6",
"<.	c #F4D59C",
"[.	c #815A42",
"}.	c #4E3333",
"|.	c #603A31",
"1.	c #CA9655",
"2.	c #FFD592",
"3.	c #FFD593",
"4.	c #FFD694",
"5.	c #FFD695",
"6.	c #FFD797",
"7.	c #FFD898",
"8.	c #FFD899",
"9.	c #FFD99A",
"0.	c #FFDA9C",
"a.	c #FFDA9D",
"b.	c #FFDB9E",
"c.	c #FFDB9F",
"d.	c #FFDCA0",
"e.	c #FFDDA2",
"f.	c #FFDDA3",
"g.	c #FFDEA4",
"h.	c #FFDEA5",
"i.	c #FFDFA7",
"j.	c #FFE0A8",
"k.	c #FFE0A9",
"l.	c #FFE1AA",
"m.	c #FFE1AB",
"n.	c #FFE2AD",
"o.	c #FFE3AE",
"p.	c #AB845C",
"q.	c #6C412F",
"r.	c #DFA95F",
"s.	c #FFCF84",
"t.	c #FFD085",
"u.	c #FFD187",
"v.	c #FFD188",
"w.	c #FFD289",
"x.	c #FFD38B",
"y.	c #FFD38C",
"z.	c #FFD48D",
"A.	c #FFD58F",
"B.	c #FFD590",
"C.	c #FFD692",
"D.	c #FFD793",
"E.	c #FFD794",
"F.	c #FFD896",
"G.	c #FFD997",
"H.	c #FFD998",
"I.	c #FFDA9A",
"J.	c #FFDB9B",
"K.	c #FFDB9C",
"L.	c #FFDC9E",
"M.	c #FFDD9F",
"N.	c #FFDDA0",
"O.	c #FFDEA2",
"P.	c #FFDFA3",
"Q.	c #FFDFA4",
"R.	c #FFE0A6",
"S.	c #FFE1A7",
"T.	c #D5AE74",
"U.	c #603C36",
"V.	c #77482D",
"W.	c #F4B452",
"X.	c #FFCA76",
"Y.	c #FFCA77",
"Z.	c #FFCB79",
"`.	c #FFCC7A",
" +	c #FFCD7C",
".+	c #FFCD7D",
"++	c #FFCE7F",
"@+	c #FFCF80",
"#+	c #FFD082",
"$+	c #FFD083",
"%+	c #FFD185",
"&+	c #FFD286",
"*+	c #FFD288",
"=+	c #FFD389",
"-+	c #FFD48B",
";+	c #FFD58C",
">+	c #FFD58E",
",+	c #FFD68F",
"'+	c #FFD791",
")+	c #FFD892",
"!+	c #FFD894",
"~+	c #FFD995",
"{+	c #FFDA97",
"]+	c #FFDB98",
"^+	c #FFDB9A",
"/+	c #FFDC9B",
"(+	c #FFDD9D",
"_+	c #FFD688",
":+	c #FFD570",
"<+	c #EADF85",
"[+	c #6C4C3F",
"}+	c #3D3232",
"|+	c #F4B048",
"1+	c #FFC367",
"2+	c #FFC468",
"3+	c #FFC56A",
"4+	c #FFC66C",
"5+	c #FFC76D",
"6+	c #FFC86F",
"7+	c #FFC870",
"8+	c #FFC972",
"9+	c #FFCA74",
"0+	c #FFCB75",
"a+	c #FFCC77",
"b+	c #FFCD79",
"c+	c #FFCD7B",
"d+	c #FFCE7C",
"e+	c #FFCF7E",
"f+	c #FFD07F",
"g+	c #FFD181",
"h+	c #FFD183",
"i+	c #FFD284",
"j+	c #FFD386",
"k+	c #FFD488",
"l+	c #FFD589",
"m+	c #FFD58B",
"n+	c #FFD78D",
"o+	c #FFD78E",
"p+	c #FFD27E",
"q+	c #FFCA64",
"r+	c #FFE078",
"s+	c #F4F292",
"t+	c #967F59",
"u+	c #352E2E",
"v+	c #DF9732",
"w+	c #FFBD58",
"x+	c #FFBE59",
"y+	c #FFBF5B",
"z+	c #FFC05D",
"A+	c #FFC15F",
"B+	c #FFC261",
"C+	c #FFC362",
"D+	c #FFC464",
"E+	c #FFC566",
"F+	c #FFC668",
"G+	c #FFC66A",
"H+	c #FFC76B",
"I+	c #FFC86D",
"J+	c #FFC96F",
"K+	c #FFCA71",
"L+	c #FFCB72",
"M+	c #FFCC74",
"N+	c #FFCD76",
"O+	c #FFCE78",
"P+	c #FFCE7A",
"Q+	c #FFD07C",
"R+	c #FFD07D",
"S+	c #FFD17F",
"T+	c #FFD17E",
"U+	c #FFCD72",
"V+	c #FFC965",
"W+	c #FFC458",
"X+	c #FFC95D",
"Y+	c #FFF189",
"Z+	c #DFD885",
"`+	c #775946",
" @	c #362F2F",
".@	c #CA7F1C",
"+@	c #FFA314",
"@@	c #FFAA25",
"#@	c #FFAF31",
"$@	c #FFB33C",
"%@	c #FFB745",
"&@	c #FFBC52",
"*@	c #FFBD54",
"=@	c #FFBE56",
"-@	c #FFBF58",
";@	c #FFC05A",
">@	c #FFC15C",
",@	c #FFC25D",
"'@	c #FFC35F",
")@	c #FFC462",
"!@	c #FFC563",
"~@	c #FFC665",
"{@	c #FFC767",
"]@	c #FFC869",
"^@	c #FFC96B",
"/@	c #FFC766",
"(@	c #FFC660",
"_@	c #FFC45B",
":@	c #FFC256",
"<@	c #FFC150",
"[@	c #FFC252",
"}@	c #FFC355",
"|@	c #FFD66C",
"1@	c #FFFB95",
"2@	c #C0B272",
"3@	c #603F39",
"4@	c #302A2A",
"5@	c #A16323",
"6@	c #FFA212",
"7@	c #FFA417",
"8@	c #FFA519",
"9@	c #FFA71B",
"0@	c #FFA81E",
"a@	c #FFA921",
"b@	c #FFAA23",
"c@	c #FFAF2D",
"d@	c #FFB132",
"e@	c #FFB235",
"f@	c #FFB337",
"g@	c #FFB439",
"h@	c #FFB53B",
"i@	c #FFB73E",
"j@	c #FFB840",
"k@	c #FFB943",
"l@	c #FFBA45",
"m@	c #FFBA43",
"n@	c #FFB941",
"o@	c #FFBC46",
"p@	c #FFBD49",
"q@	c #FFBE4B",
"r@	c #FFBF4E",
"s@	c #FFC657",
"t@	c #FFE47B",
"u@	c #FFFF99",
"v@	c #A18C5F",
"w@	c #623930",
"x@	c #F49911",
"y@	c #FFAC25",
"z@	c #FFAD28",
"A@	c #FFAE2B",
"B@	c #FFB12F",
"C@	c #FFB232",
"D@	c #FFB335",
"E@	c #FFB437",
"F@	c #FFB73C",
"G@	c #FFB83F",
"H@	c #FFCC5D",
"I@	c #FFF38B",
"J@	c #EAE58C",
"K@	c #C0771B",
"L@	c #FFA00F",
"M@	c #FFBC3D",
"N@	c #FFD662",
"O@	c #FFEB7E",
"P@	c #FFF58B",
"Q@	c #FFC851",
"R@	c #FFDB6E",
"S@	c #CABF79",
"T@	c #322C2C",
"U@	c #6C402E",
"V@	c #FF9F0D",
"W@	c #FFAE28",
"X@	c #FFD45E",
"Y@	c #FFF48A",
"Z@	c #AB9966",
"`@	c #FFBF45",
" #	c #FFC14D",
".#	c #FFEA80",
"+#	c #3F3232",
"@#	c #C0761A",
"##	c #FFAC23",
"$#	c #FFD35B",
"%#	c #FFF991",
"&#	c #623F39",
"*#	c #FFCC5A",
"=#	c #FFFA93",
"-#	c #81664C",
";#	c #393030",
">#	c #6C402D",
",#	c #FF9E0A",
"'#	c #FFBC39",
")#	c #FFF489",
"!#	c #373030",
"~#	c #FFE173",
"{#	c #D5CC7F",
"]#	c #332D2D",
"^#	c #B56E1B",
"/#	c #FFCC4F",
"(#	c #393232",
"_#	c #FFC54F",
":#	c #FFF188",
"<#	c #B5A56C",
"[#	c #2B2626",
"}#	c #563333",
"|#	c #F4960A",
"1#	c #FFDC67",
"2#	c #FFD25E",
"3#	c #8C7252",
"4#	c #8C5324",
"5#	c #FF9D08",
"6#	c #FFDC66",
"7#	c #FFE87B",
"8#	c #C07416",
"9#	c #FFC442",
"0#	c #2E2828",
"a#	c #EA8E0B",
"b#	c #FFB127",
"c#	c #3A3131",
"d#	c #77462A",
"e#	c #FF9B05",
"f#	c #FFA413",
"g#	c #FFF387",
"h#	c #A1601E",
"i#	c #FFCE51",
"j#	c #C07315",
"k#	c #FFA91A",
"l#	c #DF870C",
"m#	c #FFDA62",
"n#	c #FF9A03",
"o#	c #FFA817",
"p#	c #774629",
"q#	c #FFD358",
"r#	c #814C26",
"s#	c #FFF88F",
"t#	c #A15F1D",
"u#	c #FFC03B",
"v#	c #AB661A",
"w#	c #FFDF69",
"x#	c #B56C17",
"y#	c #D59F3C",
"z#	c #D5B862",
"A#	c #A18556",
"B#	c #3C3131",
"                                                    . .                                         ",
"                                                  . + @ # .                                     ",
"                                                  . $ % & * =                                   ",
"                                                  . $ - ; > + ,                                 ",
"                                                  . $ - ' ' ) ! ~ .                             ",
"                                                  . $ - { { ] ^ / ( .                           ",
"                                                  . $ - _ : : : < [ + =                         ",
"                                                  . $ - } } | | | 1 2 ! 3                       ",
"                                            . 4 5 6 $ - 7 8 9 0 0 a 1 b c 5 .                   ",
"                                      . , ( d e f g h i j k k l m m n o p q 6 =                 ",
"                                    , * r s t u u v w x y z z A B C D D E F G d H               ",
"                                . 5 I J K L M N O P Q Q R S T U V W X Y Z `  ...+.@..           ",
"                              H + #.$.%.&.*.=.K -.;.>.,.'.).!.!.~.{.].^./.(._.:.<.[.}.=         ",
"                            ~ |.1.2.3.4.5.6.7.8.9.0.a.b.c.d.e.f.g.h.i.j.k.l.m.n.o.l.p.+ H       ",
"                          # q.r.s.t.u.v.w.x.y.z.A.B.C.D.E.F.G.H.I.J.K.L.M.N.O.P.Q.R.S.T.U.#     ",
"                        # V.W.X.Y.Z.`. +.+++@+#+$+%+&+*+=+-+;+>+,+'+)+!+~+{+]+^+/+(+_+:+<+[+}+  ",
"                      ~ q.|+1+2+3+4+5+6+7+8+9+0+a+b+c+d+e+f+g+h+i+j+k+l+m+n+o+n+p+q+r+s+t+6 u+  ",
"                    H |.v+w+x+y+z+A+B+C+D+E+F+G+H+I+J+K+L+M+N+O+P+Q+R+S+T+U+V+W+X+Y+Z+`+(  @    ",
"                  . + .@+@@@#@$@%@&@*@=@-@;@>@,@'@)@!@~@{@]@^@^@/@(@_@:@<@[@}@|@1@2@3@~ 4@      ",
"                  5 5@6@+@7@8@9@0@a@b@c@d@e@f@g@h@i@j@k@l@m@n@m@o@p@q@r@<@s@t@u@v@+ }+          ",
"                H w@x@6@+@7@8@9@0@a@b@y@z@A@c@B@C@D@E@- F@G@n@m@o@p@q@r@H@I@J@`+*  @            ",
"              . 6 K@L@6@+@7@8@9@0@a@b@y@M@N@O@P@u@u@u@Q@F@G@n@m@o@p@q@R@u@S@3@# T@              ",
"              3 U@V@L@6@+@7@8@9@0@W@X@Y@u@u@Z+2@Z@Z@Z@`@F@G@n@m@o@ #.#u@Z@+ +#                  ",
"            . 6 @#V@L@6@+@7@8@##$#%#u@S@t+&#6 ( 5 ~ $ - F@G@n@m@*#=#s+-#* ;#                    ",
"            , >#,#V@L@6@+@7@'#)#u@2@[+6 # ;#4@    !#$ - F@G@n@~#u@{#&#@.]#                      ",
"            * ^#,#V@L@6@+@/#u@J@-#6 }+T@          (#$ - F@_#:#u@<#d +#[#                        ",
"          . }#|#,#V@L@6@1#u@2@3@~ T@              . $ - 2#=#s+3#}.;#                            ",
"          ~ 4#5#,#V@L@6#u@Z@+ }+                  . $ 7#u@Z+[+5 ]#                              ",
"          * 8#5#,#V@9#u@t++ ;#                    . $ u@<#}#3 0#                                ",
"        . d a#5#,#b#u@2@+ ;#                      . }#3#6 c#                                    ",
"        , d#e#5#f#g#{#d ;#                          ~ @.u+                                      ",
"        # h#e#5#i#s+&#+#                                                                        ",
"        * j#e#k#u@t+5 [#                                                                        ",
"      . 6 l#e#m#{#+  @                                                                          ",
"      . $ n#o#u@-#3                                                                             ",
"      , p#n#q#{#6 ]#                                                                            ",
"      3 r#n#s#-#3                                                                               ",
"      # t#u#Z+d ]#                                                                              ",
"      5 v#w#v@#                                                                                 ",
"      5 x#u@&#c#                                                                                ",
"      * y#S@}.0#                                                                                ",
"    . 6 z#A##                                                                                   ",
"    . 6 {#[+B#                                                                                  ",
"    . 6 2@+ ]#                                                                                  ",
"    . 6 t+( [#                                                                                  ",
"    . }.&##                                                                                     ",
"      = 3 T@                                                                                    ",
"                                                                                                "};
