/* XPM */
static const char *sagital_xpm[] = {
"48 48 158 2",
"  	c #000000",
". 	c #010101",
"+ 	c #0A0A0A",
"@ 	c #292929",
"# 	c #363636",
"$ 	c #2C2C2C",
"% 	c #676767",
"& 	c #989898",
"* 	c #444444",
"= 	c #040404",
"- 	c #101010",
"; 	c #262626",
"> 	c #111111",
", 	c #020202",
"' 	c #060606",
") 	c #0B0B0B",
"! 	c #272727",
"~ 	c #2D2D2D",
"{ 	c #232323",
"] 	c #171717",
"^ 	c #161616",
"/ 	c #1D1D1D",
"( 	c #2B2B2B",
"_ 	c #373737",
": 	c #3A3A3A",
"< 	c #323232",
"[ 	c #191919",
"} 	c #090909",
"| 	c #393939",
"1 	c #3B3B3B",
"2 	c #555555",
"3 	c #666666",
"4 	c #7D7D7D",
"5 	c #8F8F8F",
"6 	c #878787",
"7 	c #919191",
"8 	c #848484",
"9 	c #6F6F6F",
"0 	c #626262",
"a 	c #515151",
"b 	c #121212",
"c 	c #070707",
"d 	c #1B1B1B",
"e 	c #2F2F2F",
"f 	c #454545",
"g 	c #5D5D5D",
"h 	c #8B8B8B",
"i 	c #9C9C9C",
"j 	c #898989",
"k 	c #6E6E6E",
"l 	c #4A4A4A",
"m 	c #353535",
"n 	c #3E3E3E",
"o 	c #464646",
"p 	c #575757",
"q 	c #818181",
"r 	c #9A9A9A",
"s 	c #545454",
"t 	c #565656",
"u 	c #8C8C8C",
"v 	c #A4A4A4",
"w 	c #4B4B4B",
"x 	c #212121",
"y 	c #303030",
"z 	c #5A5A5A",
"A 	c #5C5C5C",
"B 	c #585858",
"C 	c #424242",
"D 	c #7C7C7C",
"E 	c #646464",
"F 	c #313131",
"G 	c #080808",
"H 	c #050505",
"I 	c #999999",
"J 	c #9E9E9E",
"K 	c #4C4C4C",
"L 	c #141414",
"M 	c #4F4F4F",
"N 	c #484848",
"O 	c #5E5E5E",
"P 	c #474747",
"Q 	c #242424",
"R 	c #737373",
"S 	c #AEAEAE",
"T 	c #4D4D4D",
"U 	c #222222",
"V 	c #434343",
"W 	c #333333",
"X 	c #343434",
"Y 	c #3C3C3C",
"Z 	c #494949",
"` 	c #2E2E2E",
" .	c #181818",
"..	c #595959",
"+.	c #404040",
"@.	c #858585",
"#.	c #838383",
"$.	c #2A2A2A",
"%.	c #414141",
"&.	c #505050",
"*.	c #525252",
"=.	c #0D0D0D",
"-.	c #4E4E4E",
";.	c #131313",
">.	c #5F5F5F",
",.	c #383838",
"'.	c #5B5B5B",
").	c #7F7F7F",
"!.	c #282828",
"~.	c #1E1E1E",
"{.	c #535353",
"].	c #777777",
"^.	c #6A6A6A",
"/.	c #656565",
"(.	c #0F0F0F",
"_.	c #151515",
":.	c #3F3F3F",
"<.	c #616161",
"[.	c #1C1C1C",
"}.	c #3D3D3D",
"|.	c #6C6C6C",
"1.	c #606060",
"2.	c #1A1A1A",
"3.	c #6D6D6D",
"4.	c #252525",
"5.	c #636363",
"6.	c #939393",
"7.	c #8E8E8E",
"8.	c #8A8A8A",
"9.	c #959595",
"0.	c #696969",
"a.	c #757575",
"b.	c #202020",
"c.	c #686868",
"d.	c #767676",
"e.	c #7B7B7B",
"f.	c #7A7A7A",
"g.	c #717171",
"h.	c #7E7E7E",
"i.	c #808080",
"j.	c #909090",
"k.	c #868686",
"l.	c #707070",
"m.	c #969696",
"n.	c #030303",
"o.	c #888888",
"p.	c #747474",
"q.	c #0E0E0E",
"r.	c #1F1F1F",
"s.	c #6B6B6B",
"t.	c #727272",
"u.	c #0C0C0C",
"v.	c #797979",
"w.	c #949494",
"x.	c #A8A8A8",
"y.	c #929292",
"z.	c #9B9B9B",
"A.	c #828282",
"                                                                                                ",
"                                                                                                ",
"                                                                                                ",
"                                                                                                ",
"                                                                                                ",
"                                                                                                ",
"                                                                                                ",
"        .                     + @ # $ % & * = - ; > . .                         . , , , .       ",
"                            ' ) ! ~ ~ { ] ^ ^ / { ( _ : < ; [ } ,               . , , , .       ",
"                          , + + } ^ | 1 * 2 3 4 5 6 5 7 8 9 0 a | b ,             , , , .       ",
"                          . c d e f g h i j k l m $ m n o p q r q s ! =           , , , .       ",
"                        . ] : t u v 8 w [ x y w z A A B a C @ / o D E F G         . , , .       ",
"                      H y t I J K ^ L # s a 2 2 M B a N O 0 O P { Q 3 3 m H       . , , .       ",
"                    } n R S T U ! _ w N * 1 # V P | W X Y # Z O s `  .p ..; .     . , , .       ",
"                  ) +.@.#.U $.: | 1 # Y F %.W X : W &.*.a F * T &.z < =.-.a ;.    . , , .       ",
"                } +.q p x | : # _ >.+._ e ,.n y m e # y ` e F ` X V '.$.- A e ,     . , .       ",
"              = | ).f !.: ,.m 0 %.,._ ` ` : *.%.1 X ` < e X ,.W Y ` %...~.! {.L     . , .       ",
"            . @ ].N $.y ~ _ P ^./.n o | _ F y M w F y e X : | X N Y V o K (.l < ,   . , .       ",
"            _.{.N $.F M l M K -.V a p g :.z Y Z : N C Y X ,.| X Z <.E Z M ( [.l ^   . , .       ",
"          H Y &.!.: :.>.E N 0 &.'.%.t C t {.p ..Z M V # < F V C p 0 /.2 # }.=.K W ,   , .       ",
"          U |.x n Y ^.V a o 3 n ,.s K K _ Z {.{.-.a P C : < _ l &.p 1.>.>.# 2.U 2 >   . .       ",
"        c P M < m _ % < O Y -.w W W }.m * s t *.Z t O K < < | K p ^.>.3.9 z @ _.K 4.  . .       ",
"        [ k Q :.~ o 2 {.5.T ..: m W Y '.@.6.7.8.5 9.9...F ~ < n O {.0.9 k a.n b.!.+.H           ",
"        $ ^.{ n F o :.1.w c.:.F Y 3 7.u d.|.e.% }.z 9.f.y y e W &.>.2 w z c...;  .N L           ",
"        < a $.: l V Z P T {.&.T ].8.>.-.5.@.a._ ~ _ 7.g.` ~ < e < | >.c.h.d.i.f ! | (           ",
"      . %.N ( F X w : '.: M E j.k.:.` Z D l.* C y ~ o ,.e ~ ` # F z B l.4 q #./.$ $ o ,         ",
"      . w ,.; F o m y 5._ Y @.m.l.X e ..h.C B g W ~ ` ~ ~ ~ : W 1 }.s >.k <.0.9 m y ..c         ",
"      n.O # Q ( < Z | E p 1 2 a.o.|.N ^.{.` ` e ` Y %.~ ~ P *.-.* Y 1 0.p.p.#.].y e 0 q.        ",
"      ' 5.; ' x # +.,.: a >.O &.W W F o n ~ W l T B -.e T {.A B 1.1 N P ^.k 3.>.( $./.L         ",
"      c /.r.   .B :.e 1 l ..0 5.P y y ` y :.a c.f.l.s P s.2 /.|.T w s o n T O ,.~ $ ^. .        ",
"      c s.2.. ) l _ _ C l a O 0 Z e F < Y n W _ k t.B m % c.|.0 f 1.<.:.n T * ( $ @ k ^         ",
"      ' 5.{ u., x < m K Z P &.-.w e C K W ~ ` a v.].|.X t 3.g.5.g |.1.l ` n Q ( 4.: p.q.        ",
"      n.a | U H G * +.` y :.l y ;.' { f %.~ # 4 6 u d.Y ` # 3 9 3.|.k t +.! { U ; z ).}         ",
"      H y c.^ n.G Z F 4.; d ' n., . U >.f ` Y k.D @.4 s ~ * k 9 k 3 c.P | [.( : * e.3.}         ",
"      } d |.{ _./ W W e F _ U q., . . . + ( F q h.h.e.^.y P k 9 9 9 *.e ~ d C a m w.T q.        ",
"      c { '.$ !.; $ ` ` ,.l $.} . . .   . [.` K q e.a.p.n e T 0 0 s m $.[ ! z V :.j.n c         ",
"      n.< K ,.| %.n X * -.Y Q ' , , n.= ) | X y o N g.e.-.~ X :.` ~ @ @ $ a <.C T k.* u..       ",
"      , :.,.%.p s p %.* :.X e F r. .x ,.N O # $ ~ ` E v.1.` ~ ~ $ U _ w ..d.B < ..l.M ] .       ",
"      ) f &.<.4 o.d.t a V | :.K }.f ; A 5.5.1 $ ~ $ * v.t.Z ( $ ; $.m s u p.T _ E 9 s / .       ",
"      ] t.x.y.6.6.k.0 g z A A '.M Q G ! z 5.f F m e $ B c.a $.( ` F C ].8.3.Z V |.s.2 /         ",
"      ] t.z.q A.A.g.{.-.a *.f _ `  .= ' x K -.< 2 Z @ X A -.; ~ V -.|.i.E t 1 V 3 g }.b         ",
"                                                                                                ",
"                                                                                                ",
"                                                                                                ",
"                                                                                                ",
"                                                                                                ",
"                                                                                                ",
"                                                                                                "};
